SplineFontDB: 3.0
FontName: MScore-20
FullName: MScore
FamilyName: MScore
Weight: Book
Copyright: This font is distributed under the GNU General Public License. As a special exception, if you create a document which uses this font, and embed this font or unaltered portions of this font into the document, this font does not by itself cause the resulting document to be covered by the GNU General Public License.
Version: 2.4
ItalicAngle: 0
UnderlinePosition: -99
UnderlineWidth: 49
Ascent: 819
Descent: 205
LayerCount: 2
Layer: 0 1 "Back"  1
Layer: 1 1 "Fore"  0
XUID: [1021 577 2134738168 4204088]
FSType: 0
OS2Version: 0
OS2_WeightWidthSlopeOnly: 0
OS2_UseTypoMetrics: 0
CreationTime: 1271071127
ModificationTime: 1378767697
PfmFamily: 17
TTFWeight: 400
TTFWidth: 5
LineGap: 90
VLineGap: 0
Panose: 2 0 5 3 0 0 0 0 0 0
OS2TypoAscent: 0
OS2TypoAOffset: 1
OS2TypoDescent: 0
OS2TypoDOffset: 1
OS2TypoLinegap: 0
OS2WinAscent: 1000
OS2WinAOffset: 1
OS2WinDescent: 300
OS2WinDOffset: 1
HheadAscent: 1000
HheadAOffset: 1
HheadDescent: -300
HheadDOffset: 1
OS2SubXSize: 666
OS2SubYSize: 716
OS2SubXOff: 0
OS2SubYOff: 143
OS2SupXSize: 666
OS2SupYSize: 716
OS2SupXOff: 0
OS2SupYOff: 490
OS2StrikeYSize: 50
OS2StrikeYPos: 264
OS2Vendor: 'PfEd'
Lookup: 258 0 0 "'kern' Horizontal Kerning in Latin lookup 0"  {"'kern' Horizontal Kerning in Latin lookup 0 subtable"  } ['kern' ('latn' <'dflt' > ) ]
MarkAttachClasses: 1
DEI: 91125
TtTable: prep
PUSHW_1
 511
SCANCTRL
PUSHB_1
 1
SCANTYPE
SVTCA[y-axis]
MPPEM
PUSHB_1
 8
LT
IF
PUSHB_2
 1
 1
INSTCTRL
EIF
PUSHB_2
 70
 6
CALL
IF
POP
PUSHB_1
 16
EIF
MPPEM
PUSHB_1
 20
GT
IF
POP
PUSHB_1
 128
EIF
SCVTCI
PUSHB_1
 6
CALL
NOT
IF
EIF
PUSHB_1
 20
CALL
EndTTInstrs
TtTable: fpgm
PUSHB_1
 0
FDEF
PUSHB_1
 0
SZP0
MPPEM
PUSHB_1
 42
LT
IF
PUSHB_1
 74
SROUND
EIF
PUSHB_1
 0
SWAP
MIAP[rnd]
RTG
PUSHB_1
 6
CALL
IF
RTDG
EIF
MPPEM
PUSHB_1
 42
LT
IF
RDTG
EIF
DUP
MDRP[rp0,rnd,grey]
PUSHB_1
 1
SZP0
MDAP[no-rnd]
RTG
ENDF
PUSHB_1
 1
FDEF
DUP
MDRP[rp0,min,white]
PUSHB_1
 12
CALL
ENDF

StartChar: .notdef
Encoding: 256 -1 0
Width: 371
Flags: W
HStem: 0 34<68 271> 648 34<68 271>
VStem: 34 34<34 648> 271 34<34 648>
LayerCount: 2
Fore
SplineSet
34 0 m 257,0,-1
 34 682 l 257,1,-1
 305 682 l 257,2,-1
 305 0 l 257,3,-1
 34 0 l 257,0,-1
68 34 m 257,4,-1
 271 34 l 257,5,-1
 271 648 l 257,6,-1
 68 648 l 257,7,-1
 68 34 l 257,4,-1
EndSplineSet
EndChar

StartChar: plus
Encoding: 260 43 4
Width: 256
Flags: W
HStem: 230 52<7.21997 102 154 248.78>
VStem: 102 52<135.735 230 282 376.265>
LayerCount: 2
Fore
SplineSet
128 128 m 256,0,1
 117 128 117 128 109.5 135.5 c 256,2,3
 102 143 102 143 102 154 c 258,4,-1
 102 230 l 257,5,-1
 26 230 l 258,6,7
 15 230 15 230 7.5 238 c 256,8,9
 0 246 0 246 0 256 c 256,10,11
 0 266 0 266 7 274 c 256,12,13
 14 282 14 282 26 282 c 258,14,-1
 102 282 l 257,15,-1
 102 358 l 258,16,17
 102 368 102 368 109.5 376 c 256,18,19
 117 384 117 384 128 384 c 256,20,21
 139 384 139 384 146.5 376.5 c 256,22,23
 154 369 154 369 154 358 c 258,24,-1
 154 282 l 257,25,-1
 230 282 l 258,26,27
 241 282 241 282 248.5 274 c 256,28,29
 256 266 256 266 256 256 c 256,30,31
 256 246 256 246 249 238 c 256,32,33
 242 230 242 230 230 230 c 258,34,-1
 154 230 l 257,35,-1
 154 154 l 258,36,37
 154 144 154 144 146.5 136 c 256,38,39
 139 128 139 128 128 128 c 256,0,1
EndSplineSet
EndChar

StartChar: comma
Encoding: 261 44 5
Width: 117
Flags: W
HStem: -161 279<40 54>
VStem: 68 50<-61.5682 70.5>
LayerCount: 2
Fore
SplineSet
68 -37 m 256,0,1
 68 -20 68 -20 57 -9 c 256,2,3
 46 2 46 2 34 6 c 256,4,5
 22 10 22 10 11 23.5 c 256,6,7
 0 37 0 37 0 58 c 256,8,9
 0 83 0 83 17 100.5 c 256,10,11
 34 118 34 118 58.5 118 c 256,12,13
 83 118 83 118 100.5 100.5 c 256,14,15
 118 83 118 83 118 58 c 256,16,17
 118 -28 118 -28 58 -153 c 256,18,19
 54 -161 54 -161 46 -161 c 256,20,21
 40 -161 40 -161 35 -157 c 256,22,23
 30 -153 30 -153 30 -146 c 256,24,25
 30 -143 30 -143 49 -102.5 c 256,26,27
 68 -62 68 -62 68 -37 c 256,0,1
EndSplineSet
EndChar

StartChar: hyphen
Encoding: 262 45 6
Width: 169
Flags: W
HStem: 156 29<0.00366211 170.996>
VStem: 0 171<156 185>
LayerCount: 2
Fore
SplineSet
156 156 m 258,0,-1
 15 156 l 258,1,2
 0 156 0 156 0 170.5 c 256,3,4
 0 185 0 185 15 185 c 258,5,-1
 156 185 l 258,6,7
 171 185 171 185 171 170.5 c 256,8,9
 171 156 171 156 156 156 c 258,0,-1
EndSplineSet
EndChar

StartChar: period
Encoding: 263 46 7
Width: 117
Flags: W
HStem: 0 118<13.3984 104.602>
VStem: 0 118<13.3984 104.602>
LayerCount: 2
Fore
SplineSet
0 59 m 256,0,1
 0 83 0 83 17.5 100.5 c 256,2,3
 35 118 35 118 59 118 c 256,4,5
 83 118 83 118 100.5 100.5 c 256,6,7
 118 83 118 83 118 59 c 256,8,9
 118 35 118 35 100.5 17.5 c 256,10,11
 83 0 83 0 59 0 c 256,12,13
 35 0 35 0 17.5 17.5 c 256,14,15
 0 35 0 35 0 59 c 256,0,1
EndSplineSet
EndChar

StartChar: zero
Encoding: 264 48 8
Width: 375
Flags: W
HStem: 0 30<150.049 225.951> 482 30<150.049 225.951>
VStem: 0 119<132.963 379.535> 257 119<132.963 379.535>
LayerCount: 2
Fore
SplineSet
188 482 m 256,0,1
 143 482 143 482 130 426 c 256,2,3
 119 383 119 383 119 312 c 258,4,-1
 119 200 l 258,5,6
 119 130 119 130 130 86 c 256,7,8
 143 30 143 30 188 30 c 256,9,10
 233 30 233 30 246 86 c 256,11,12
 257 130 257 130 257 200 c 258,13,-1
 257 312 l 258,14,15
 257 383 257 383 246 426 c 256,16,17
 233 482 233 482 188 482 c 256,0,1
188 512 m 256,18,19
 273 512 273 512 324.5 435.5 c 256,20,21
 376 359 376 359 376 256 c 256,22,23
 376 153 376 153 324.5 76.5 c 256,24,25
 273 0 273 0 188 0 c 256,26,27
 103 0 103 0 51.5 76.5 c 256,28,29
 0 153 0 153 0 256 c 256,30,31
 0 359 0 359 51.5 435.5 c 256,32,33
 103 512 103 512 188 512 c 256,18,19
EndSplineSet
EndChar

StartChar: one
Encoding: 265 49 9
Width: 325
Flags: W
HStem: 0 24<33.0029 81.6797 277.125 325.997> 493 20G<225.5 232>
VStem: 120 119<53.3624 389.999>
DStem2: 0 256 27 244 0.424434 0.905459<-7.1092 164.739>
LayerCount: 2
Fore
SplineSet
179 499 m 256,0,1
 191 499 191 499 208 506 c 256,2,3
 225 513 225 513 226 513 c 256,4,5
 238 513 238 513 239 496 c 257,6,-1
 239 120 l 258,7,8
 239 80 239 80 260 52.5 c 256,9,10
 282 24 282 24 314 24 c 256,11,12
 326 24 326 24 326 12 c 256,13,14
 326 0 326 0 314 0 c 256,15,16
 292 0 292 0 246 6.5 c 256,17,18
 200 13 200 13 179.5 13 c 256,19,20
 158 13 158 13 112.5 6.5 c 256,21,22
 67 0 67 0 45 0 c 256,23,24
 33 0 33 0 33 12 c 256,25,26
 33 24 33 24 45 24 c 256,27,28
 77 24 77 24 99 52.5 c 256,29,30
 120 80 120 80 120 120 c 258,31,-1
 120 371 l 258,32,33
 120 379 120 379 114.5 384.5 c 256,34,35
 109 390 109 390 102.5 390 c 256,36,37
 95.2734 390 95.2734 390 92 383 c 258,38,-1
 27 244 l 258,39,40
 22.7799 234.976 22.7799 234.976 14 234 c 256,41,42
 8 234 8 234 3 238.5 c 256,43,44
 -2 243 -2 243 -2 249 c 256,45,46
 -2 251.733 -2 251.733 0 256 c 258,47,-1
 120 512 l 258,48,49
 121.406 515 121.406 515 125 515 c 256,50,51
 129 515 129 515 147 507 c 256,52,53
 165 499 165 499 179 499 c 256,0,1
EndSplineSet
EndChar

StartChar: two
Encoding: 266 50 10
Width: 375
Flags: W
HStem: 0 81<218 314.257> 68 73<66.3514 134.815> 488 24<131.35 204.225>
VStem: 12 105<366.5 459.5> 241 119<278.919 435.777> 347 29<86.8502 119.707>
LayerCount: 2
Fore
SplineSet
234 0 m 256,0,1
 202 0 202 0 179.5 11 c 256,2,3
 157 22 157 22 146.5 34 c 256,4,5
 136 46 136 46 120.5 57 c 256,6,7
 105 68 105 68 87 68 c 256,8,9
 62 68 62 68 44 52.5 c 256,10,11
 26 37 26 37 24 11 c 256,12,13
 22 0 22 0 12 0 c 256,14,15
 0 0 0 0 0 11 c 256,16,17
 0 49 0 49 18 81 c 256,18,19
 36 113 36 113 62.5 134.5 c 256,20,21
 89 156 89 156 120.5 180.5 c 256,22,23
 152 205 152 205 178.5 228 c 256,24,25
 205 251 205 251 223 286.5 c 256,26,27
 241 322 241 322 241 364 c 256,28,29
 241 416 241 416 223.5 452 c 256,30,31
 206 488 206 488 169 488 c 256,32,33
 147 488 147 488 132 478 c 256,34,35
 117 468 117 468 117 451 c 256,36,37
 117 437 117 437 135 416 c 256,38,39
 153 395 153 395 153 381 c 256,40,41
 153 351 153 351 132.5 330.5 c 256,42,43
 112 310 112 310 83 310 c 256,44,45
 53 310 53 310 32.5 331 c 256,46,47
 12 352 12 352 12 381 c 256,48,49
 12 438 12 438 58 475 c 256,50,51
 104 512 104 512 169 512 c 256,52,53
 246 512 246 512 303 470.5 c 256,54,55
 360 429 360 429 360 364 c 256,56,57
 360 320 360 320 344.5 287 c 256,58,59
 329 254 329 254 299 234 c 256,60,61
 269 214 269 214 239.5 200 c 256,62,63
 210 186 210 186 170 170 c 256,64,65
 130 154 130 154 105 138 c 257,66,67
 118 141 118 141 132 141 c 256,68,69
 178 141 178 141 228.5 111 c 256,70,71
 279 81 279 81 307 81 c 256,72,73
 323 81 323 81 333.5 87 c 256,74,75
 344 93 344 93 347 100.5 c 256,76,77
 350 108 350 108 354 114 c 256,78,79
 358 120 358 120 364 120 c 256,80,81
 376 120 376 120 376 108 c 256,82,83
 376 81 376 81 336.5 40.5 c 256,84,85
 297 0 297 0 234 0 c 256,0,1
EndSplineSet
EndChar

StartChar: three
Encoding: 267 51 11
Width: 340
Flags: W
HStem: 0 24<107.317 191.627> 256 30<75.0034 206.138> 488 24<103.345 192.575>
VStem: 0 93<53.4905 130> 12 81<394.5 466.071> 222 119<66.2323 220.717> 222 105<306.883 460.186>
LayerCount: 2
Fore
SplineSet
269 271 m 256,0,1
 269 261 269 261 280.5 252 c 256,2,3
 292 243 292 243 305 234.5 c 256,4,5
 318 226 318 226 329.5 202.5 c 256,6,7
 341 179 341 179 341 143 c 256,8,9
 341 74 341 74 289.5 37 c 256,10,11
 238 0 238 0 158 0 c 256,12,13
 95 0 95 0 47.5 31.5 c 256,14,15
 0 63 0 63 0 116 c 256,16,17
 0 144 0 144 20 163.5 c 256,18,19
 40 183 40 183 67.5 183 c 256,20,21
 95 183 95 183 114.5 163 c 256,22,23
 134 143 134 143 134 116 c 256,24,25
 134 103 134 103 113.5 88.5 c 256,26,27
 93 74 93 74 93 61 c 256,28,29
 93 42 93 42 112 33 c 256,30,31
 131 24 131 24 158 24 c 256,32,33
 193 24 193 24 207.5 58.5 c 256,34,35
 222 93 222 93 222 143 c 258,36,-1
 222 160 l 258,37,38
 222 194 222 194 220 211 c 256,39,40
 218 228 218 228 206.5 242 c 256,41,42
 195 256 195 256 171 256 c 258,43,-1
 89 256 l 258,44,45
 75 256 75 256 75 271 c 256,46,47
 75 285 75 285 89 286 c 258,48,-1
 171 286 l 258,49,50
 199 286 199 286 211 304 c 256,51,52
 220 318 220 318 222 354 c 256,53,54
 222 366 222 366 222 387 c 258,55,-1
 222 395 l 258,56,57
 222 488 222 488 154 488 c 256,58,59
 94 488 94 488 93 455 c 256,60,61
 93 444 93 444 111.5 431 c 256,62,63
 130 418 130 418 130 407 c 256,64,65
 130 382 130 382 112.5 364.5 c 256,66,67
 95 347 95 347 70.5 347 c 256,68,69
 46 347 46 347 29 364.5 c 256,70,71
 12 382 12 382 12 407 c 256,72,73
 12 455 12 455 54 483.5 c 256,74,75
 96 512 96 512 154 512 c 256,76,77
 230 512 230 512 278.5 483 c 256,78,79
 327 454 327 454 327 395 c 256,80,81
 327 353 327 353 318 330 c 256,82,83
 309 307 309 307 298 302 c 256,84,85
 287 297 287 297 278 290 c 256,86,87
 269 283 269 283 269 271 c 256,0,1
EndSplineSet
EndChar

StartChar: four
Encoding: 268 52 12
Width: 409
Flags: W
HStem: 0 24<114.003 162.484 358.125 406.997> 128 30<30 201 321 409.965> 493 19G<148 156 305.5 311.5>
VStem: 201 120<53.3624 128 158 324.364>
LayerCount: 2
Fore
SplineSet
230 499 m 256,0,1
 259 499 259 499 281 506 c 256,2,3
 303 513 303 513 308 513 c 256,4,5
 315 513 315 513 319 509 c 256,6,7
 322 506 322 506 323 502 c 256,8,9
 323 498.323 323 498.323 321 496 c 258,10,-1
 30 158 l 257,11,-1
 201 158 l 257,12,-1
 201 292 l 258,13,14
 201 306 201 306 208.5 314 c 256,15,16
 216 322 216 322 228.5 326.5 c 256,17,18
 241 331 241 331 260 354 c 256,19,20
 275 371 275 371 298 417 c 256,21,22
 301 423 301 423 307 423 c 256,23,24
 320 423 320 423 321 409 c 257,25,-1
 321 158 l 257,26,-1
 394 158 l 258,27,28
 409 158 409 158 410 143 c 256,29,30
 410 128 410 128 394 128 c 258,31,-1
 321 128 l 257,32,-1
 321 120 l 258,33,34
 321 78 321 78 341 52.5 c 256,35,36
 363 24 363 24 395 24 c 256,37,38
 407 24 407 24 407 12 c 256,39,40
 407 0 407 0 395 0 c 256,41,42
 373 0 373 0 327 6.5 c 256,43,44
 281 13 281 13 260.5 13 c 256,45,46
 238 13 238 13 193 6.5 c 256,47,48
 148 0 148 0 126 0 c 256,49,50
 114 0 114 0 114 12 c 256,51,52
 114 24 114 24 126 24 c 256,53,54
 158 24 158 24 180 52.5 c 256,55,56
 201 80 201 80 201 120 c 258,57,-1
 201 128 l 257,58,-1
 30 128 l 258,59,60
 14 128 14 128 6 135.5 c 256,61,62
 -2 143 -2 143 -2 152 c 256,63,64
 -2 155 -2 155 13 173 c 256,65,66
 28 191 28 191 49 222 c 256,67,68
 70 253 70 253 91 292 c 256,69,70
 112 331 112 331 126.5 385.5 c 256,71,72
 141 440 141 440 141 496 c 256,73,74
 141 512 141 512 155 512 c 256,75,76
 157 512 157 512 168 509 c 256,77,78
 179 506 179 506 196.5 502.5 c 256,79,80
 214 499 214 499 230 499 c 256,0,1
EndSplineSet
EndChar

StartChar: five
Encoding: 269 53 13
Width: 345
Flags: W
HStem: 0 24<107.24 202.079> 299 30<99.6155 205.662> 400 112<59 186.874>
VStem: 0 93<53.2512 130> 30 29<285 399.647> 239 118<84.5566 256.428>
LayerCount: 2
Fore
SplineSet
46 512 m 256,0,1
 54 512 54 512 63 509 c 256,2,3
 66 508 66 508 110 504 c 256,4,5
 152 499 152 499 188 499 c 256,6,7
 233 499 233 499 272 504 c 256,8,9
 319 510 319 510 321 510 c 256,10,11
 332 512 332 512 336 512 c 256,12,13
 349 512 349 512 349 503 c 256,14,15
 349 499 349 499 346 496 c 256,16,17
 251 401 251 401 77 400 c 256,18,19
 70 400 70 400 64.5 395 c 256,20,21
 59 390 59 390 59 383 c 258,22,-1
 59 285 l 257,23,24
 103 329 103 329 167 329 c 256,25,26
 258 329 258 329 307.5 288 c 256,27,28
 357 247 357 247 357 164 c 256,29,30
 357 93 357 93 301 46.5 c 256,31,32
 245 0 245 0 167 0 c 256,33,34
 99 0 99 0 49.5 30.5 c 256,35,36
 0 61 0 61 0 116 c 256,37,38
 0 144 0 144 20 163.5 c 256,39,40
 40 183 40 183 67.5 183 c 256,41,42
 95 183 95 183 114.5 163 c 256,43,44
 134 143 134 143 134 116 c 256,45,46
 134 103 134 103 113.5 88.5 c 256,47,48
 93 74 93 74 93 61 c 256,49,50
 93 24 93 24 167 24 c 256,51,52
 239 24 239 24 239 164 c 256,53,54
 239 299 239 299 167 299 c 256,55,56
 134 299 134 299 110 291 c 256,57,58
 86 283 86 283 76.5 273 c 256,59,60
 67 263 67 263 58.5 255 c 256,61,62
 50 247 50 247 45 247 c 256,63,64
 30 247 30 247 30 262 c 258,65,-1
 30 496 l 258,66,67
 30 512 30 512 46 512 c 256,0,1
EndSplineSet
EndChar

StartChar: six
Encoding: 270 54 14
Width: 348
Flags: W
HStem: 0 24<137.684 212.313> 262 24<137.721 212.605> 488 24<153.231 232.421>
VStem: 0 120<126.234 254.024 272 376.172> 237 111<62.4724 224.39> 242 94<393 465.619>
LayerCount: 2
Fore
SplineSet
174 262 m 256,0,1
 136 262 136 262 127 232 c 256,2,3
 120 208 120 208 120 158 c 258,4,-1
 120 128 l 258,5,6
 120 78 120 78 127 54 c 256,7,8
 136 24 136 24 174 24 c 256,9,10
 217 24 217 24 227 59 c 256,11,12
 237 94 237 94 237 143 c 256,13,14
 237 203 237 203 225.5 232.5 c 256,15,16
 214 262 214 262 174 262 c 256,0,1
120 272 m 257,17,18
 153 285 153 285 174 286 c 257,19,20
 255 286 255 286 301.5 250 c 256,21,22
 348 214 348 214 348 143.5 c 256,23,24
 348 73 348 73 301 36.5 c 256,25,26
 254 0 254 0 174 0 c 256,27,28
 92 0 92 0 46 76 c 256,29,30
 0 152 0 152 0 256 c 256,31,32
 0 359 0 359 54 435.5 c 256,33,34
 108 512 108 512 195 512 c 256,35,36
 252 512 252 512 294 483 c 256,37,38
 336 454 336 454 336 407 c 256,39,40
 336 379 336 379 316.5 359 c 256,41,42
 297 339 297 339 269.5 339 c 256,43,44
 242 339 242 339 222 359 c 256,45,46
 202 379 202 379 202 407 c 256,47,48
 202 419 202 419 222 431.5 c 256,49,50
 242 444 242 444 242 457 c 256,51,52
 242 471 242 471 227.5 479.5 c 256,53,54
 213 488 213 488 195 488 c 256,55,56
 149 488 149 488 133.5 451 c 256,57,58
 118 414 118 414 118 346 c 256,59,60
 118 334 118 334 119 309 c 256,61,62
 120 284 120 284 120 272 c 257,17,18
EndSplineSet
EndChar

StartChar: seven
Encoding: 271 55 15
Width: 345
Flags: W
HStem: 361 94<171.5 275.878> 420 92<65.7911 139.099>
VStem: 0 30<256.004 401.433 466.938 511.996>
LayerCount: 2
Fore
SplineSet
69 420 m 256,0,1
 54 420 54 420 42 402 c 256,2,3
 30 384 30 384 30 348 c 258,4,-1
 30 271 l 258,5,6
 30 256 30 256 15 256 c 256,7,8
 0 256 0 256 0 271 c 258,9,-1
 0 497 l 258,10,11
 0 512 0 512 15 512 c 256,12,13
 29 512 29 512 30 497 c 258,14,-1
 30 482 l 258,15,16
 30 478 30 478 33 473.5 c 256,17,18
 36 469 36 469 40 467 c 256,19,20
 44 465 44 465 45 467 c 256,21,22
 78 512 78 512 125 512 c 256,23,24
 164 512 164 512 198 483.5 c 256,25,26
 232 455 232 455 255 455 c 256,27,28
 280 455 280 455 301.5 469 c 256,29,30
 323 483 323 483 335.5 497.5 c 256,31,32
 348 512 348 512 352 512 c 256,33,34
 358 512 358 512 363.5 508 c 256,35,36
 369 504 369 504 369 498 c 256,37,38
 369 494 369 494 343 455 c 256,39,40
 317 416 317 416 286 365 c 256,41,42
 255 314 255 314 229.5 238 c 256,43,44
 204 162 204 162 204 92 c 256,45,46
 204 75 204 75 206 57.5 c 256,47,48
 208 40 208 40 209.5 30 c 256,49,50
 211 20 211 20 211.5 11.5 c 256,51,52
 212 3 212 3 209 0 c 256,53,54
 206 -3 206 -3 199 -3 c 256,55,-1
 170 5 l 256,56,57
 140 13 140 13 120 13 c 256,58,59
 98 13 98 13 70.5 5 c 256,60,61
 43 -3 43 -3 40 -3 c 256,62,63
 33 -3 33 -3 29 2.5 c 256,64,65
 25 8 25 8 28 14 c 256,66,67
 65 102 65 102 117.5 185.5 c 256,68,69
 170 269 170 269 249 378 c 257,70,71
 219 362 219 362 188 361 c 256,72,73
 155 361 155 361 123 390.5 c 256,74,75
 91 420 91 420 69 420 c 256,0,1
EndSplineSet
EndChar

StartChar: eight
Encoding: 272 56 16
Width: 375
Flags: W
HStem: 0 24<124.424 233.042> 488 24<153.012 257.275>
VStem: 0 45<78.1566 202.742> 15 104<368.596 443.655> 275 106<75.3149 162.505> 315 45<331.935 453.071>
DStem2: 150 362 109 248 0.866778 -0.498694<14.6826 137.211 168.44 221.651>
LayerCount: 2
Fore
SplineSet
265 295 m 257,0,1
 315 349 315 349 315 399 c 256,2,3
 315 440 315 440 280 464 c 256,4,5
 245 488 245 488 196 488 c 256,6,7
 161 488 161 488 140 466 c 256,8,9
 119 444 119 444 119 416 c 256,10,11
 119 381 119 381 150 362 c 258,12,-1
 265 295 l 257,0,1
296 278 m 257,13,14
 381 229 381 229 381 147 c 256,15,16
 381 87 381 87 329.5 43.5 c 256,17,18
 278 0 278 0 187 0 c 256,19,20
 111 0 111 0 55.5 40 c 256,21,22
 0 80 0 80 0 143 c 256,23,24
 0 167 0 167 14 191.5 c 256,25,26
 28 216 28 216 39.5 228.5 c 256,27,28
 51 241 51 241 78 266 c 257,29,30
 16 309 16 309 15 375 c 256,31,32
 15 431 15 431 63.5 471.5 c 256,33,34
 112 512 112 512 196 512 c 256,35,36
 263 512 263 512 311.5 482 c 256,37,38
 360 452 360 452 360 399 c 256,39,40
 359 345 359 345 296 278 c 257,13,14
109 248 m 257,41,42
 46 193 46 193 45 143 c 257,43,44
 45 92 45 92 87.5 58 c 256,45,46
 130 24 130 24 187 24 c 256,47,48
 227 24 227 24 251 49.5 c 256,49,50
 275 75 275 75 275 109 c 256,51,52
 275 152 275 152 240 172 c 258,53,-1
 109 248 l 257,41,42
EndSplineSet
EndChar

StartChar: nine
Encoding: 273 57 17
Width: 348
Flags: W
HStem: 0 24<116.049 195.674> 226 24<137.096 210.279> 488 24<133.915 210.316>
VStem: 0 112<287.474 449.262> 12 94<46.5705 119> 228 120<134.907 240 257.976 385.766>
LayerCount: 2
Fore
SplineSet
174 250 m 256,0,1
 212 250 212 250 221 280 c 256,2,3
 228 304 228 304 228 354 c 258,4,-1
 228 384 l 258,5,6
 228 434 228 434 221 458 c 256,7,8
 212 488 212 488 174 488 c 256,9,10
 129 488 129 488 120 453 c 256,11,12
 112 423 112 423 112 369 c 256,13,14
 112 306 112 306 123 280 c 256,15,16
 136 250 136 250 174 250 c 256,0,1
228 240 m 257,17,18
 195 226 195 226 174 226 c 257,19,20
 93 226 93 226 46.5 262 c 256,21,22
 0 298 0 298 0 368.5 c 256,23,24
 0 439 0 439 47 475.5 c 256,25,26
 94 512 94 512 174 512 c 256,27,28
 256 512 256 512 302 436 c 256,29,30
 348 360 348 360 348 256 c 256,31,32
 348 153 348 153 294.5 76.5 c 256,33,34
 241 0 241 0 154 0 c 256,35,36
 97 0 97 0 54.5 29 c 256,37,38
 12 58 12 58 12 105 c 256,39,40
 12 133 12 133 31.5 153 c 256,41,42
 51 173 51 173 78.5 173 c 256,43,44
 106 173 106 173 126 153 c 256,45,46
 146 133 146 133 146 105 c 256,47,48
 146 93 146 93 126 80.5 c 256,49,50
 106 68 106 68 106 55 c 256,51,52
 106 41 106 41 120.5 32.5 c 256,53,54
 135 24 135 24 154 24 c 256,55,56
 200 24 200 24 215 61 c 256,57,58
 230 98 230 98 230 166 c 256,59,60
 230 178 230 178 229 203 c 256,61,62
 228 228 228 228 228 240 c 257,17,18
EndSplineSet
EndChar

StartChar: f
Encoding: 274 102 18
Width: 587
Flags: W
HStem: -295 39<-79.2169 28.6035> 485 40<105.005 234 478 617.995> 851 38<580.851 692.306>
VStem: -186 106<-253.9 -195.038> 693 107<788.663 847.802>
LayerCount: 2
Fore
SplineSet
467 485 m 257,0,-1
 371 172 l 258,1,2
 349 100 349 100 309.5 22 c 256,3,4
 270 -56 270 -56 218.5 -129 c 256,5,6
 167 -202 167 -202 101.5 -248.5 c 256,7,8
 36 -295 36 -295 -27 -295 c 256,9,10
 -93 -295 -93 -295 -139.5 -271 c 256,11,12
 -186 -247 -186 -247 -186 -199 c 256,13,14
 -186 -142 -186 -142 -161 -99.5 c 256,15,16
 -136 -57 -136 -57 -91 -57 c 256,17,18
 -58 -57 -58 -57 -34 -80.5 c 256,19,20
 -10 -104 -10 -104 -10 -137 c 256,21,22
 -10 -155 -10 -155 -21 -168 c 256,23,24
 -32 -181 -32 -181 -45 -187 c 256,25,26
 -58 -193 -58 -193 -69 -205.5 c 256,27,28
 -80 -218 -80 -218 -80 -237 c 256,29,30
 -80 -256 -80 -256 -39 -256 c 258,31,-1
 -27 -256 l 258,32,33
 -3 -256 -3 -256 16 -245 c 256,34,35
 35 -234 35 -234 46 -220.5 c 256,36,37
 57 -207 57 -207 67.5 -180 c 256,38,39
 78 -153 78 -153 82.5 -134 c 256,40,41
 87 -115 87 -115 94.5 -79.5 c 256,42,43
 102 -44 102 -44 106 -29 c 258,44,-1
 234 485 l 257,45,-1
 125 485 l 258,46,47
 105 485 105 485 105 505 c 256,48,49
 105 525 105 525 125 525 c 258,50,-1
 245 525 l 257,51,52
 287 668 287 668 399.5 778.5 c 256,53,54
 512 889 512 889 640 889 c 256,55,56
 706 889 706 889 753 865 c 256,57,58
 800 841 800 841 800 793 c 256,59,60
 800 736 800 736 774.5 693.5 c 256,61,62
 749 651 749 651 703 651 c 256,63,64
 670 651 670 651 647 674.5 c 256,65,66
 624 698 624 698 624 731 c 256,67,68
 624 749 624 749 634.5 762 c 256,69,70
 645 775 645 775 658.5 781 c 256,71,72
 673 787 673 787 682.5 800 c 256,73,74
 693 814 693 814 693 831 c 256,75,76
 693 851 693 851 652 851 c 258,77,-1
 640 851 l 258,78,79
 603 851 603 851 577 831 c 256,80,81
 551 811 551 811 536 772 c 256,82,83
 521 733 521 733 513 697.5 c 256,84,85
 505 662 505 662 495 608 c 256,86,87
 485 554 485 554 478 525 c 257,88,-1
 598 525 l 258,89,90
 618 525 618 525 618 505 c 256,91,92
 618 485 618 485 598 485 c 258,93,-1
 467 485 l 257,0,-1
EndSplineSet
EndChar

StartChar: m
Encoding: 275 109 19
Width: 801
Flags: W
HStem: 0 21G<9.5 131.5 263 385> 426 115<89 179.683 328.5 409.273 559 642.113>
VStem: 519 167<33.8164 131.375>
DStem2: 6 18 146 18 0.322729 0.946491<18.8264 396.929> 259 18 399 18 0.275449 0.961316<13.581 391.929> 521 67 687 121 0.230305 0.973119<81.9724 334.264>
LayerCount: 2
Fore
SplineSet
-50 260 m 256,0,1
 -50 262 -50 262 -40 292 c 256,2,3
 -15 366 -15 366 40 444 c 256,4,5
 109 541 109 541 196 541 c 256,6,7
 229 541 229 541 249.5 512 c 256,8,9
 270 483 270 483 274 441 c 257,10,11
 339 540 339 540 420 541 c 256,12,13
 455 541 455 541 477 511 c 256,14,15
 499 481 499 481 504 438 c 257,16,17
 566 540 566 540 645 541 c 256,18,19
 689 541 689 541 722 503.5 c 256,20,21
 755 466 755 466 755 419 c 256,22,23
 755 406 755 406 752 393 c 258,24,-1
 687 121 l 258,25,26
 686 118 686 118 686 112 c 256,27,28
 686 98 686 98 698 97 c 256,29,30
 718 97 718 97 757.5 128.5 c 256,31,32
 797 160 797 160 800 160 c 256,33,34
 811 160 811 160 811 150 c 256,35,36
 811 144 811 144 805 137 c 256,37,38
 720 55 720 55 685 32 c 256,39,40
 629 -7 629 -7 580 -7 c 256,41,42
 552 -7 552 -7 535.5 9 c 256,43,44
 519 25 519 25 519 49 c 256,45,46
 519 54 519 54 521 67 c 258,47,-1
 592 367 l 258,48,49
 596 385 596 385 596 393 c 256,50,51
 596 426 596 426 574 426 c 256,52,53
 552 426 552 426 529 408.5 c 256,54,55
 506 391 506 391 499 367 c 258,56,-1
 399 18 l 258,57,58
 394 0 394 0 376 0 c 258,59,-1
 272 0 l 258,60,61
 254 0 254 0 259 18 c 258,62,-1
 358 367 l 258,63,64
 363 384 363 384 364 396 c 256,65,66
 364 426 364 426 341 426 c 256,67,68
 318 426 318 426 295.5 408 c 256,69,70
 273 390 273 390 265 367 c 258,71,-1
 146 18 l 258,72,73
 141 0 141 0 122 0 c 258,74,-1
 18 0 l 258,75,76
 1 0 1 0 6 18 c 258,77,-1
 125 367 l 258,78,79
 131 387 131 387 131 395 c 256,80,81
 131 426 131 426 105 426 c 256,82,83
 69 426 69 426 37 376.5 c 256,84,85
 5 327 5 327 -15 266 c 256,86,87
 -21 250 -21 250 -38 250 c 256,88,89
 -50 250 -50 250 -50 260 c 256,0,1
EndSplineSet
EndChar

StartChar: p
Encoding: 276 112 20
Width: 667
Flags: W
HStem: -266 30<-246.754 -81.2432 114.836 223.745> -257 23<-204.399 -80.125> 29 36<212 297> 444 90<67.3439 162 367.528 464.142>
VStem: 472 180<264.791 431.823>
DStem2: -72 -210 109 -202 0.324365 0.945932<57.6165 317.941>
LayerCount: 2
Fore
SplineSet
427 444 m 256,0,1
 377 444 377 444 332.5 386 c 256,2,3
 288 328 288 328 265 257 c 256,4,5
 242 186 242 186 242 136 c 256,6,7
 242 65 242 65 297 65 c 256,8,9
 346 65 346 65 379 100 c 257,10,11
 415 140 415 140 443.5 240.5 c 256,12,13
 472 341 472 341 472 383 c 256,14,15
 472 444 472 444 427 444 c 256,0,1
137 534 m 256,16,17
 187 534 187 534 222.5 508 c 256,18,19
 258 482 258 482 268 438 c 257,20,21
 308 482 308 482 359 508 c 256,22,23
 410 534 410 534 458 534 c 256,24,25
 550 534 550 534 601 475.5 c 256,26,27
 652 417 652 417 652 325 c 256,28,29
 652 171 652 171 544 76 c 256,30,31
 449 -8 449 -8 366 -8 c 256,32,33
 323 -8 323 -8 290 1 c 256,34,35
 257 10 257 10 238.5 19.5 c 256,36,37
 220 29 220 29 212 29 c 256,38,39
 187 29 187 29 181 10 c 258,40,-1
 109 -202 l 258,41,42
 108 -205 108 -205 108 -211 c 256,43,44
 108 -228 108 -228 137 -232 c 256,45,46
 166 -236 166 -236 195 -238 c 256,47,48
 224 -240 224 -240 224 -253 c 256,49,50
 224 -266 224 -266 211 -266 c 256,51,52
 56 -257 56 -257 -11 -257 c 256,53,54
 -81 -257 -81 -257 -232 -266 c 256,55,56
 -247 -266 -247 -266 -247 -253 c 256,57,58
 -247 -241 -247 -241 -219 -236 c 256,59,60
 -203 -234 -203 -234 -120 -234 c 256,61,62
 -80 -234 -80 -234 -72 -210 c 258,63,-1
 131 382 l 274,64,65
 136 397 136 397 136 410 c 256,66,67
 136 444 136 444 106 444 c 256,68,69
 63 444 63 444 15 387 c 256,70,71
 -34 329 -34 329 -60 266 c 256,72,73
 -67 249 -67 249 -86 249 c 256,74,75
 -100 249 -100 249 -100 261 c 272,76,77
 -100 273 -100 273 -90 290 c 256,78,79
 -46 387 -46 387 -10 438 c 256,80,81
 16 475 16 475 56 504.5 c 256,82,83
 96 534 96 534 137 534 c 256,16,17
EndSplineSet
EndChar

StartChar: r
Encoding: 277 114 21
Width: 400
Flags: W
HStem: 0 21G<9 129.5> 470 79<311.087 436.5> 487 61<53.3594 155.5>
VStem: -31 29<395.067 434.919>
DStem2: 5 18 143 18 0.25088 0.968018<10.4665 446.135>
LayerCount: 2
Fore
SplineSet
443 387 m 256,0,1
 416 387 416 387 402 400 c 256,2,3
 388 413 388 413 385.5 428.5 c 256,4,5
 383 444 383 444 374 457 c 256,6,7
 365 470 365 470 346 470 c 256,8,9
 315 470 315 470 280.5 443.5 c 256,10,11
 246 417 246 417 239 386 c 257,12,-1
 143 18 l 258,13,14
 138 0 138 0 121 0 c 258,15,-1
 18 0 l 258,16,17
 0 0 0 0 5 18 c 258,18,-1
 111 427 l 258,19,20
 114 439 114 439 114 451 c 256,21,22
 114 487 114 487 86 487 c 256,23,24
 62 487 62 487 34 460 c 256,25,26
 9 437 9 437 -2 406 c 280,27,28
 -6 395 -6 395 -18 395 c 257,29,30
 -30 395 -30 395 -31 407 c 257,31,32
 -31 444 -31 444 24 502 c 256,33,34
 68 548 68 548 137 548 c 256,35,36
 174 548 174 548 201.5 530.5 c 256,37,38
 229 513 229 513 243 483 c 257,39,40
 321 549 321 549 412 549 c 256,41,42
 461 549 461 549 491 528.5 c 256,43,44
 521 508 521 508 521 474 c 256,45,46
 521 442 521 442 497 414.5 c 256,47,48
 473 387 473 387 443 387 c 256,0,1
EndSplineSet
EndChar

StartChar: s
Encoding: 278 115 22
Width: 377
Flags: W
HStem: 0 28<129.978 241.621> 510 24<275.077 342.491>
VStem: 35 76<47.2784 121.5> 115 109<334 437.599> 295 111<94.7729 183.927> 353 92<396.794 487.696>
LayerCount: 2
Fore
SplineSet
224 403 m 256,0,1
 224 377 224 377 252.5 352 c 256,2,3
 281 327 281 327 315 307 c 256,4,5
 349 287 349 287 377.5 252 c 256,6,7
 406 217 406 217 406 175 c 256,8,9
 406 98 406 98 341 49 c 256,10,11
 276 0 276 0 188 0 c 256,12,13
 126 0 126 0 80.5 28.5 c 256,14,15
 35 57 35 57 35 106 c 256,16,17
 35 137 35 137 50.5 159.5 c 256,18,19
 66 182 66 182 91 182 c 256,20,21
 116 182 116 182 133 164.5 c 256,22,23
 150 147 150 147 150 123 c 256,24,25
 150 111 150 111 130.5 97 c 256,26,27
 111 83 111 83 111 71 c 256,28,29
 111 48 111 48 132.5 38 c 256,30,31
 154 28 154 28 184 28 c 256,32,33
 229 28 229 28 262 55 c 256,34,35
 295 82 295 82 295 123 c 256,36,37
 295 160 295 160 267 190.5 c 256,38,39
 239 221 239 221 205 240 c 256,40,41
 171 259 171 259 143 288 c 256,42,43
 115 317 115 317 115 351 c 256,44,45
 115 428 115 428 172.5 481 c 256,46,47
 230 534 230 534 310 534 c 256,48,49
 378 534 378 534 411.5 500.5 c 256,50,51
 445 467 445 467 445 423 c 256,52,53
 445 392 445 392 429.5 371 c 256,54,55
 414 350 414 350 386 350 c 256,56,57
 362 350 362 350 345 362 c 256,58,59
 328 374 328 374 328 389 c 256,60,61
 328 393 328 393 340.5 416.5 c 256,62,63
 353 440 353 440 353 465 c 256,64,65
 353 484 353 484 344 497 c 256,66,67
 335 510 335 510 318 510 c 256,68,69
 278 510 278 510 251 478 c 256,70,71
 224 446 224 446 224 403 c 256,0,1
EndSplineSet
EndChar

StartChar: z
Encoding: 279 122 23
Width: 523
Flags: W
HStem: -29 137<258.661 471.715> 18 110<55.5 245.575> 329 158<106.363 198.211>
VStem: 495 27<125.986 216.425>
DStem2: 5 26 134 108 0.731118 0.682251<150.259 532.062>
LayerCount: 2
Fore
SplineSet
65 18 m 256,0,1
 46 18 46 18 31 9 c 256,2,3
 16 0 16 0 14 0 c 256,4,5
 0 -1 0 -1 0 13 c 256,6,7
 0 21 0 21 5 26 c 258,8,-1
 394 389 l 257,9,10
 360 378 360 378 321.5 371 c 256,11,12
 283 364 283 364 232.5 356.5 c 256,13,14
 182 349 182 349 157 345 c 256,15,16
 72 329 72 329 63 329 c 256,17,18
 29 329 29 329 29 359 c 257,19,20
 29 405 29 405 79.5 446 c 256,21,22
 130 487 130 487 181 487 c 256,23,24
 251 487 251 487 324 471 c 256,25,26
 397 455 397 455 436 455 c 256,27,28
 459 455 459 455 474 465 c 256,29,30
 489 475 489 475 492 475 c 256,31,32
 506 475 506 475 506 460 c 256,33,34
 506 454 506 454 502 450 c 258,35,-1
 134 108 l 257,36,37
 177 128 177 128 195 128 c 256,38,39
 244 128 244 128 310 118 c 256,40,41
 376 108 376 108 425 108 c 256,42,43
 495 108 495 108 495 163 c 256,44,45
 495 177 495 177 490 194 c 256,46,47
 485 211 485 211 485 212 c 256,48,49
 485 225 485 225 500 225 c 256,50,51
 522 225 522 225 522 139 c 256,52,53
 522 72 522 72 493 20 c 256,54,55
 465 -29 465 -29 411 -29 c 256,56,57
 383 -29 383 -29 272 -9 c 256,58,59
 122 18 122 18 65 18 c 256,0,1
EndSplineSet
EndChar

StartChar: rests.0
Encoding: 280 57600 24
Width: 384
Flags: W
HStem: -160 160<0 384>
LayerCount: 2
Fore
SplineSet
374 -160 m 258,0,-1
 10 -160 l 258,1,2
 0 -160 0 -160 0 -150 c 258,3,-1
 0 -10 l 258,4,5
 0 0 0 0 10 0 c 258,6,-1
 374 0 l 258,7,8
 384 0 384 0 384 -10 c 258,9,-1
 384 -150 l 258,10,11
 384 -160 384 -160 374 -160 c 258,0,-1
EndSplineSet
EndChar

StartChar: rests.1
Encoding: 281 57601 25
Width: 384
Flags: W
HStem: 0 160<0 384>
LayerCount: 2
Fore
SplineSet
374 0 m 258,0,-1
 10 0 l 258,1,2
 0 0 0 0 0 10 c 258,3,-1
 0 150 l 258,4,5
 0 160 0 160 10 160 c 258,6,-1
 374 160 l 258,7,8
 384 160 384 160 384 150 c 258,9,-1
 384 10 l 258,10,11
 384 0 384 0 374 0 c 258,0,-1
EndSplineSet
EndChar

StartChar: rests.0o
Encoding: 282 57602 26
Width: 384
Flags: W
HStem: -160 186<1e-07 383.998> -26 52<-159.736 0 384 543.719>
LayerCount: 2
Fore
SplineSet
374 -160 m 258,0,-1
 10 -160 l 258,1,2
 0 -160 0 -160 0 -150 c 258,3,-1
 0 -26 l 257,4,-1
 -134 -26 l 258,5,6
 -145 -26 -145 -26 -152.5 -18 c 256,7,8
 -160 -10 -160 -10 -160 0 c 256,9,10
 -160 10 -160 10 -152.5 18 c 256,11,12
 -145 26 -145 26 -134 26 c 258,13,-1
 518 26 l 258,14,15
 528 26 528 26 536 18 c 256,16,17
 544 10 544 10 544 0 c 256,18,19
 544 -10 544 -10 536 -18 c 256,20,21
 528 -26 528 -26 518 -26 c 258,22,-1
 384 -26 l 257,23,-1
 384 -150 l 258,24,25
 384 -160 384 -160 374 -160 c 258,0,-1
EndSplineSet
EndChar

StartChar: rests.1o
Encoding: 283 57603 27
Width: 384
Flags: W
HStem: -26 186<1e-07 383.998> -26 52<-159.736 0 384 543.719>
LayerCount: 2
Fore
SplineSet
518 -26 m 258,0,-1
 -134 -26 l 258,1,2
 -145 -26 -145 -26 -152.5 -18 c 256,3,4
 -160 -10 -160 -10 -160 0 c 256,5,6
 -160 10 -160 10 -152.5 18 c 256,7,8
 -145 26 -145 26 -134 26 c 258,9,-1
 0 26 l 257,10,-1
 0 150 l 258,11,12
 0 160 0 160 10 160 c 258,13,-1
 374 160 l 258,14,15
 384 160 384 160 384 150 c 258,16,-1
 384 26 l 257,17,-1
 518 26 l 258,18,19
 528 26 528 26 536 18 c 256,20,21
 544 10 544 10 544 0 c 256,22,23
 544 -10 544 -10 536 -18 c 256,24,25
 528 -26 528 -26 518 -26 c 258,0,-1
EndSplineSet
EndChar

StartChar: rests.M3
Encoding: 284 57604 28
Width: 460
Flags: W
VStem: 0 154<-256 256> 307 154<-256 256>
LayerCount: 2
Fore
SplineSet
451 -256 m 258,0,-1
 317 -256 l 258,1,2
 307 -256 307 -256 307 -246 c 258,3,-1
 307 246 l 258,4,5
 307 256 307 256 317 256 c 258,6,-1
 451 256 l 258,7,8
 461 256 461 256 461 246 c 258,9,-1
 461 -246 l 258,10,11
 461 -256 461 -256 451 -256 c 258,0,-1
143 -256 m 258,12,-1
 10 -256 l 258,13,14
 0 -256 0 -256 0 -246 c 258,15,-1
 0 246 l 258,16,17
 0 256 0 256 10 256 c 258,18,-1
 143 256 l 258,19,20
 154 256 154 256 154 246 c 258,21,-1
 154 -246 l 258,22,23
 154 -256 154 -256 143 -256 c 258,12,-1
EndSplineSet
EndChar

StartChar: rests.M2
Encoding: 285 57605 29
Width: 152
Flags: W
VStem: 0 154<-256 256>
LayerCount: 2
Fore
SplineSet
143 -256 m 258,0,-1
 10 -256 l 258,1,2
 0 -256 0 -256 0 -246 c 258,3,-1
 0 246 l 258,4,5
 0 256 0 256 10 256 c 258,6,-1
 143 256 l 258,7,8
 154 256 154 256 154 246 c 258,9,-1
 154 -246 l 258,10,11
 154 -256 154 -256 143 -256 c 258,0,-1
EndSplineSet
EndChar

StartChar: rests.M1
Encoding: 286 57606 30
Width: 152
Flags: W
HStem: 0 256<0 154>
VStem: 0 154<0 256>
LayerCount: 2
Fore
SplineSet
143 0 m 258,0,-1
 10 0 l 258,1,2
 0 0 0 0 0 10 c 258,3,-1
 0 246 l 258,4,5
 0 256 0 256 10 256 c 258,6,-1
 143 256 l 258,7,8
 154 256 154 256 154 246 c 258,9,-1
 154 10 l 258,10,11
 154 0 154 0 143 0 c 258,0,-1
EndSplineSet
EndChar

StartChar: rests.2
Encoding: 287 57607 31
Width: 242
Flags: W
HStem: -150 74<-3.5 143.646>
VStem: -24 78<-249 -97.5> -6 128<-17 89.5> 121 128<180.5 286.5>
DStem2: 84 400 59 380 0.644264 -0.764803<-10.892 112.204> 146 -67 139 -108 0.640184 -0.768221<-53.4394 27.0158>
LayerCount: 2
Fore
SplineSet
-6 80 m 256,0,1
 -6 99 -6 99 14 120 c 256,2,3
 34 141 34 141 57.5 157.5 c 256,4,5
 81 174 81 174 101 203 c 256,6,7
 121 232 121 232 121 266 c 256,8,9
 121 307 121 307 95 337 c 258,10,-1
 59 380 l 258,11,12
 55 384 55 384 55 390 c 256,13,14
 55 396 55 396 61 401 c 256,15,16
 67 406 67 406 73 406 c 256,17,18
 80 406 80 406 84 400 c 258,19,-1
 239 216 l 258,20,21
 249 203 249 203 249 190 c 256,22,23
 249 171 249 171 229 150 c 256,24,25
 209 129 209 129 185.5 112.5 c 256,26,27
 162 96 162 96 142 67 c 256,28,29
 122 38 122 38 122 4 c 256,30,31
 122 -38 122 -38 146 -67 c 258,32,-1
 232 -168 l 258,33,34
 236 -172 236 -172 237 -178 c 257,35,36
 237 -185 237 -185 231.5 -190 c 256,37,38
 226 -195 226 -195 220 -195 c 256,39,40
 218 -195 218 -195 203.5 -183.5 c 256,41,42
 189 -172 189 -172 163.5 -161 c 256,43,44
 138 -150 138 -150 109 -150 c 256,45,46
 83 -150 83 -150 68.5 -164 c 256,47,48
 54 -178 54 -178 54 -218 c 256,49,50
 54 -280 54 -280 83 -314 c 256,51,52
 86 -319 86 -319 84 -323.5 c 256,53,54
 82 -328 82 -328 77 -328 c 256,55,56
 70 -328 70 -328 46 -292 c 256,57,58
 22 -256 22 -256 -1 -205 c 256,59,60
 -24 -154 -24 -154 -24 -119 c 256,61,62
 -24 -76 -24 -76 17 -76 c 256,63,64
 66 -76 66 -76 139 -108 c 257,65,-1
 4 54 l 257,66,67
 -6 68 -6 68 -6 80 c 256,0,1
EndSplineSet
EndChar

StartChar: rests.2classical
Encoding: 288 57608 32
Width: 256
Flags: W
HStem: -266 21G<146 162.5> 55 55<77.1641 188>
VStem: 0 29<152.853 181.521> 123.5 135.5<112.394 187.826> 126 56<-265.648 -236.049>
LayerCount: 2
Fore
SplineSet
184 210 m 256,0,1
 215 210 215 210 237 188.5 c 256,2,3
 259 167 259 167 259 136 c 256,4,5
 259 101 259 101 232.5 78 c 256,6,7
 206 55 206 55 170 55 c 256,8,9
 126 55 126 55 62 78 c 257,10,-1
 182 -256 l 257,11,12
 171 -266 171 -266 154 -266 c 256,13,14
 138 -266 138 -266 126 -256 c 257,15,-1
 0 174 l 257,16,17
 4 183 4 183 14 183.5 c 256,18,19
 24 184 24 184 29 174 c 256,20,21
 36 160 36 160 58 135 c 256,22,23
 80 110 80 110 91 110 c 256,24,25
 106 110 106 110 113.5 125.5 c 256,26,27
 121 141 121 141 123.5 159.5 c 256,28,29
 126 178 126 178 140.5 194 c 256,30,31
 155 210 155 210 184 210 c 256,0,1
EndSplineSet
EndChar

StartChar: rests.3
Encoding: 289 57609 33
Width: 256
Flags: W
HStem: -266 21G<93.5 110.5> 55 55<68 178.836>
VStem: -3 135.5<112.394 187.826> 74 56<-265.705 -236.049> 227 29<152.853 181.521>
LayerCount: 2
Fore
SplineSet
72 210 m 256,0,1
 101 210 101 210 115.5 194 c 256,2,3
 130 178 130 178 132.5 159.5 c 256,4,5
 135 141 135 141 142.5 125.5 c 256,6,7
 150 110 150 110 165 110 c 256,8,9
 176 110 176 110 198 135 c 256,10,11
 220 160 220 160 227 174 c 256,12,13
 232 184 232 184 242 183.5 c 256,14,15
 252 183 252 183 256 174 c 257,16,-1
 130 -256 l 257,17,18
 119 -266 119 -266 102 -266 c 256,19,20
 85 -266 85 -266 74 -256 c 257,21,-1
 194 78 l 257,22,23
 131 55 131 55 86 55 c 256,24,25
 50 55 50 55 23.5 78 c 256,26,27
 -3 101 -3 101 -3 136 c 256,28,29
 -3 167 -3 167 19 188.5 c 256,30,31
 41 210 41 210 72 210 c 256,0,1
EndSplineSet
EndChar

StartChar: rests.4
Encoding: 290 57610 34
Width: 307
Flags: W
HStem: -201 55<44 153.396> 55 55<124 233.68>
VStem: -27 135<-143.606 -68.1742> 53 134.5<112.394 187.826> 68 56<-512 -456>
DStem2: 68 -512 124 -512 0.25775 0.966212<-1.85975 350.229> 249 78 307 174 0.25775 0.966212<-191.283 0 54.9834 112.675>
LayerCount: 2
Fore
SplineSet
128 210 m 256,0,1
 157 210 157 210 171 194 c 256,2,3
 185 178 185 178 187.5 159.5 c 256,4,5
 190 141 190 141 197.5 125.5 c 256,6,7
 205 110 205 110 220 110 c 256,8,9
 230 110 230 110 250.5 134.5 c 256,10,11
 271 159 271 159 279 174 c 256,12,13
 284 184 284 184 293.5 183.5 c 256,14,15
 303 183 303 183 307 174 c 257,16,-1
 124 -512 l 257,17,18
 113 -522 113 -522 96 -522 c 256,19,20
 79 -522 79 -522 68 -512 c 257,21,-1
 171 -177 l 257,22,23
 104 -201 104 -201 62 -201 c 256,24,25
 26 -201 26 -201 -0.5 -178 c 256,26,27
 -27 -155 -27 -155 -27 -120 c 256,28,29
 -27 -89 -27 -89 -5.5 -67.5 c 256,30,31
 16 -46 16 -46 47 -46 c 256,32,33
 76 -46 76 -46 90.5 -62 c 256,34,35
 105 -78 105 -78 108 -96.5 c 256,36,37
 111 -115 111 -115 118 -130.5 c 256,38,39
 125 -146 125 -146 140 -146 c 256,40,41
 151 -146 151 -146 174.5 -118.5 c 256,42,43
 198 -91 198 -91 202 -77 c 258,44,-1
 249 78 l 257,45,46
 186 55 186 55 142 55 c 256,47,48
 106 55 106 55 79.5 78 c 256,49,50
 53 101 53 101 53 136 c 256,51,52
 53 167 53 167 75 188.5 c 256,53,54
 97 210 97 210 128 210 c 256,0,1
EndSplineSet
EndChar

StartChar: rests.5
Encoding: 291 57611 35
Width: 332
Flags: W
HStem: -201 55<15 125.005> 55 55<84 193.33> 311 55<155 264.11>
VStem: -56 134.5<-143.606 -68.1742> 13 135<112.394 187.826> 55 57<-512 -455> 84 134.5<368.394 443.826>
DStem2: 55 -512 112 -512 0.228406 0.973566<-2.34362 346.244 373.033 577.529> 211 79 333 430 0.228406 0.973566<-116.326 0 53.4497 263.791 300.355 370.743>
CounterMasks: 1 e0
LayerCount: 2
Fore
SplineSet
158 466 m 256,0,1
 187 466 187 466 201.5 450 c 256,2,3
 216 434 216 434 218.5 415.5 c 256,4,5
 221 397 221 397 228.5 381.5 c 256,6,7
 236 366 236 366 251 366 c 256,8,9
 261 366 261 366 279.5 390.5 c 256,10,11
 298 415 298 415 304 430 c 256,12,13
 309 440 309 440 319 439.5 c 256,14,15
 329 439 329 439 333 430 c 257,16,-1
 112 -512 l 257,17,18
 101 -522 101 -522 83 -522 c 256,19,20
 67 -522 67 -522 55 -512 c 257,21,-1
 143 -177 l 257,22,23
 80 -201 80 -201 33 -201 c 256,24,25
 -3 -201 -3 -201 -29.5 -178 c 256,26,27
 -56 -155 -56 -155 -56 -120 c 256,28,29
 -56 -89 -56 -89 -34.5 -67.5 c 256,30,31
 -13 -46 -13 -46 17 -46 c 256,32,33
 46 -46 46 -46 61 -62 c 256,34,35
 76 -78 76 -78 78.5 -96.5 c 256,36,37
 81 -115 81 -115 88 -130.5 c 256,38,39
 95 -146 95 -146 111 -146 c 256,40,41
 123 -146 123 -146 145 -117.5 c 256,42,43
 167 -89 167 -89 171 -74 c 258,44,-1
 211 79 l 257,45,46
 144 55 144 55 102 55 c 256,47,48
 66 55 66 55 39.5 78 c 256,49,50
 13 101 13 101 13 136 c 256,51,52
 13 167 13 167 35 188.5 c 256,53,54
 57 210 57 210 88 210 c 256,55,56
 117 210 117 210 131 194 c 256,57,58
 145 178 145 178 148 159.5 c 256,59,60
 151 141 151 141 158 125.5 c 256,61,62
 165 110 165 110 180 110 c 256,63,64
 191 110 191 110 212.5 137.5 c 256,65,66
 234 165 234 165 238 179 c 258,67,-1
 279 334 l 257,68,69
 218 311 218 311 173 311 c 256,70,71
 137 311 137 311 110.5 334 c 256,72,73
 84 357 84 357 84 392 c 256,74,75
 84 423 84 423 105.5 444.5 c 256,76,77
 127 466 127 466 158 466 c 256,0,1
EndSplineSet
EndChar

StartChar: rests.6
Encoding: 292 57612 36
Width: 358
Flags: W
HStem: -457 55<2 112.559> -201 55<64 186.543> 55 55<124 232.674> 311 55<186 294.003>
VStem: -69 135<-399.606 -324.174> -7 134.5<-143.606 -68.1742> 53 134.5<112.394 187.826> 61 57<-768 -711> 115 134.5<368.394 443.826>
DStem2: 61 -768 118 -768 0.196431 0.980518<-3.28945 344.186 376.291 594.737> 194 -177 358 430 0.196431 0.980518<-446.733 -261.425 -202.532 0 44.5582 262.209>
LayerCount: 2
Fore
SplineSet
188 466 m 256,0,1
 217 466 217 466 232 450 c 256,2,3
 247 434 247 434 249.5 415.5 c 256,4,5
 252 397 252 397 259 381.5 c 256,6,7
 266 366 266 366 282 366 c 256,8,9
 291 366 291 366 307 390 c 256,10,11
 323 414 323 414 330 430 c 256,12,13
 335 440 335 440 344.5 439.5 c 256,14,15
 354 439 354 439 358 430 c 257,16,-1
 118 -768 l 257,17,18
 107 -778 107 -778 89 -778 c 256,19,20
 73 -778 73 -778 61 -768 c 257,21,-1
 136 -432 l 257,22,23
 68 -457 68 -457 20 -457 c 256,24,25
 -16 -457 -16 -457 -42.5 -434 c 256,26,27
 -69 -411 -69 -411 -69 -376 c 256,28,29
 -69 -345 -69 -345 -47 -323.5 c 256,30,31
 -25 -302 -25 -302 6 -302 c 256,32,33
 35 -302 35 -302 49 -318 c 256,34,35
 63 -334 63 -334 66 -352.5 c 256,36,37
 69 -371 69 -371 76 -386.5 c 256,38,39
 83 -402 83 -402 98 -402 c 256,40,41
 110 -402 110 -402 133.5 -372.5 c 256,42,43
 157 -343 157 -343 160 -328 c 258,44,-1
 194 -177 l 257,45,46
 131 -201 131 -201 82 -201 c 256,47,48
 46 -201 46 -201 19.5 -178 c 256,49,50
 -7 -155 -7 -155 -7 -120 c 256,51,52
 -7 -89 -7 -89 14.5 -67.5 c 256,53,54
 36 -46 36 -46 67 -46 c 256,55,56
 96 -46 96 -46 110.5 -62 c 256,57,58
 125 -78 125 -78 127.5 -96.5 c 256,59,60
 130 -115 130 -115 137 -130.5 c 256,61,62
 144 -146 144 -146 160 -146 c 256,63,64
 171 -146 171 -146 192 -117.5 c 256,65,66
 213 -89 213 -89 216 -74 c 258,67,-1
 251 79 l 257,68,69
 184 55 184 55 142 55 c 256,70,71
 106 55 106 55 79.5 78 c 256,72,73
 53 101 53 101 53 136 c 256,74,75
 53 167 53 167 75 188.5 c 256,76,77
 97 210 97 210 128 210 c 256,78,79
 157 210 157 210 171 194 c 256,80,81
 185 178 185 178 187.5 159.5 c 256,82,83
 190 141 190 141 197.5 125.5 c 256,84,85
 205 110 205 110 220 110 c 256,86,87
 230 110 230 110 249.5 137.5 c 256,88,89
 269 165 269 165 273 179 c 258,90,-1
 308 334 l 257,91,92
 246 311 246 311 204 311 c 256,93,94
 168 311 168 311 141.5 334 c 256,95,96
 115 357 115 357 115 392 c 256,97,98
 115 423 115 423 136 444.5 c 256,99,100
 157 466 157 466 188 466 c 256,0,1
EndSplineSet
EndChar

StartChar: rests.7
Encoding: 293 57613 37
Width: 384
Flags: W
HStem: -457 55<10 134.579> -201 55<61 170.636> 55 55<113 221.688> 311 55<164 271.881> 567 55<216 322.357>
VStem: -61 134.5<-399.606 -324.174> -10 134.5<-143.606 -68.1742> 42 134.5<112.394 187.826> 85 56<-768 -712> 93 134.5<368.394 443.826> 145 135.5<624.394 699.826>
DStem2: 85 -768 141 -768 0.164839 0.98632<-4.52856 342.61 379.396 602.034 630.731 841.923> 242 79 384 686 0.164839 0.98632<-202.407 0 44.4098 259.424 293.818 519.669>
LayerCount: 2
Fore
SplineSet
219 722 m 256,0,1
 248 722 248 722 263 706 c 256,2,3
 278 690 278 690 280.5 671.5 c 256,4,5
 283 653 283 653 290 637.5 c 256,6,7
 297 622 297 622 312 622 c 256,8,9
 325 622 325 622 355 686 c 256,10,11
 360 696 360 696 370 695.5 c 256,12,13
 380 695 380 695 384 686 c 257,14,-1
 141 -768 l 257,15,16
 130 -778 130 -778 113 -778 c 256,17,18
 97 -778 97 -778 85 -768 c 257,19,-1
 147 -431 l 257,20,21
 77 -457 77 -457 28 -457 c 256,22,23
 -8 -457 -8 -457 -34.5 -434 c 256,24,25
 -61 -411 -61 -411 -61 -376 c 256,26,27
 -61 -345 -61 -345 -39.5 -323.5 c 256,28,29
 -18 -302 -18 -302 12 -302 c 256,30,31
 41 -302 41 -302 56 -318 c 256,32,33
 71 -334 71 -334 73.5 -352.5 c 256,34,35
 76 -371 76 -371 83 -386.5 c 256,36,37
 90 -402 90 -402 105 -402 c 256,38,39
 118 -402 118 -402 141.5 -371.5 c 256,40,41
 165 -341 165 -341 167 -325 c 258,42,-1
 195 -176 l 257,43,44
 125 -201 125 -201 79 -201 c 256,45,46
 43 -201 43 -201 16.5 -178 c 256,47,48
 -10 -155 -10 -155 -10 -120 c 256,49,50
 -10 -89 -10 -89 11.5 -67.5 c 256,51,52
 33 -46 33 -46 63 -46 c 256,53,54
 92 -46 92 -46 107 -62 c 256,55,56
 122 -78 122 -78 124.5 -96.5 c 256,57,58
 127 -115 127 -115 134 -130.5 c 256,59,60
 141 -146 141 -146 157 -146 c 256,61,62
 169 -146 169 -146 190 -116.5 c 256,63,64
 211 -87 211 -87 214 -72 c 258,65,-1
 242 79 l 257,66,67
 179 55 179 55 131 55 c 256,68,69
 95 55 95 55 68.5 78 c 256,70,71
 42 101 42 101 42 136 c 256,72,73
 42 167 42 167 63.5 188.5 c 256,74,75
 85 210 85 210 116 210 c 256,76,77
 145 210 145 210 159.5 194 c 256,78,79
 174 178 174 178 176.5 159.5 c 256,80,81
 179 141 179 141 186.5 125.5 c 256,82,83
 194 110 194 110 209 110 c 256,84,85
 220 110 220 110 239 138.5 c 256,86,87
 258 167 258 167 261 182 c 258,88,-1
 290 334 l 257,89,90
 227 311 227 311 182 311 c 256,91,92
 146 311 146 311 119.5 334 c 256,93,94
 93 357 93 357 93 392 c 256,95,96
 93 423 93 423 114.5 444.5 c 256,97,98
 136 466 136 466 167 466 c 256,99,100
 196 466 196 466 210.5 450 c 256,101,102
 225 434 225 434 227.5 415.5 c 256,103,104
 230 397 230 397 237.5 381.5 c 256,105,106
 245 366 245 366 260 366 c 256,107,108
 270 366 270 366 287.5 393.5 c 256,109,110
 305 421 305 421 308 435 c 258,111,-1
 337 590 l 257,112,113
 277 567 277 567 234 567 c 256,114,115
 198 567 198 567 171.5 590 c 256,116,117
 145 613 145 613 145 648 c 256,118,119
 145 679 145 679 166.5 700.5 c 256,120,121
 188 722 188 722 219 722 c 256,0,1
EndSplineSet
EndChar

StartChar: accidentals.sharp
Encoding: 294 57614 38
Width: 281
Flags: W
VStem: 0 98<-215.839 -203 52.0645 67> 60 38<-383.995 -216 -97 52 171 337.995> 183 38<-337.995 -171 -52 97 216 383.995>
LayerCount: 2
Fore
SplineSet
221 -319 m 258,0,1
 221 -338 221 -338 202 -338 c 256,2,3
 183 -338 183 -338 183 -319 c 258,4,-1
 183 -171 l 257,5,-1
 98 -203 l 257,6,-1
 98 -365 l 258,7,8
 98 -384 98 -384 79 -384 c 256,9,10
 60 -384 60 -384 60 -365 c 258,11,-1
 60 -216 l 257,12,-1
 28 -228 l 258,13,14
 26 -229 26 -229 20 -229 c 256,15,16
 12 -229 12 -229 6 -223 c 256,17,18
 0 -217 0 -217 0 -209 c 258,19,-1
 0 -147 l 258,20,21
 0 -133 0 -133 13 -128 c 258,22,-1
 60 -112 l 257,23,-1
 60 52 l 257,24,-1
 28 41 l 258,25,26
 26 40 26 40 20 40 c 256,27,28
 12 40 12 40 6 46 c 256,29,30
 0 52 0 52 0 60 c 258,31,-1
 0 122 l 258,32,33
 0 135 0 135 13 140 c 258,34,-1
 60 158 l 257,35,-1
 60 319 l 258,36,37
 60 338 60 338 79 338 c 256,38,39
 98 338 98 338 98 319 c 258,40,-1
 98 171 l 257,41,-1
 183 203 l 257,42,-1
 183 365 l 257,43,44
 183 384 183 384 202 384 c 256,45,46
 221 384 221 384 221 365 c 258,47,-1
 221 216 l 257,48,-1
 254 228 l 258,49,50
 256 229 256 229 261 229 c 256,51,52
 269 229 269 229 275.5 223 c 256,53,54
 282 217 282 217 282 209 c 258,55,-1
 282 147 l 258,56,57
 282 133 282 133 268 128 c 258,58,-1
 221 112 l 257,59,-1
 221 -52 l 257,60,-1
 254 -41 l 258,61,62
 256 -40 256 -40 261 -40 c 256,63,64
 269 -40 269 -40 275.5 -46 c 256,65,66
 282 -52 282 -52 282 -60 c 258,67,-1
 282 -122 l 258,68,69
 282 -135 282 -135 268 -140 c 258,70,-1
 221 -158 l 257,71,-1
 221 -319 l 258,0,1
183 97 m 257,72,-1
 98 67 l 257,73,-1
 98 -97 l 257,74,-1
 183 -67 l 257,75,-1
 183 97 l 257,72,-1
EndSplineSet
EndChar

StartChar: accidentals.sharp.slashslash.stem
Encoding: 295 57615 39
Width: 178
Flags: W
VStem: 71 38<-344.995 -200 -69 69 200 344.995>
LayerCount: 2
Fore
SplineSet
109 -326 m 258,0,1
 109 -345 109 -345 90 -345 c 256,2,3
 71 -345 71 -345 71 -326 c 258,4,-1
 71 -200 l 257,5,-1
 31 -222 l 258,6,7
 27 -225 27 -225 20 -225 c 256,8,9
 12 -225 12 -225 6 -219.5 c 256,10,11
 0 -214 0 -214 0 -205 c 258,12,-1
 0 -143 l 258,13,14
 0 -132 0 -132 10 -125 c 257,15,-1
 71 -91 l 257,16,-1
 71 69 l 257,17,-1
 31 46 l 258,18,19
 28 44 28 44 20 44 c 256,20,21
 12 44 12 44 6 49.5 c 256,22,23
 0 55 0 55 0 65 c 258,24,-1
 0 126 l 258,25,26
 0 136 0 136 10 143 c 257,27,-1
 71 178 l 257,28,-1
 71 326 l 258,29,30
 71 345 71 345 90 345 c 256,31,32
 109 345 109 345 109 326 c 258,33,-1
 109 200 l 257,34,-1
 148 222 l 258,35,36
 153 225 153 225 159 225 c 256,37,38
 167 225 167 225 173 219.5 c 256,39,40
 179 214 179 214 179 205 c 258,41,-1
 179 143 l 258,42,43
 179 132 179 132 169 125 c 257,44,-1
 109 91 l 257,45,-1
 109 -69 l 257,46,-1
 148 -46 l 258,47,48
 151 -44 151 -44 159 -44 c 256,49,50
 167 -44 167 -44 173 -49.5 c 256,51,52
 179 -55 179 -55 179 -65 c 258,53,-1
 179 -126 l 258,54,55
 179 -136 179 -136 169 -143 c 257,56,-1
 109 -178 l 257,57,-1
 109 -326 l 258,0,1
EndSplineSet
EndChar

StartChar: accidentals.sharp.slashslashslash.stemstem
Encoding: 296 57616 40
Width: 281
Flags: W
VStem: 60 38<-383.995 -222 -126 -75 34 85 181 342.995> 183 38<-342.995 -181 -85 -34 75 126 222 383.995>
DStem2: 14 6 27 -85 0.950249 0.311492<-22.0593 18.4806 88.5427 148.132 218.194 259.512> 31 160 60 85 0.951405 0.307943<-19.0869 4.49504 70.2109 134.143 199.859 224.393> 31 -147 60 -222 0.951405 0.307943<-19.0869 4.49504 70.2109 134.143 199.859 224.393>
LayerCount: 2
Fore
SplineSet
221 -324 m 258,0,1
 221 -343 221 -343 202 -343 c 256,2,3
 183 -343 183 -343 183 -324 c 258,4,-1
 183 -181 l 257,5,-1
 98 -210 l 257,6,-1
 98 -365 l 258,7,8
 98 -384 98 -384 79 -384 c 256,9,10
 60 -384 60 -384 60 -365 c 258,11,-1
 60 -222 l 257,12,-1
 44 -227 l 258,13,14
 42 -228 42 -228 37 -228 c 256,15,16
 29 -228 29 -228 22.5 -222 c 256,17,18
 16 -216 16 -216 16 -208 c 258,19,-1
 16 -167 l 258,20,21
 16 -153 16 -153 31 -147 c 257,22,-1
 60 -138 l 257,23,-1
 60 -75 l 257,24,-1
 27 -85 l 258,25,26
 25 -86 25 -86 20 -86 c 256,27,28
 12 -86 12 -86 6 -80 c 256,29,30
 0 -74 0 -74 0 -66 c 258,31,-1
 0 -13 l 258,32,33
 0 1 0 1 14 6 c 258,34,-1
 60 20 l 257,35,-1
 60 85 l 257,36,-1
 44 80 l 258,37,38
 42 79 42 79 37 79 c 256,39,40
 29 79 29 79 22.5 85 c 256,41,42
 16 91 16 91 16 99 c 258,43,-1
 16 140 l 258,44,45
 16 154 16 154 31 160 c 257,46,-1
 60 169 l 257,47,-1
 60 324 l 258,48,49
 60 343 60 343 79 343 c 256,50,51
 98 343 98 343 98 324 c 258,52,-1
 98 181 l 257,53,-1
 183 210 l 257,54,-1
 183 365 l 258,55,56
 183 384 183 384 202 384 c 256,57,58
 221 384 221 384 221 365 c 258,59,-1
 221 222 l 257,60,-1
 238 227 l 258,61,62
 240 228 240 228 245 228 c 256,63,64
 253 228 253 228 259 222 c 256,65,66
 265 216 265 216 265 208 c 258,67,-1
 265 167 l 258,68,69
 265 153 265 153 251 147 c 257,70,-1
 221 138 l 257,71,-1
 221 75 l 257,72,-1
 255 85 l 258,73,74
 257 86 257 86 261 86 c 256,75,76
 269 86 269 86 275.5 80 c 256,77,78
 282 74 282 74 282 66 c 258,79,-1
 282 13 l 258,80,81
 282 -1 282 -1 267 -6 c 258,82,-1
 221 -20 l 257,83,-1
 221 -85 l 257,84,-1
 238 -80 l 258,85,86
 240 -79 240 -79 245 -79 c 256,87,88
 253 -79 253 -79 259 -85 c 256,89,90
 265 -91 265 -91 265 -99 c 258,91,-1
 265 -140 l 258,92,93
 265 -154 265 -154 251 -160 c 257,94,-1
 221 -169 l 257,95,-1
 221 -324 l 258,0,1
183 -34 m 257,96,-1
 98 -61 l 257,97,-1
 98 -126 l 257,98,-1
 183 -97 l 257,99,-1
 183 -34 l 257,96,-1
183 61 m 257,100,-1
 183 126 l 257,101,-1
 98 97 l 257,102,-1
 98 34 l 257,103,-1
 183 61 l 257,100,-1
EndSplineSet
EndChar

StartChar: accidentals.sharp.slashslashslash.stem
Encoding: 297 57617 41
Width: 242
Flags: W
VStem: 102 39<-330.995 -205 -102 -61 61 102 205 330.995>
DStem2: 37 161 53 82 0.923431 0.383764<-22.1983 37.381 112.922 173.425> 37 -146 53 -225 0.923431 0.383764<-22.1983 37.381 112.922 173.425> 102 45 102 -61 0.922403 0.386228<-119.842 -40.9402 42.1534 122.351>
LayerCount: 2
Fore
SplineSet
141 -311 m 258,0,1
 140 -331 140 -331 121 -331 c 256,2,3
 102 -331 102 -331 102 -311 c 258,4,-1
 102 -205 l 257,5,-1
 53 -225 l 258,6,7
 47 -227 47 -227 45 -227 c 256,8,9
 37 -227 37 -227 31 -221.5 c 256,10,11
 25 -216 25 -216 25 -207 c 258,12,-1
 25 -166 l 258,13,14
 25 -152 25 -152 37 -146 c 258,15,-1
 102 -119 l 257,16,-1
 102 -61 l 257,17,-1
 29 -92 l 258,18,19
 23 -94 23 -94 20 -94 c 256,20,21
 12 -94 12 -94 6 -88.5 c 256,22,23
 0 -83 0 -83 0 -74 c 258,24,-1
 0 -12 l 258,25,26
 0 2 0 2 12 7 c 258,27,-1
 102 45 l 257,28,-1
 102 102 l 257,29,-1
 53 82 l 258,30,31
 47 80 47 80 45 80 c 256,32,33
 37 80 37 80 31 85.5 c 256,34,35
 25 91 25 91 25 100 c 258,36,-1
 25 141 l 258,37,38
 25 155 25 155 37 161 c 258,39,-1
 102 188 l 257,40,-1
 102 311 l 258,41,42
 102 331 102 331 121.5 331 c 256,43,44
 141 331 141 331 141 311 c 258,45,-1
 141 205 l 257,46,-1
 190 225 l 258,47,48
 196 227 196 227 199 227 c 256,49,50
 207 227 207 227 213 221.5 c 256,51,52
 219 216 219 216 219 207 c 258,53,-1
 219 166 l 258,54,55
 219 152 219 152 207 146 c 257,56,-1
 141 119 l 257,57,-1
 141 61 l 257,58,-1
 215 92 l 258,59,60
 221 94 221 94 223 94 c 256,61,62
 231 94 231 94 237.5 88.5 c 256,63,64
 244 83 244 83 244 74 c 258,65,-1
 244 12 l 258,66,67
 244 -1 244 -1 230 -7 c 258,68,-1
 141 -45 l 257,69,-1
 141 -102 l 257,70,-1
 190 -82 l 258,71,72
 196 -80 196 -80 199 -80 c 256,73,74
 207 -80 207 -80 213 -85.5 c 256,75,76
 219 -91 219 -91 219 -100 c 258,77,-1
 219 -141 l 258,78,79
 219 -155 219 -155 207 -161 c 257,80,-1
 141 -188 l 257,81,-1
 141 -311 l 258,0,1
EndSplineSet
EndChar

StartChar: accidentals.sharp.slashslash.stemstemstem
Encoding: 298 57618 42
Width: 409
Flags: W
VStem: 71 38<-383.995 -220 -106 49 162 326.995> 186 38<-354.995 -191 -78 78 191 354.995> 301 38<-325.995 -162 -49 106 220 383.995>
DStem2: 15 139 26 38 0.97045 0.241301<-19.7605 32.6281 96.7723 151.228 215.372 269.586 333.971 386.119> 15 -130 26 -231 0.970598 0.240708<-19.4585 32.6897 97.0132 151.289 215.372 269.888 333.971 388.404>
CounterMasks: 1 e0
LayerCount: 2
Fore
SplineSet
339 -307 m 257,0,1
 339 -326 339 -326 320 -326 c 256,2,3
 301 -326 301 -326 301 -307 c 258,4,-1
 301 -162 l 257,5,-1
 224 -181 l 257,6,-1
 224 -336 l 258,7,8
 224 -355 224 -355 205 -355 c 256,9,10
 186 -355 186 -355 186 -336 c 258,11,-1
 186 -191 l 257,12,-1
 109 -210 l 257,13,-1
 109 -365 l 258,14,15
 109 -384 109 -384 90 -384 c 256,16,17
 71 -384 71 -384 71 -365 c 258,18,-1
 71 -220 l 257,19,-1
 26 -231 l 257,20,-1
 20 -231 l 258,21,22
 12 -231 12 -231 6 -225 c 256,23,24
 0 -219 0 -219 0 -211 c 258,25,-1
 0 -150 l 258,26,27
 0 -134 0 -134 15 -130 c 258,28,-1
 71 -116 l 257,29,-1
 71 49 l 257,30,-1
 26 38 l 257,31,-1
 20 37 l 257,32,33
 12 37 12 37 6 43 c 256,34,35
 0 49 0 49 0 57 c 258,36,-1
 0 119 l 258,37,38
 0 135 0 135 15 139 c 258,39,-1
 71 153 l 257,40,-1
 71 307 l 258,41,42
 71 327 71 327 90 327 c 256,43,44
 109 327 109 327 109 307 c 258,45,-1
 109 162 l 257,46,-1
 186 181 l 257,47,-1
 186 336 l 258,48,49
 186 355 186 355 205 355 c 256,50,51
 224 355 224 355 224 336 c 258,52,-1
 224 191 l 257,53,-1
 301 210 l 257,54,-1
 301 365 l 258,55,56
 301 384 301 384 320 384 c 256,57,58
 339 384 339 384 339 365 c 258,59,-1
 339 220 l 257,60,-1
 385 231 l 257,61,-1
 390 231 l 258,62,63
 398 231 398 231 404.5 225 c 256,64,65
 411 219 411 219 411 211 c 258,66,-1
 411 150 l 258,67,68
 411 134 411 134 395 130 c 258,69,-1
 339 116 l 257,70,-1
 339 -49 l 257,71,-1
 385 -38 l 257,72,-1
 390 -37 l 257,73,74
 398 -37 398 -37 404.5 -43 c 256,75,76
 411 -49 411 -49 411 -57 c 258,77,-1
 411 -119 l 258,78,79
 411 -136 411 -136 395 -139 c 258,80,-1
 339 -153 l 257,81,-1
 339 -307 l 257,0,1
301 106 m 257,82,-1
 224 87 l 257,83,-1
 224 -78 l 257,84,-1
 301 -58 l 257,85,-1
 301 106 l 257,82,-1
186 78 m 257,86,-1
 109 58 l 257,87,-1
 109 -106 l 257,88,-1
 186 -87 l 257,89,-1
 186 78 l 257,86,-1
EndSplineSet
EndChar

StartChar: accidentals.natural
Encoding: 299 57619 43
Width: 171
Flags: W
VStem: -8 49<-115 97 197 390.829> 0 37<-115 97 197 323.264> 127 52<-390.829 -197 -97 115>
LayerCount: 2
Fore
SplineSet
-8 384 m 257,0,1
 6 391 6 391 18 391 c 256,2,3
 30 391 30 391 44 384 c 257,4,-1
 41 197 l 257,5,-1
 150 217 l 257,6,-1
 154 217 l 258,7,8
 172 217 172 217 172 200 c 258,9,-1
 179 -384 l 257,10,11
 165 -391 165 -391 153 -391 c 256,12,13
 141 -391 141 -391 127 -384 c 257,14,-1
 130 -197 l 257,15,-1
 22 -217 l 257,16,-1
 18 -217 l 258,17,18
 0 -217 0 -217 0 -200 c 258,19,-1
 -8 384 l 257,0,1
131 -97 m 257,20,-1
 134 115 l 257,21,-1
 40 97 l 257,22,-1
 37 -115 l 257,23,-1
 131 -97 l 257,20,-1
EndSplineSet
EndChar

StartChar: accidentals.flat
Encoding: 300 57620 44
Width: 203
Flags: W
HStem: 106 44<41.4322 134.049>
VStem: -28 56<151.712 475.67> -15 42<-103.092 86.9198 115 174.304> 126 79<-18.7497 97.9873>
DStem2: 31 -104 25 -161 0.762377 0.647134<0.0621281 128.491>
LayerCount: 2
Fore
SplineSet
27 42 m 258,0,-1
 27 -37 l 258,1,2
 27 -75 27 -75 31 -104 c 257,3,4
 61 -78 61 -78 77.5 -62 c 256,5,6
 94 -46 94 -46 110 -18 c 256,7,8
 126 10 126 10 126 38 c 256,9,10
 126 66 126 66 114 86 c 256,11,12
 102 106 102 106 82 106 c 256,13,14
 58 106 58 106 42.5 87.5 c 256,15,16
 27 69 27 69 27 42 c 258,0,-1
-15 -141 m 258,17,-1
 -28 468 l 257,18,19
 -14.5 476 -14.5 476 0 476 c 256,20,21
 14.5 476 14.5 476 28 468 c 257,22,-1
 20 115 l 257,23,24
 61 150 61 150 114 150 c 256,25,26
 153 150 153 150 179 118.5 c 256,27,28
 205 87 205 87 205 45 c 256,29,30
 205 16 205 16 188.5 -10 c 256,31,32
 172 -36 172 -36 154 -51.5 c 256,33,34
 136 -67 136 -67 103 -91.5 c 256,35,36
 70 -116 70 -116 54 -128 c 256,37,38
 49 -132 49 -132 41 -143.5 c 256,39,40
 33 -155 33 -155 25 -161 c 256,41,42
 17 -167 17 -167 8 -167 c 256,43,44
 -2 -167 -2 -167 -8.5 -159.5 c 256,45,46
 -15 -152 -15 -152 -15 -141 c 258,17,-1
EndSplineSet
EndChar

StartChar: accidentals.flat.slash
Encoding: 301 57621 45
Width: 203
Flags: W
HStem: 106 44<42.6027 134.049>
VStem: -23 43<115.608 211> -15 42<-103.092 86.9198> 126 79<-18.7497 97.9873>
DStem2: -24 253 -23 211 0.893554 0.448956<-113.684 -17.9626 53.2166 147.621> 31 -104 25 -161 0.762377 0.647134<0.0621281 128.491>
LayerCount: 2
Fore
SplineSet
28 42 m 258,0,-1
 27 -37 l 258,1,2
 27 -75 27 -75 31 -104 c 257,3,4
 61 -78 61 -78 77.5 -62 c 256,5,6
 94 -46 94 -46 110 -18 c 256,7,8
 126 10 126 10 126 38 c 256,9,10
 126 66 126 66 114 86 c 256,11,12
 102 106 102 106 82 106 c 256,13,14
 58 106 58 106 43.5 87.5 c 256,15,16
 29 69 29 69 28 42 c 258,0,-1
-24 253 m 257,17,-1
 -28 468 l 257,18,19
 -14.5 476 -14.5 476 0 476 c 256,20,21
 14.5 476 14.5 476 28 468 c 257,22,-1
 24 276 l 257,23,-1
 94 311 l 258,24,25
 104 316 104 316 113 309.5 c 256,26,27
 122 303 122 303 121.5 293.5 c 256,28,29
 121 284 121 284 111 278 c 258,30,-1
 23 233 l 257,31,-1
 20 115 l 257,32,33
 61 150 61 150 114 150 c 256,34,35
 153 150 153 150 179 118.5 c 256,36,37
 205 87 205 87 205 45 c 256,38,39
 205 16 205 16 188.5 -10 c 256,40,41
 172 -36 172 -36 154 -51.5 c 256,42,43
 136 -67 136 -67 103 -91.5 c 256,44,45
 70 -116 70 -116 54 -128 c 256,46,47
 49 -132 49 -132 41 -143.5 c 256,48,49
 33 -155 33 -155 25 -161 c 256,50,51
 17 -167 17 -167 8 -167 c 256,52,53
 -2 -167 -2 -167 -8.5 -160 c 256,54,55
 -15 -153 -15 -153 -15 -141 c 258,56,-1
 -23 211 l 257,57,-1
 -94 175 l 258,58,59
 -103 170 -103 170 -112.5 175.5 c 256,60,61
 -122 181 -122 181 -122 191 c 256,62,63
 -122 203 -122 203 -111 209 c 258,64,-1
 -24 253 l 257,17,-1
EndSplineSet
EndChar

StartChar: accidentals.flat.slashslash
Encoding: 302 57622 46
Width: 203
Flags: W
HStem: 106 44<42.6027 134.049>
VStem: -15 42<-103.092 86.9198 275.4 291 358 436.846> 126 79<-18.7497 97.9873>
DStem2: -25 333 -25 291 0.895299 0.445466<-112.011 -18.7096 56.7969 149.003> -23 213 -22 170 0.893554 0.448956<-114.809 -18.4116 51.4295 146.728> 31 -104 25 -161 0.762377 0.647134<0.0621281 128.491>
LayerCount: 2
Fore
SplineSet
28 42 m 258,0,-1
 27 -37 l 258,1,2
 27 -75 27 -75 31 -104 c 257,3,4
 61 -78 61 -78 77.5 -62 c 256,5,6
 94 -46 94 -46 110 -18 c 256,7,8
 126 10 126 10 126 38 c 256,9,10
 126 66 126 66 114 86 c 256,11,12
 102 106 102 106 82 106 c 256,13,14
 58 106 58 106 43.5 87.5 c 256,15,16
 29 69 29 69 28 42 c 258,0,-1
-25 333 m 257,17,-1
 -28 468 l 257,18,19
 -14.5 476 -14.5 476 0 476 c 256,20,21
 14.5 476 14.5 476 28 468 c 257,22,-1
 26 358 l 257,23,-1
 94 392 l 258,24,25
 104 397 104 397 113 390.5 c 256,26,27
 122 384 122 384 121.5 374.5 c 256,28,29
 121 365 121 365 111 358 c 257,30,-1
 25 315 l 257,31,-1
 23 236 l 257,32,-1
 94 271 l 258,33,34
 104 276 104 276 113 269.5 c 256,35,36
 122 263 122 263 121.5 253 c 256,37,38
 121 243 121 243 111 237 c 258,39,-1
 23 193 l 257,40,-1
 20 115 l 257,41,42
 61 150 61 150 114 150 c 256,43,44
 153 150 153 150 179 118.5 c 256,45,46
 205 87 205 87 205 45 c 256,47,48
 205 16 205 16 188.5 -10 c 256,49,50
 172 -36 172 -36 154 -51.5 c 256,51,52
 136 -67 136 -67 103 -91.5 c 256,53,54
 70 -116 70 -116 54 -128 c 256,55,56
 49 -132 49 -132 41 -143.5 c 256,57,58
 33 -155 33 -155 25 -161 c 256,59,60
 17 -167 17 -167 8 -167 c 256,61,62
 -2 -167 -2 -167 -8.5 -160 c 256,63,64
 -15 -153 -15 -153 -15 -141 c 258,65,-1
 -22 170 l 257,66,-1
 -94 134 l 258,67,68
 -103 129 -103 129 -112.5 135 c 256,69,70
 -122 141 -122 141 -122 152 c 256,71,72
 -122 164 -122 164 -111 169 c 258,73,-1
 -23 213 l 257,74,-1
 -25 291 l 257,75,-1
 -94 256 l 258,76,77
 -103 251 -103 251 -112.5 257 c 256,78,79
 -122 263 -122 263 -122 273 c 256,80,81
 -122 284 -122 284 -111 290 c 258,82,-1
 -25 333 l 257,17,-1
EndSplineSet
EndChar

StartChar: accidentals.mirroredflat.flat
Encoding: 303 57623 47
Width: 409
Flags: W
HStem: 106 44<70.9507 161.858 247.142 319.657>
VStem: 0 79<-18.7498 97.9873> 177 55<-103.061 86.9198 116 475.719> 331 79<-18.7497 97.9873>
DStem2: 236 -104 230 -161 0.762377 0.647134<0.0621281 120.544>
LayerCount: 2
Fore
SplineSet
213 -167 m 258,0,-1
 197 -167 l 258,1,2
 188 -167 188 -167 180 -161 c 256,3,4
 172 -155 172 -155 164 -143.5 c 256,5,6
 156 -132 156 -132 151 -128 c 256,7,8
 136 -116 136 -116 102.5 -91.5 c 256,9,10
 69 -67 69 -67 51 -51.5 c 256,11,12
 33 -36 33 -36 16.5 -10 c 256,13,14
 0 16 0 16 0 45 c 256,15,16
 0 87 0 87 26 118.5 c 256,17,18
 52 150 52 150 91 150 c 256,19,20
 144 150 144 150 184 116 c 257,21,-1
 177 468 l 257,22,23
 190 476 190 476 204.5 476 c 256,24,25
 219 476 219 476 232 468 c 257,26,-1
 225 116 l 257,27,28
 265 150 265 150 318 150 c 256,29,30
 357 150 357 150 383.5 118.5 c 256,31,32
 410 87 410 87 410 45 c 256,33,34
 410 16 410 16 393.5 -10 c 256,35,36
 377 -36 377 -36 359 -51.5 c 256,37,38
 341 -67 341 -67 307.5 -91.5 c 256,39,40
 274 -116 274 -116 259 -128 c 256,41,42
 254 -132 254 -132 246 -143.5 c 256,43,44
 238 -155 238 -155 230 -161 c 256,45,46
 222 -167 222 -167 213 -167 c 258,0,-1
177 42 m 258,47,48
 176 69 176 69 161 87.5 c 256,49,50
 146 106 146 106 123 106 c 256,51,52
 103 106 103 106 91 86 c 256,53,54
 79 66 79 66 79 38 c 256,55,56
 79 10 79 10 95 -18 c 256,57,58
 111 -46 111 -46 127.5 -62.5 c 256,59,60
 144 -79 144 -79 174 -104 c 257,61,62
 178 -74 178 -74 178 -37 c 258,63,-1
 177 42 l 258,47,48
232 42 m 258,64,-1
 231 -37 l 258,65,66
 231 -75 231 -75 236 -104 c 257,67,68
 266 -78 266 -78 282.5 -62 c 256,69,70
 299 -46 299 -46 315 -18 c 256,71,72
 331 10 331 10 331 38 c 256,73,74
 331 66 331 66 319 86 c 256,75,76
 307 106 307 106 287 106 c 256,77,78
 263 106 263 106 248 87.5 c 256,79,80
 233 69 233 69 232 42 c 258,64,-1
EndSplineSet
EndChar

StartChar: accidentals.mirroredflat
Encoding: 304 57624 48
Width: 203
Flags: W
HStem: 106 44<40.4507 131.21>
VStem: -31 79<-18.7498 97.9873> 146 56<151.712 475.617>
LayerCount: 2
Fore
SplineSet
146 42 m 258,0,1
 145 69 145 69 130.5 87.5 c 256,2,3
 116 106 116 106 92 106 c 256,4,5
 72 106 72 106 60 86 c 256,6,7
 48 66 48 66 48 38 c 256,8,9
 48 10 48 10 64 -18 c 256,10,11
 80 -46 80 -46 97 -62.5 c 256,12,13
 114 -79 114 -79 143 -104 c 257,14,15
 147 -74 147 -74 147 -37 c 258,16,-1
 146 42 l 258,0,1
189 -141 m 258,17,18
 189 -152 189 -152 182.5 -159.5 c 256,19,20
 176 -167 176 -167 166 -167 c 256,21,22
 157 -167 157 -167 149 -161 c 256,23,24
 141 -155 141 -155 133 -143.5 c 256,25,26
 125 -132 125 -132 120 -128 c 256,27,28
 105 -116 105 -116 71.5 -91.5 c 256,29,30
 38 -67 38 -67 20 -51.5 c 256,31,32
 2 -36 2 -36 -14.5 -10 c 256,33,34
 -31 16 -31 16 -31 45 c 256,35,36
 -31 87 -31 87 -4.5 118.5 c 256,37,38
 22 150 22 150 60 150 c 256,39,40
 112 150 112 150 154 115 c 257,41,-1
 146 468 l 257,42,43
 159 476 159 476 173.5 476 c 256,44,45
 188 476 188 476 202 468 c 257,46,-1
 189 -141 l 258,17,18
EndSplineSet
EndChar

StartChar: accidentals.mirroredflat.backslash
Encoding: 305 57625 49
Width: 203
Flags: W
HStem: 106 44<-12.6571 59.6708>
VStem: -102 78<-19.5598 97.9873> 75 43<-103.061 86.9198 115 211>
DStem2: 8 311 -8 278 0.893554 -0.448956<-15.6735 79.1558 149.441 245.624> 25 -62.5 77.5 -161 0.76361 -0.645678<-71.1592 62.5194>
LayerCount: 2
Fore
SplineSet
75 42 m 258,0,1
 74 69 74 69 59 87.5 c 256,2,3
 44 106 44 106 20 106 c 256,4,5
 0 106 0 106 -12 86 c 256,6,7
 -24 66 -24 66 -24 38 c 256,8,9
 -24 10 -24 10 -8 -18 c 256,10,11
 8 -46 8 -46 25 -62.5 c 256,12,13
 42 -79 42 -79 72 -104 c 257,14,15
 76 -74 76 -74 76 -37 c 258,16,-1
 75 42 l 258,0,1
126 253 m 257,17,-1
 213 209 l 258,18,19
 224 204 224 204 224 191 c 256,20,21
 224 181 224 181 215 175.5 c 256,22,23
 206 170 206 170 197 175 c 258,24,-1
 125 211 l 257,25,-1
 118 -141 l 258,26,27
 118 -152 118 -152 111 -159.5 c 256,28,29
 104 -167 104 -167 94 -167 c 256,30,31
 85 -167 85 -167 77.5 -161 c 256,32,33
 70 -155 70 -155 61.5 -143.5 c 256,34,35
 53 -132 53 -132 48 -128 c 256,36,37
 33 -116 33 -116 -0.5 -91.5 c 256,38,39
 -34 -67 -34 -67 -52 -51.5 c 256,40,41
 -70 -36 -70 -36 -86 -10 c 256,42,43
 -102 16 -102 16 -102 45 c 256,44,45
 -102 87 -102 87 -76 118.5 c 256,46,47
 -50 150 -50 150 -11 150 c 256,48,49
 41 150 41 150 82 115 c 257,50,-1
 80 233 l 257,51,-1
 -8 278 l 258,52,53
 -18 284 -18 284 -18.5 293.5 c 256,54,55
 -19 303 -19 303 -10.5 309.5 c 256,56,57
 -2 316 -2 316 8 311 c 258,58,-1
 79 276 l 257,59,-1
 75 468 l 257,60,61
 88 476 88 476 102.5 476 c 256,62,63
 117 476 117 476 130 468 c 257,64,-1
 126 253 l 257,17,-1
EndSplineSet
EndChar

StartChar: accidentals.flatflat
Encoding: 306 57626 50
Width: 370
Flags: W
HStem: 106 44<33.1572 107 208.486 296>
VStem: -28 56<151.712 475.67> -15 32<-105.03 93.75 115 194.793> 94 101<-32.749 86.9198> 138 56<156.957 475.67> 148 45<-103.092 -33 128 269.712> 286 85<-18.0137 92.7563>
LayerCount: 2
Fore
SplineSet
195 42 m 258,0,-1
 193 -37 l 258,1,2
 193 -75 193 -75 197 -104 c 257,3,4
 286 -29 286 -29 286 38 c 256,5,6
 286 67 286 67 275.5 86.5 c 256,7,8
 265 106 265 106 245 106 c 256,9,10
 222 106 222 106 209 87.5 c 256,11,12
 196 69 196 69 195 42 c 258,0,-1
151 -141 m 258,13,-1
 148 -33 l 257,14,15
 132 -53 132 -53 92.5 -88 c 256,16,17
 53 -123 53 -123 48 -128 c 256,18,19
 44 -132 44 -132 37.5 -143.5 c 256,20,21
 31 -155 31 -155 24 -161 c 256,22,23
 17 -167 17 -167 8 -167 c 256,24,25
 -2 -167 -2 -167 -8.5 -160 c 256,26,27
 -15 -153 -15 -153 -15 -141 c 258,28,-1
 -28 468 l 257,29,30
 -14.5 476 -14.5 476 0 476 c 256,31,32
 14.5 476 14.5 476 28 468 c 257,33,-1
 20 115 l 257,34,35
 49 150 49 150 92 150 c 256,36,37
 122 150 122 150 145 128 c 257,38,-1
 138 468 l 257,39,40
 151.5 476 151.5 476 166 476 c 256,41,42
 180.5 476 180.5 476 194 468 c 257,43,-1
 187 115 l 257,44,45
 227 150 227 150 276 150 c 256,46,47
 316 150 316 150 343.5 119 c 256,48,49
 371 88 371 88 371 46 c 256,50,51
 371 17 371 17 354.5 -9.5 c 256,52,53
 338 -36 338 -36 320 -51 c 256,54,55
 302 -66 302 -66 268 -91 c 256,56,57
 234 -116 234 -116 220 -128 c 256,58,59
 215 -132 215 -132 207.5 -143 c 256,60,61
 200 -154 200 -154 192 -160.5 c 256,62,63
 184 -167 184 -167 175 -167 c 256,64,65
 165 -167 165 -167 158 -159 c 256,66,67
 151 -151 151 -151 151 -141 c 258,13,-1
17 -37 m 258,68,69
 17 -75 17 -75 22 -106 c 257,70,71
 94 -36 94 -36 94 38 c 256,72,73
 94 106 94 106 60 106 c 257,74,75
 21 106 21 106 19 42 c 258,76,-1
 17 -37 l 258,68,69
EndSplineSet
EndChar

StartChar: accidentals.flatflat.slash
Encoding: 307 57627 51
Width: 370
Flags: W
HStem: 106 44<33.1572 107 208.486 296>
VStem: -22 45<137.187 170 255 475.992> -15 32<-105.03 93.75 115 170> 94 101<-32.2495 86.9198> 148 45<-39.048 -33 128 264 351 426.936> 286 85<-18.0137 92.7563>
DStem2: -23 228 -22 170 0.867977 0.496604<-143.645 -27.935 54.2032 161.962 246.829 345.892>
LayerCount: 2
Fore
SplineSet
195 42 m 258,0,-1
 193 -37 l 258,1,2
 193 -75 193 -75 197 -104 c 257,3,4
 286 -29 286 -29 286 38 c 256,5,6
 286 67 286 67 275.5 86.5 c 256,7,8
 265 106 265 106 245 106 c 256,9,10
 222 106 222 106 209 87.5 c 256,11,12
 196 69 196 69 195 42 c 258,0,-1
-124 115 m 256,13,14
 -134 115 -134 115 -142 122.5 c 256,15,16
 -150 130 -150 130 -150 140 c 256,17,18
 -150 154 -150 154 -136 163 c 258,19,-1
 -23 228 l 257,20,-1
 -28 468 l 257,21,22
 -14.5 476 -14.5 476 0 476 c 256,23,24
 14.5 476 14.5 476 28 468 c 257,25,-1
 24 255 l 257,26,-1
 141 323 l 257,27,-1
 138 468 l 257,28,29
 151.5 476 151.5 476 166 476 c 256,30,31
 180.5 476 180.5 476 194 468 c 257,32,-1
 191 351 l 257,33,-1
 265 393 l 258,34,35
 273 397 273 397 279 397 c 256,36,37
 289 397 289 397 296.5 389.5 c 256,38,39
 304 382 304 382 304 372 c 256,40,41
 304 358 304 358 291 349 c 257,42,-1
 190 291 l 257,43,-1
 187 115 l 257,44,45
 227 150 227 150 276 150 c 256,46,47
 316 150 316 150 343.5 119 c 256,48,49
 371 88 371 88 371 46 c 256,50,51
 371 17 371 17 354.5 -9.5 c 256,52,53
 338 -36 338 -36 320 -51 c 256,54,55
 302 -66 302 -66 268 -91 c 256,56,57
 234 -116 234 -116 220 -128 c 256,58,59
 215 -132 215 -132 207.5 -143 c 256,60,61
 200 -154 200 -154 192 -160.5 c 256,62,63
 184 -167 184 -167 175 -167 c 256,64,65
 165 -167 165 -167 158 -159.5 c 256,66,67
 151 -152 151 -152 151 -141 c 258,68,-1
 148 -33 l 257,69,70
 132 -53 132 -53 92.5 -88 c 256,71,72
 53 -123 53 -123 48 -128 c 256,73,74
 44 -132 44 -132 37.5 -143.5 c 256,75,76
 31 -155 31 -155 24 -161 c 256,77,78
 17 -167 17 -167 8 -167 c 256,79,80
 -2 -167 -2 -167 -8.5 -160 c 256,81,82
 -15 -153 -15 -153 -15 -141 c 258,83,-1
 -22 170 l 257,84,-1
 -111 119 l 258,85,86
 -119 115 -119 115 -124 115 c 256,13,14
143 264 m 257,87,-1
 23 195 l 257,88,-1
 20 115 l 257,89,90
 49 150 49 150 92 150 c 256,91,92
 122 150 122 150 145 128 c 257,93,-1
 143 264 l 257,87,-1
17 -37 m 258,94,95
 17 -75 17 -75 22 -106 c 257,96,97
 94 -35 94 -35 94 38 c 256,98,99
 94 106 94 106 60 106 c 257,100,101
 21 106 21 106 19 42 c 258,102,-1
 17 -37 l 258,94,95
EndSplineSet
EndChar

StartChar: accidentals.doublesharp
Encoding: 308 57628 52
Width: 256
Flags: W
HStem: -138 109<-2.22559 71.4764 185.32 258.226> -28 56<100 156> 29 109<-2.22559 71.4764 185.32 258.226>
VStem: -10 109<-128.936 -57.1164 57.1164 128.936> -1 100<-109.884 -35.7656 35.7656 109.884> 100 56<-28 28> 157 109<-130.125 -57.1164 57.1164 130.125> 157 100<-109.884 -35.7656 35.7656 109.884>
CounterMasks: 1 e0
LayerCount: 2
Fore
SplineSet
156 0 m 257,0,1
 185 -29 185 -29 247 -29 c 256,2,3
 257 -29 257 -29 257 -39 c 258,4,-1
 266 -128 l 258,5,6
 267 -132 267 -132 264 -135 c 256,7,8
 261 -138 261 -138 257 -138 c 258,9,-1
 167 -129 l 258,10,11
 157 -127 157 -127 157 -119 c 256,12,13
 157 -57 157 -57 128 -28 c 257,14,15
 99 -57 99 -57 99 -119 c 256,16,17
 99 -127 99 -127 90 -129 c 258,18,-1
 -1 -138 l 258,19,20
 -5 -138 -5 -138 -8 -135 c 256,21,22
 -11 -132 -11 -132 -10 -128 c 258,23,-1
 -1 -39 l 258,24,25
 -1 -29 -1 -29 9 -29 c 256,26,27
 71 -29 71 -29 100 0 c 257,28,29
 71 29 71 29 9 29 c 256,30,31
 -1 29 -1 29 -1 39 c 258,32,-1
 -10 128 l 258,33,34
 -11 132 -11 132 -8 135 c 256,35,36
 -5 138 -5 138 -1 138 c 258,37,-1
 90 129 l 258,38,39
 99 127 99 127 99 119 c 256,40,41
 99 57 99 57 128 28 c 257,42,43
 157 57 157 57 157 119 c 256,44,45
 157 127 157 127 167 129 c 258,46,-1
 257 138 l 258,47,48
 261 138 261 138 264 135 c 256,49,50
 267 132 267 132 266 128 c 258,51,-1
 257 39 l 258,52,53
 257 29 257 29 247 29 c 256,54,55
 185 29 185 29 156 0 c 257,0,1
EndSplineSet
EndChar

StartChar: accidentals.rightparen
Encoding: 309 57629 53
Width: 152
Flags: W
VStem: 102 52<-126.341 127.301>
LayerCount: 2
Fore
SplineSet
38 -256 m 256,0,1
 38 -255 38 -255 54 -230 c 256,2,3
 70 -205 70 -205 86 -145.5 c 256,4,5
 102 -86 102 -86 102 0 c 256,6,7
 102 86 102 86 86 146 c 256,8,9
 70 206 70 206 54 230.5 c 256,10,11
 38 255 38 255 38 256 c 256,12,13
 38 269 38 269 51 269 c 256,14,15
 60 269 60 269 84.5 232 c 256,16,17
 109 195 109 195 131.5 128 c 256,18,19
 154 61 154 61 154 0 c 256,20,21
 154 -62 154 -62 131 -128.5 c 256,22,23
 108 -195 108 -195 84 -232 c 256,24,25
 60 -269 60 -269 51 -269 c 256,26,27
 38 -269 38 -269 38 -256 c 256,0,1
EndSplineSet
EndChar

StartChar: accidentals.leftparen
Encoding: 310 57630 54
Width: 0
Flags: W
VStem: -154 52<-126.341 127.301>
LayerCount: 2
Fore
SplineSet
-38 -256 m 256,0,1
 -38 -269 -38 -269 -51 -269 c 256,2,3
 -60 -269 -60 -269 -84 -232 c 256,4,5
 -108 -195 -108 -195 -131 -128.5 c 256,6,7
 -154 -62 -154 -62 -154 0 c 256,8,9
 -154 61 -154 61 -131.5 128 c 256,10,11
 -109 195 -109 195 -84.5 232 c 256,12,13
 -60 269 -60 269 -51 269 c 256,14,15
 -38 269 -38 269 -38 256 c 256,16,17
 -38 255 -38 255 -54 230.5 c 256,18,19
 -70 206 -70 206 -86 146 c 256,20,21
 -102 86 -102 86 -102 0 c 256,22,23
 -102 -86 -102 -86 -86 -145.5 c 256,24,25
 -70 -205 -70 -205 -54 -230 c 256,26,27
 -38 -255 -38 -255 -38 -256 c 256,0,1
EndSplineSet
EndChar

StartChar: arrowheads.open.01
Encoding: 311 57631 55
Width: 256
Flags: W
HStem: -20 40<-105.481 19.9951>
VStem: -256 276
LayerCount: 2
Fore
SplineSet
20 0 m 256,0,1
 20 20 20 20 0 20 c 256,2,3
 -53 20 -53 20 -98.5 37 c 256,4,5
 -144 54 -144 54 -168.5 74 c 256,6,7
 -193 94 -193 94 -211 111 c 256,8,9
 -229 128 -229 128 -236 128 c 256,10,11
 -244 128 -244 128 -250 122.5 c 256,12,13
 -256 117 -256 117 -256 108 c 256,14,15
 -256 93 -256 93 -212.5 56 c 256,16,17
 -169 19 -169 19 -115 0 c 257,18,19
 -166 -18 -166 -18 -211 -54.5 c 256,20,21
 -256 -91 -256 -91 -256 -108 c 256,22,23
 -256 -117 -256 -117 -250 -122.5 c 256,24,25
 -244 -128 -244 -128 -236 -128 c 256,26,27
 -230 -128 -230 -128 -211.5 -111 c 256,28,29
 -193 -94 -193 -94 -168.5 -74 c 256,30,31
 -144 -54 -144 -54 -98.5 -37 c 256,32,33
 -53 -20 -53 -20 0 -20 c 256,34,35
 20 -20 20 -20 20 0 c 256,0,1
EndSplineSet
EndChar

StartChar: arrowheads.open.0M1
Encoding: 312 57632 56
Width: 256
Flags: W
HStem: -20 40<-19.9951 105.481>
VStem: -20 276
LayerCount: 2
Fore
SplineSet
-20 0 m 256,0,1
 -20 20 -20 20 0 20 c 256,2,3
 53 20 53 20 98.5 37 c 256,4,5
 144 54 144 54 168.5 74 c 256,6,7
 193 94 193 94 211 111 c 256,8,9
 229 128 229 128 236 128 c 256,10,11
 244 128 244 128 250 122.5 c 256,12,13
 256 117 256 117 256 108 c 256,14,15
 256 93 256 93 212.5 56 c 256,16,17
 169 19 169 19 115 0 c 257,18,19
 166 -18 166 -18 211 -54.5 c 256,20,21
 256 -91 256 -91 256 -108 c 256,22,23
 256 -117 256 -117 250 -122.5 c 256,24,25
 244 -128 244 -128 236 -128 c 256,26,27
 230 -128 230 -128 211.5 -111 c 256,28,29
 193 -94 193 -94 168.5 -74 c 256,30,31
 144 -54 144 -54 98.5 -37 c 256,32,33
 53 -20 53 -20 0 -20 c 256,34,35
 -20 -20 -20 -20 -20 0 c 256,0,1
EndSplineSet
EndChar

StartChar: arrowheads.open.11
Encoding: 313 57633 57
Width: 128
Flags: W
HStem: -256 276
VStem: -20 40<-105.481 19.9951>
LayerCount: 2
Fore
SplineSet
0 20 m 256,0,1
 -20 20 -20 20 -20 0 c 256,2,3
 -20 -53 -20 -53 -37 -98.5 c 256,4,5
 -54 -144 -54 -144 -74 -168.5 c 256,6,7
 -94 -193 -94 -193 -111 -211 c 256,8,9
 -128 -229 -128 -229 -128 -236 c 256,10,11
 -128 -244 -128 -244 -122.5 -250 c 256,12,13
 -117 -256 -117 -256 -108 -256 c 256,14,15
 -93 -256 -93 -256 -56 -212.5 c 256,16,17
 -19 -169 -19 -169 0 -115 c 257,18,19
 18 -166 18 -166 54.5 -211 c 256,20,21
 91 -256 91 -256 108 -256 c 256,22,23
 117 -256 117 -256 122.5 -250 c 256,24,25
 128 -244 128 -244 128 -236 c 256,26,27
 128 -230 128 -230 111 -211.5 c 256,28,29
 94 -193 94 -193 74 -168.5 c 256,30,31
 54 -144 54 -144 37 -98.5 c 256,32,33
 20 -53 20 -53 20 0 c 256,34,35
 20 20 20 20 0 20 c 256,0,1
EndSplineSet
EndChar

StartChar: arrowheads.open.1M1
Encoding: 314 57634 58
Width: 128
Flags: W
HStem: -20 276
VStem: -20 40<-19.9951 105.481>
LayerCount: 2
Fore
SplineSet
0 -20 m 256,0,1
 -20 -20 -20 -20 -20 0 c 256,2,3
 -20 53 -20 53 -37 98.5 c 256,4,5
 -54 144 -54 144 -74 168.5 c 256,6,7
 -94 193 -94 193 -111 211 c 256,8,9
 -128 229 -128 229 -128 236 c 256,10,11
 -128 244 -128 244 -122.5 250 c 256,12,13
 -117 256 -117 256 -108 256 c 256,14,15
 -93 256 -93 256 -56 212.5 c 256,16,17
 -19 169 -19 169 0 115 c 257,18,19
 18 166 18 166 54.5 211 c 256,20,21
 91 256 91 256 108 256 c 256,22,23
 117 256 117 256 122.5 250 c 256,24,25
 128 244 128 244 128 236 c 256,26,27
 128 230 128 230 111 211.5 c 256,28,29
 94 193 94 193 74 168.5 c 256,30,31
 54 144 54 144 37 98.5 c 256,32,33
 20 53 20 53 20 0 c 256,34,35
 20 -20 20 -20 0 -20 c 256,0,1
EndSplineSet
EndChar

StartChar: arrowheads.close.01
Encoding: 315 57635 59
Width: 0
Flags: W
HStem: -10 20<-54.875 9.99756>
VStem: -256 266
LayerCount: 2
Fore
SplineSet
10 0 m 256,0,1
 10 -10 10 -10 0 -10 c 256,2,3
 -46 -10 -46 -10 -127.5 -49 c 256,4,5
 -209 -88 -209 -88 -238 -124 c 256,6,7
 -242 -128 -242 -128 -246 -128 c 256,8,9
 -256 -128 -256 -128 -256 -118 c 256,10,11
 -256 -117 -256 -117 -254.5 -110.5 c 256,12,13
 -253 -104 -253 -104 -251.5 -93 c 256,14,15
 -250 -82 -250 -82 -248 -68 c 256,16,17
 -246 -54 -246 -54 -244.5 -35.5 c 256,18,19
 -243 -17 -243 -17 -243 0 c 256,20,21
 -243 17 -243 17 -244.5 35.5 c 256,22,23
 -246 54 -246 54 -248 68 c 256,24,25
 -250 82 -250 82 -251.5 93 c 256,26,27
 -253 104 -253 104 -254.5 110.5 c 256,28,29
 -256 117 -256 117 -256 118 c 256,30,31
 -256 128 -256 128 -246 128 c 256,32,33
 -242 128 -242 128 -238 124 c 256,34,35
 -209 88 -209 88 -127.5 49 c 256,36,37
 -46 10 -46 10 0 10 c 256,38,39
 10 10 10 10 10 0 c 256,0,1
EndSplineSet
EndChar

StartChar: arrowheads.close.0M1
Encoding: 316 57636 60
Width: 256
Flags: W
HStem: -10 20<-9.99756 54.875>
VStem: -10 266
LayerCount: 2
Fore
SplineSet
-10 0 m 256,0,1
 -10 10 -10 10 0 10 c 256,2,3
 46 10 46 10 127.5 49 c 256,4,5
 209 88 209 88 238 124 c 256,6,7
 242 128 242 128 246 128 c 256,8,9
 256 128 256 128 256 118 c 256,10,11
 256 117 256 117 254.5 110.5 c 256,12,13
 253 104 253 104 251.5 93 c 256,14,15
 250 82 250 82 248 68 c 256,16,17
 246 54 246 54 244.5 35.5 c 256,18,19
 243 17 243 17 243 0 c 256,20,21
 243 -17 243 -17 244.5 -35.5 c 256,22,23
 246 -54 246 -54 248 -68 c 256,24,25
 250 -82 250 -82 251.5 -93 c 256,26,27
 253 -104 253 -104 254.5 -110.5 c 256,28,29
 256 -117 256 -117 256 -118 c 256,30,31
 256 -128 256 -128 246 -128 c 256,32,33
 242 -128 242 -128 238 -124 c 256,34,35
 209 -88 209 -88 127.5 -49 c 256,36,37
 46 -10 46 -10 0 -10 c 256,38,39
 -10 -10 -10 -10 -10 0 c 256,0,1
EndSplineSet
EndChar

StartChar: arrowheads.close.11
Encoding: 317 57637 61
Width: 128
Flags: W
HStem: -256 266
VStem: -10 20<-54.875 9.99756>
LayerCount: 2
Fore
SplineSet
0 10 m 256,0,1
 10 10 10 10 10 0 c 256,2,3
 10 -46 10 -46 49 -127.5 c 256,4,5
 88 -209 88 -209 124 -238 c 256,6,7
 128 -242 128 -242 128 -246 c 256,8,9
 128 -256 128 -256 118 -256 c 256,10,11
 117 -256 117 -256 110.5 -254.5 c 256,12,13
 104 -253 104 -253 93 -251.5 c 256,14,15
 82 -250 82 -250 68 -248 c 256,16,17
 54 -246 54 -246 35.5 -244.5 c 256,18,19
 17 -243 17 -243 0 -243 c 256,20,21
 -17 -243 -17 -243 -35.5 -244.5 c 256,22,23
 -54 -246 -54 -246 -68 -248 c 256,24,25
 -82 -250 -82 -250 -93 -251.5 c 256,26,27
 -104 -253 -104 -253 -110.5 -254.5 c 256,28,29
 -117 -256 -117 -256 -118 -256 c 256,30,31
 -128 -256 -128 -256 -128 -246 c 256,32,33
 -128 -242 -128 -242 -124 -238 c 256,34,35
 -88 -209 -88 -209 -49 -127.5 c 256,36,37
 -10 -46 -10 -46 -10 0 c 256,38,39
 -10 10 -10 10 0 10 c 256,0,1
EndSplineSet
EndChar

StartChar: arrowheads.close.1M1
Encoding: 318 57638 62
Width: 128
Flags: W
HStem: -10 266
VStem: -10 20<-9.99756 54.875>
LayerCount: 2
Fore
SplineSet
0 -10 m 256,0,1
 -10 -10 -10 -10 -10 0 c 256,2,3
 -10 46 -10 46 -49 127.5 c 256,4,5
 -88 209 -88 209 -124 238 c 256,6,7
 -128 242 -128 242 -128 246 c 256,8,9
 -128 256 -128 256 -118 256 c 256,10,11
 -117 256 -117 256 -110.5 254.5 c 256,12,13
 -104 253 -104 253 -93 251.5 c 256,14,15
 -82 250 -82 250 -68 248 c 256,16,17
 -54 246 -54 246 -35.5 244.5 c 256,18,19
 -17 243 -17 243 0 243 c 256,20,21
 17 243 17 243 35.5 244.5 c 256,22,23
 54 246 54 246 68 248 c 256,24,25
 82 250 82 250 93 251.5 c 256,26,27
 104 253 104 253 110.5 254.5 c 256,28,29
 117 256 117 256 118 256 c 256,30,31
 128 256 128 256 128 246 c 256,32,33
 128 242 128 242 124 238 c 256,34,35
 88 209 88 209 49 127.5 c 256,36,37
 10 46 10 46 10 0 c 256,38,39
 10 -10 10 -10 0 -10 c 256,0,1
EndSplineSet
EndChar

StartChar: dots.dot
Encoding: 319 57639 63
Width: 352
Flags: W
HStem: -58 116<17.533 98.467>
VStem: 0 116<-40.467 40.467>
LayerCount: 2
Fore
SplineSet
0 0 m 256,0,1
 0 24 0 24 17 41 c 256,2,3
 34 58 34 58 58 58 c 256,4,5
 82 58 82 58 99 41 c 256,6,7
 116 24 116 24 116 0 c 256,8,9
 116 -24 116 -24 99 -41 c 256,10,11
 82 -58 82 -58 58 -58 c 256,12,13
 34 -58 34 -58 17 -41 c 256,14,15
 0 -24 0 -24 0 0 c 256,0,1
EndSplineSet
EndChar

StartChar: noteheads.uM2
Encoding: 320 57640 64
Width: 587
Flags: W
HStem: -141 26<271.293 367.07> 115 26<220.885 316.707>
VStem: 0 50<-140.898 -40 40 140.898> 397 190<-39.7773 39.3484> 537 50<-140.898 -40 40 908.898>
LayerCount: 2
Fore
SplineSet
294 141 m 256,0,1
 394 141 394 141 456 109 c 256,2,3
 518 77 518 77 537 40 c 257,4,-1
 537 883 l 258,5,6
 537 909 537 909 562 909 c 256,7,8
 587 909 587 909 587 883 c 258,9,-1
 587 -115 l 258,10,11
 587 -141 587 -141 562 -141 c 256,12,13
 537 -141 537 -141 537 -115 c 258,14,-1
 537 -40 l 257,15,16
 518 -77 518 -77 456 -109 c 256,17,18
 394 -141 394 -141 294 -141 c 256,19,20
 194 -141 194 -141 132 -109 c 256,21,22
 70 -77 70 -77 50 -40 c 257,23,-1
 50 -115 l 258,24,25
 50 -141 50 -141 25 -141 c 256,26,27
 0 -141 0 -141 0 -115 c 258,28,-1
 0 115 l 258,29,30
 0 141 0 141 25 141 c 256,31,32
 50 141 50 141 50 115 c 258,33,-1
 50 40 l 257,34,35
 70 77 70 77 132 109 c 256,36,37
 194 141 194 141 294 141 c 256,0,1
260 115 m 256,38,39
 226 114 226 114 208 90 c 256,40,41
 190 66 190 66 190 25 c 256,42,43
 190 -22 190 -22 215 -56 c 256,44,45
 240 -90 240 -90 270 -102 c 256,46,47
 300 -115 300 -115 327 -115 c 256,48,49
 362 -114 362 -114 380 -90 c 256,50,51
 398 -66 398 -66 397 -25 c 256,52,53
 397 22 397 22 372 56 c 256,54,55
 348 90 348 90 318 102 c 256,56,57
 288 115 288 115 260 115 c 256,38,39
EndSplineSet
EndChar

StartChar: noteheads.dM2
Encoding: 321 57641 65
Width: 587
Flags: W
HStem: -141 26<271.293 367.07> 115 26<220.885 316.707>
VStem: 0 50<-908.902 -40 40 140.898> 397 190<-39.7773 39.3484> 537 50<-140.902 -40 40 140.898>
LayerCount: 2
Fore
SplineSet
294 141 m 256,0,1
 394 141 394 141 456 109 c 256,2,3
 518 77 518 77 537 40 c 257,4,-1
 537 115 l 258,5,6
 537 141 537 141 562 141 c 256,7,8
 587 141 587 141 587 115 c 258,9,-1
 587 -116 l 258,10,11
 587 -141 587 -141 562 -141 c 256,12,13
 537 -141 537 -141 537 -116 c 258,14,-1
 537 -40 l 257,15,16
 518 -77 518 -77 456 -109 c 256,17,18
 394 -141 394 -141 294 -141 c 256,19,20
 194 -141 194 -141 132 -109 c 256,21,22
 70 -77 70 -77 50 -40 c 257,23,-1
 50 -884 l 258,24,25
 50 -909 50 -909 25 -909 c 256,26,27
 0 -909 0 -909 0 -884 c 258,28,-1
 0 115 l 258,29,30
 0 141 0 141 25 141 c 256,31,32
 50 141 50 141 50 115 c 258,33,-1
 50 40 l 257,34,35
 70 77 70 77 132 109 c 256,36,37
 194 141 194 141 294 141 c 256,0,1
260 115 m 256,38,39
 226 114 226 114 208 90 c 256,40,41
 190 66 190 66 190 25 c 256,42,43
 190 -22 190 -22 215 -56 c 256,44,45
 240 -90 240 -90 270 -102 c 256,46,47
 300 -115 300 -115 327 -115 c 256,48,49
 362 -114 362 -114 380 -90 c 256,50,51
 398 -66 398 -66 397 -25 c 256,52,53
 397 22 397 22 372 56 c 256,54,55
 348 90 348 90 318 102 c 256,56,57
 288 115 288 115 260 115 c 256,38,39
EndSplineSet
EndChar

StartChar: noteheads.sM1
Encoding: 322 57642 66
Width: 587
Flags: MW
HStem: -141 26<271.293 367.07> 115 26<220.885 316.707>
VStem: 0 50<-140.898 -40 40 140.898> 537 50<-140.898 -40 40 140.898>
LayerCount: 2
Fore
SplineSet
294 141 m 256,0,1
 394 141 394 141 456 109 c 256,2,3
 518 77 518 77 537 40 c 257,4,-1
 537 115 l 258,5,6
 537 141 537 141 562 141 c 256,7,8
 587 141 587 141 587 115 c 258,9,-1
 587 -115 l 258,10,11
 587 -141 587 -141 562 -141 c 256,12,13
 537 -141 537 -141 537 -115 c 258,14,-1
 537 -40 l 257,15,16
 518 -77 518 -77 456 -109 c 256,17,18
 394 -141 394 -141 294 -141 c 256,19,20
 194 -141 194 -141 132 -109 c 256,21,22
 70 -77 70 -77 50 -40 c 257,23,-1
 50 -115 l 258,24,25
 50 -141 50 -141 25 -141 c 256,26,27
 0 -141 0 -141 0 -115 c 258,28,-1
 0 115 l 258,29,30
 0 141 0 141 25 141 c 256,31,32
 50 141 50 141 50 115 c 258,33,-1
 50 40 l 257,34,35
 70 77 70 77 132 109 c 256,36,37
 194 141 194 141 294 141 c 256,0,1
260 115 m 256,38,39
 226 114 226 114 208 90 c 256,40,41
 190 66 190 66 190 25 c 256,42,43
 190 -22 190 -22 215 -56 c 256,44,45
 240 -90 240 -90 270 -102 c 256,46,47
 300 -115 300 -115 327 -115 c 256,48,49
 362 -114 362 -114 380 -90 c 256,50,51
 398 -66 398 -66 397 -25 c 256,52,53
 397 22 397 22 372 56 c 256,54,55
 348 90 348 90 318 102 c 256,56,57
 288 115 288 115 260 115 c 256,38,39
EndSplineSet
EndChar

StartChar: noteheads.s0
Encoding: 323 57643 67
Width: 506
Flags: W
HStem: -141 26<230.351 327.523> 115 26<179.942 277.347>
VStem: 0 150<-51.4796 58.5075> 357 150<-58.5075 51.4796>
LayerCount: 2
Fore
SplineSet
220 115 m 256,0,1
 185 115 185 115 167.5 90.5 c 256,2,3
 150 66 150 66 150 25 c 256,4,5
 150 -22 150 -22 175 -55.5 c 256,6,7
 200 -89 200 -89 229.5 -102 c 256,8,9
 259 -115 259 -115 287 -115 c 256,10,11
 322 -115 322 -115 339.5 -90.5 c 256,12,13
 357 -66 357 -66 357 -25 c 256,14,15
 357 22 357 22 332 55.5 c 256,16,17
 307 89 307 89 277.5 102 c 256,18,19
 248 115 248 115 220 115 c 256,0,1
254 141 m 256,20,21
 362 141 362 141 434.5 99 c 256,22,23
 507 57 507 57 507 0 c 256,24,25
 507 -60 507 -60 431.5 -100.5 c 256,26,27
 356 -141 356 -141 254 -141 c 256,28,29
 148 -141 148 -141 74 -99 c 256,30,31
 0 -57 0 -57 0 0 c 256,32,33
 0 60 0 60 76 100.5 c 256,34,35
 152 141 152 141 254 141 c 256,20,21
EndSplineSet
EndChar

StartChar: noteheads.s1
Encoding: 324 57644 68
Width: 355
Flags: W
HStem: -141 32<44.2045 121.912> 109 32<234.155 312.31>
VStem: 0 33<-97.7416 -32.8776> 323 33<32.2793 99.4023>
LayerCount: 2
Fore
SplineSet
323 67 m 256,0,1
 323 84 323 84 310 96.5 c 256,2,3
 297 109 297 109 280 109 c 256,4,5
 251 109 251 109 159 49 c 256,6,7
 67 -11 67 -11 44 -38 c 256,8,9
 33 -51 33 -51 33 -67 c 256,10,11
 33 -84 33 -84 45.5 -96.5 c 256,12,13
 58 -109 58 -109 76 -109 c 256,14,15
 105 -109 105 -109 197.5 -49 c 256,16,17
 290 11 290 11 312 38 c 257,18,19
 323 50 323 50 323 67 c 256,0,1
270 141 m 256,20,21
 356 141 356 141 356 67 c 256,22,23
 356 31 356 31 335 -17 c 256,24,25
 314 -65 314 -65 279 -89 c 256,26,27
 201 -141 201 -141 86 -141 c 256,28,29
 0 -141 0 -141 0 -67 c 256,30,31
 0 -33 0 -33 21 16 c 256,32,33
 42 65 42 65 77 89 c 256,34,35
 155 141 155 141 270 141 c 256,20,21
EndSplineSet
EndChar

StartChar: noteheads.s2
Encoding: 325 57645 69
Width: 336
Flags: W
HStem: -141 282<128.962 208.038>
VStem: 0 337<-24.7771 24.7771>
LayerCount: 2
Fore
SplineSet
225 141 m 256,0,1
 275 141 275 141 306 115.5 c 256,2,3
 337 90 337 90 337 48 c 256,4,5
 337 -21 337 -21 265.5 -81 c 256,6,7
 194 -141 194 -141 112 -141 c 256,8,9
 62 -141 62 -141 31 -115.5 c 256,10,11
 0 -90 0 -90 0 -48 c 256,12,13
 0 21 0 21 71.5 81 c 256,14,15
 143 141 143 141 225 141 c 256,0,1
EndSplineSet
EndChar

StartChar: noteheads.s0diamond
Encoding: 326 57646 70
Width: 506
Flags: W
HStem: -141 64<216.784 312.392> -54.5 108.5<21.1443 137.15 368.241 485.856> 77 64<195.577 289.955>
VStem: 0 188<-37.78 37.3434> 318 189<-37.3434 37.78>
LayerCount: 2
Fore
SplineSet
215 77 m 256,0,1
 201 77 201 77 194.5 63 c 256,2,3
 188 49 188 49 188 1 c 256,4,5
 188 -33 188 -33 201 -44.5 c 256,6,7
 214 -56 214 -56 251 -68 c 256,8,9
 281 -77 281 -77 292 -77 c 256,10,11
 306 -77 306 -77 312 -63 c 256,12,13
 318 -49 318 -49 318 -1 c 256,14,15
 318 33 318 33 305.5 44.5 c 256,16,17
 293 56 293 56 256 68 c 256,18,19
 226 77 226 77 215 77 c 256,0,1
507 0 m 256,20,21
 507 -27 507 -27 486.5 -37.5 c 256,22,23
 466 -48 466 -48 430.5 -54 c 256,24,25
 395 -60 395 -60 379 -70 c 257,26,27
 364 -78 364 -78 340.5 -97.5 c 256,28,29
 317 -117 317 -117 296.5 -129 c 256,30,31
 276 -141 276 -141 253.5 -141 c 256,32,33
 231 -141 231 -141 210 -129 c 256,34,35
 189 -117 189 -117 165.5 -97.5 c 256,36,37
 142 -78 142 -78 128 -70 c 256,38,39
 112 -61 112 -61 76.5 -54.5 c 256,40,41
 41 -48 41 -48 20.5 -37.5 c 256,42,43
 0 -27 0 -27 0 0 c 256,44,45
 0 27 0 27 20.5 37.5 c 256,46,47
 41 48 41 48 76.5 54 c 256,48,49
 112 60 112 60 128 70 c 256,50,51
 132 72 132 72 178 106.5 c 256,52,53
 224 141 224 141 254 141 c 256,54,55
 277 141 277 141 297 129 c 256,56,57
 317 117 317 117 340.5 97.5 c 256,58,59
 364 78 364 78 379 70 c 256,60,61
 395 61 395 61 430.5 54.5 c 256,62,63
 466 48 466 48 486.5 37.5 c 256,64,65
 507 27 507 27 507 0 c 256,20,21
EndSplineSet
EndChar

StartChar: noteheads.s1diamond
Encoding: 327 57647 71
Width: 372
Flags: W
HStem: -108 25<108.781 141.011> 83 25<230.989 263.027>
VStem: 0 74<-107 -49.1146> 299 74<49.1146 117.586>
LayerCount: 2
Fore
SplineSet
299 56 m 256,0,1
 299 83 299 83 269 83 c 256,2,3
 244 83 244 83 173 37 c 256,4,5
 102 -9 102 -9 83 -32 c 256,6,7
 74 -43 74 -43 74 -56 c 256,8,9
 74 -83 74 -83 103 -83 c 256,10,11
 128 -83 128 -83 199 -37 c 256,12,13
 270 9 270 9 290 32 c 256,14,15
 299 43 299 43 299 56 c 256,0,1
331 141 m 256,16,17
 349 141 349 141 361 128 c 256,18,19
 373 115 373 115 373 99 c 256,20,21
 373 83 373 83 353.5 53.5 c 256,22,23
 334 24 334 24 330 11.5 c 256,24,25
 326 -1 326 -1 324 -27.5 c 256,26,27
 322 -54 322 -54 318.5 -70 c 256,28,29
 315 -86 315 -86 297 -100 c 256,30,31
 279 -114 279 -114 245 -114 c 256,32,33
 233 -114 233 -114 205.5 -111 c 256,34,35
 178 -108 178 -108 165 -108 c 256,36,37
 139 -108 139 -108 99 -124 c 256,38,39
 59 -140 59 -140 42 -140 c 256,40,41
 24 -140 24 -140 12 -127.5 c 256,42,43
 0 -115 0 -115 0 -99 c 256,44,45
 0 -83 0 -83 19.5 -53.5 c 256,46,47
 39 -24 39 -24 43 -11.5 c 256,48,49
 47 1 47 1 49 27.5 c 256,50,51
 51 54 51 54 54 70 c 256,52,53
 57 86 57 86 75.5 100 c 256,54,55
 94 114 94 114 128 114 c 256,56,57
 140 114 140 114 167.5 111 c 256,58,59
 195 108 195 108 208 108 c 256,60,61
 234 108 234 108 274 124.5 c 256,62,63
 314 141 314 141 331 141 c 256,16,17
EndSplineSet
EndChar

StartChar: noteheads.s2diamond
Encoding: 328 57648 72
Width: 377
Flags: W
HStem: -128 268<104 216.182>
LayerCount: 2
Fore
SplineSet
339 141 m 256,0,1
 359 141 359 141 368.5 127.5 c 256,2,3
 378 114 378 114 378 101 c 256,4,5
 378 79 378 79 338.5 45.5 c 256,6,7
 299 12 299 12 290 -3 c 256,8,9
 284 -13 284 -13 266.5 -54.5 c 256,10,11
 249 -96 249 -96 230 -118 c 256,12,13
 211 -140 211 -140 184 -140 c 256,14,15
 173 -140 173 -140 148 -134 c 256,16,17
 123 -128 123 -128 110 -128 c 256,18,19
 98 -128 98 -128 73 -134.5 c 256,20,21
 48 -141 48 -141 38 -141 c 256,22,23
 18 -141 18 -141 9 -127.5 c 256,24,25
 0 -114 0 -114 0 -101 c 256,26,27
 0 -79 0 -79 39.5 -45.5 c 256,28,29
 79 -12 79 -12 88 3 c 256,30,31
 94 14 94 14 111.5 55 c 256,32,33
 129 96 129 96 147.5 118 c 256,34,35
 166 140 166 140 193 140 c 256,36,37
 204 140 204 140 229 134 c 256,38,39
 254 128 254 128 267 128 c 256,40,41
 279 128 279 128 304 134.5 c 256,42,43
 329 141 329 141 339 141 c 256,0,1
EndSplineSet
EndChar

StartChar: noteheads.s0triangle
Encoding: 329 57649 73
Width: 592
Flags: W
HStem: 17 45<502.654 592.91>
VStem: 105 75<-112.862 22.0241>
LayerCount: 2
Fore
SplineSet
134 85 m 257,0,1
 180 3.76596 180 3.76596 180 -113 c 257,2,3
 282 -27 282 -27 406 19 c 257,4,5
 262 38 262 38 134 85 c 257,0,1
0 164 m 256,6,7
 0 176 0 176 15 181.5 c 256,8,9
 30 187 30 187 44 187 c 256,10,11
 47 187 47 187 73 174.5 c 256,12,13
 99 162 99 162 143.5 143.5 c 256,14,15
 188 125 188 125 245.5 106.5 c 256,16,17
 303 88 303 88 384.5 75 c 256,18,19
 466 62 466 62 551 62 c 258,20,-1
 556 62 l 258,21,22
 570 62 570 62 581.5 55.5 c 256,23,24
 593 49 593 49 593 38 c 256,25,26
 593 26 593 26 570 17 c 256,27,28
 547 8 547 8 504 -5 c 256,29,30
 461 -18 461 -18 409 -38.5 c 256,31,32
 357 -59 357 -59 288 -106.5 c 256,33,34
 219 -154 219 -154 157 -219 c 256,35,36
 152 -224 152 -224 141 -224 c 256,37,38
 95 -224 95 -224 95 -201 c 257,39,-1
 96 -196 l 258,40,41
 97 -191 97 -191 98.5 -182 c 256,42,43
 100 -173 100 -173 101.5 -162.5 c 256,44,45
 103 -152 103 -152 104 -137.5 c 256,46,47
 105 -123 105 -123 105 -110 c 256,48,49
 105 31 105 31 16 140 c 256,50,51
 14 142 14 142 9 147 c 256,52,53
 4 152 4 152 2 155.5 c 256,54,55
 0 159 0 159 0 164 c 256,6,7
EndSplineSet
EndChar

StartChar: noteheads.d1triangle
Encoding: 330 57650 74
Width: 428
Flags: W
HStem: 7 51<345.588 427.173>
VStem: 76 60<-89 34.0162>
LayerCount: 2
Fore
SplineSet
104 71 m 257,0,1
 136 -4 136 -4 136 -89 c 257,2,3
 198 -27 198 -27 285 16 c 257,4,5
 187 33 187 33 104 71 c 257,0,1
0 145 m 256,6,7
 0 155 0 155 9.5 162 c 256,8,9
 19 169 19 169 33 169 c 256,10,11
 38 169 38 169 68 151.5 c 256,12,13
 98 134 98 134 138 113.5 c 256,14,15
 178 93 178 93 249.5 75.5 c 256,16,17
 321 58 321 58 398 58 c 256,18,19
 410 58 410 58 419 51 c 256,20,21
 428 44 428 44 428 34 c 256,22,23
 428 20 428 20 400 7 c 256,24,25
 372 -6 372 -6 330.5 -20.5 c 256,26,27
 289 -35 289 -35 230 -80 c 256,28,29
 171 -125 171 -125 122 -193 c 256,30,31
 116 -202 116 -202 100 -202 c 256,32,33
 87 -202 87 -202 77.5 -195 c 256,34,35
 68 -188 68 -188 68 -177 c 256,36,37
 68 -175 68 -175 70 -165 c 256,38,39
 72 -155 72 -155 74 -136.5 c 256,40,41
 76 -118 76 -118 76 -96 c 256,42,43
 76 -30 76 -30 57 25.5 c 256,44,45
 38 81 38 81 19 111 c 256,46,47
 0 141 0 141 0 145 c 256,6,7
EndSplineSet
EndChar

StartChar: noteheads.u1triangle
Encoding: 331 57651 75
Width: 428
Flags: W
HStem: 7 51<345.588 427.173>
VStem: 76 60<-89 34.0162>
LayerCount: 2
Fore
SplineSet
104 71 m 257,0,1
 136 -4 136 -4 136 -89 c 257,2,3
 198 -27 198 -27 285 16 c 257,4,5
 187 33 187 33 104 71 c 257,0,1
0 145 m 256,6,7
 0 155 0 155 9.5 162 c 256,8,9
 19 169 19 169 33 169 c 256,10,11
 38 169 38 169 68 151.5 c 256,12,13
 98 134 98 134 138 113.5 c 256,14,15
 178 93 178 93 249.5 75.5 c 256,16,17
 321 58 321 58 398 58 c 256,18,19
 410 58 410 58 419 51 c 256,20,21
 428 44 428 44 428 34 c 256,22,23
 428 20 428 20 400 7 c 256,24,25
 372 -6 372 -6 330.5 -20.5 c 256,26,27
 289 -35 289 -35 230 -80 c 256,28,29
 171 -125 171 -125 122 -193 c 256,30,31
 116 -202 116 -202 100 -202 c 256,32,33
 87 -202 87 -202 77.5 -195 c 256,34,35
 68 -188 68 -188 68 -177 c 256,36,37
 68 -175 68 -175 70 -165 c 256,38,39
 72 -155 72 -155 74 -136.5 c 256,40,41
 76 -118 76 -118 76 -96 c 256,42,43
 76 -30 76 -30 57 25.5 c 256,44,45
 38 81 38 81 19 111 c 256,46,47
 0 141 0 141 0 145 c 256,6,7
EndSplineSet
EndChar

StartChar: noteheads.u2triangle
Encoding: 332 57652 76
Width: 356
Flags: W
VStem: 56 300<-55.1777 57.9359>
LayerCount: 2
Fore
SplineSet
56 -177 m 256,0,1
 56 -175 56 -175 57.5 -164.5 c 256,2,3
 59 -154 59 -154 61 -135.5 c 256,4,5
 63 -117 63 -117 63 -95 c 256,6,7
 63 -32 63 -32 47.5 23 c 256,8,9
 32 78 32 78 16 108.5 c 256,10,11
 0 139 0 139 0 143 c 256,12,13
 0 153 0 153 7 161 c 256,14,15
 14 169 14 169 26 169 c 256,16,17
 31 169 31 169 56.5 151.5 c 256,18,19
 82 134 82 134 115 113.5 c 256,20,21
 148 93 148 93 207.5 75.5 c 256,22,23
 267 58 267 58 332 58 c 256,24,25
 342 58 342 58 349 50.5 c 256,26,27
 356 43 356 43 356 33 c 256,28,29
 356 18 356 18 341.5 10.5 c 256,30,31
 327 3 327 3 286.5 -16.5 c 256,32,33
 246 -36 246 -36 205 -71 c 256,34,35
 173 -98 173 -98 150 -125 c 256,36,37
 127 -152 127 -152 119 -167 c 256,38,39
 111 -182 111 -182 101.5 -192 c 256,40,41
 92 -202 92 -202 82 -202 c 256,42,43
 71 -202 71 -202 63.5 -194.5 c 256,44,45
 56 -187 56 -187 56 -177 c 256,0,1
EndSplineSet
EndChar

StartChar: noteheads.d2triangle
Encoding: 333 57653 77
Width: 356
Flags: W
VStem: 56 300<-55.1777 57.9359>
LayerCount: 2
Fore
SplineSet
56 -177 m 256,0,1
 56 -175 56 -175 57.5 -164.5 c 256,2,3
 59 -154 59 -154 61 -135.5 c 256,4,5
 63 -117 63 -117 63 -95 c 256,6,7
 63 -32 63 -32 47.5 23 c 256,8,9
 32 78 32 78 16 108.5 c 256,10,11
 0 139 0 139 0 143 c 256,12,13
 0 153 0 153 7 161 c 256,14,15
 14 169 14 169 26 169 c 256,16,17
 31 169 31 169 56.5 151.5 c 256,18,19
 82 134 82 134 115 113.5 c 256,20,21
 148 93 148 93 207.5 75.5 c 256,22,23
 267 58 267 58 332 58 c 256,24,25
 342 58 342 58 349 50.5 c 256,26,27
 356 43 356 43 356 33 c 256,28,29
 356 18 356 18 341.5 10.5 c 256,30,31
 327 3 327 3 286.5 -16.5 c 256,32,33
 246 -36 246 -36 205 -71 c 256,34,35
 173 -98 173 -98 150 -125 c 256,36,37
 127 -152 127 -152 119 -167 c 256,38,39
 111 -182 111 -182 101.5 -192 c 256,40,41
 92 -202 92 -202 82 -202 c 256,42,43
 71 -202 71 -202 63.5 -194.5 c 256,44,45
 56 -187 56 -187 56 -177 c 256,0,1
EndSplineSet
EndChar

StartChar: noteheads.s0slash
Encoding: 334 57654 78
Width: 773
Flags: W
HStem: -269 71<120 411> 198 71<360 652>
DStem2: 1 -253 120 -198 0.521517 0.853241<108.989 572.036> 411 -198 455 -264 0.520314 0.853975<0 463.57>
LayerCount: 2
Fore
SplineSet
120 -198 m 257,0,-1
 411 -198 l 257,1,-1
 652 198 l 257,2,-1
 360 198 l 257,3,-1
 120 -198 l 257,0,-1
10 -269 m 258,4,5
 0 -269 0 -269 0 -258 c 256,6,7
 0 -255 0 -255 1 -253 c 258,8,-1
 317 264 l 258,9,10
 320 269 320 269 327 269 c 258,11,-1
 762 269 l 258,12,13
 772 269 772 269 772 258 c 256,14,15
 772 257 772 257 770 253 c 258,16,-1
 455 -264 l 258,17,18
 452 -269 452 -269 445 -269 c 258,19,-1
 10 -269 l 258,4,5
EndSplineSet
EndChar

StartChar: noteheads.s1slash
Encoding: 335 57655 79
Width: 601
Flags: W
HStem: -269 71<120 240> 198 71<360 480>
DStem2: 1 -253 120 -198 0.521517 0.853241<108.989 572.036> 240 -198 283 -264 0.521517 0.853241<0 463.047>
LayerCount: 2
Fore
SplineSet
120 -198 m 257,0,-1
 240 -198 l 257,1,-1
 480 198 l 257,2,-1
 360 198 l 257,3,-1
 120 -198 l 257,0,-1
10 -269 m 258,4,5
 0 -269 0 -269 0 -258 c 256,6,7
 0 -255 0 -255 1 -253 c 258,8,-1
 317 264 l 258,9,10
 320 269 320 269 327 269 c 258,11,-1
 590 269 l 258,12,13
 600 269 600 269 600 258 c 256,14,15
 600 255 600 255 599 253 c 258,16,-1
 283 -264 l 258,17,18
 280 -269 280 -269 273 -269 c 258,19,-1
 10 -269 l 258,4,5
EndSplineSet
EndChar

StartChar: noteheads.s2slash
Encoding: 336 57656 80
Width: 439
Flags: W
DStem2: 1 -253 122 -264 0.521517 0.853241<34.6862 625.38>
LayerCount: 2
Fore
SplineSet
10 -269 m 258,0,1
 0 -269 0 -269 0 -258 c 256,2,3
 0 -255 0 -255 1 -253 c 258,4,-1
 317 264 l 258,5,6
 320 269 320 269 327 269 c 258,7,-1
 429 269 l 258,8,9
 439 269 439 269 439 258 c 256,10,11
 439 257 439 257 437 253 c 258,12,-1
 122 -264 l 258,13,14
 119 -269 119 -269 113 -269 c 258,15,-1
 10 -269 l 258,0,1
EndSplineSet
EndChar

StartChar: noteheads.s0cross
Encoding: 337 57657 81
Width: 439
Flags: W
HStem: -77 34<203 237> 43 34<203 237>
VStem: 106 44<-22 22> 290 43<-21.5 21.5>
DStem2: 7 93 43 80 0.826022 0.563638<22.4095 92.8643> 43 80 7 68 0.827688 -0.561188<0 97.0394 234.607 356.406> 7 -68 43 -80 0.827688 0.561188<23.0625 120.102 257.67 379.468> 43 -80 7 -93 0.826022 -0.563638<0 70.4548> 110 151 101 120 0.826879 -0.56238<9.99188 132.573 269.313 366.397> 101 -120 110 -151 0.826879 0.56238<0 122.581 259.322 356.405> 347 151 338 120 0.826022 -0.563638<10.0386 80.4934> 338 -120 347 -151 0.826022 0.563638<0 70.4548>
LayerCount: 2
Fore
SplineSet
228 45 m 258,0,1
 225 43 225 43 220 43 c 256,2,3
 215 43 215 43 212 45 c 258,4,-1
 101 120 l 257,5,-1
 43 80 l 257,6,-1
 142 12 l 258,7,8
 150 6 150 6 150 0 c 256,9,10
 150 -6 150 -6 142 -12 c 258,11,-1
 43 -80 l 257,12,-1
 101 -120 l 257,13,-1
 212 -45 l 258,14,15
 215 -43 215 -43 220 -43 c 256,16,17
 225 -43 225 -43 228 -45 c 258,18,-1
 338 -120 l 257,19,-1
 396 -80 l 257,20,-1
 298 -12 l 258,21,22
 290 -6 290 -6 290 0 c 256,23,24
 290 6 290 6 298 12 c 258,25,-1
 396 80 l 257,26,-1
 338 120 l 257,27,-1
 228 45 l 258,0,1
220 77 m 257,28,-1
 330 151 l 258,29,30
 333 154 333 154 338 154 c 256,31,32
 344 154 344 154 347 151 c 258,33,-1
 432 93 l 258,34,35
 439 88 439 88 439 80 c 256,36,37
 439 73 439 73 432 68 c 258,38,-1
 333 0 l 257,39,-1
 432 -68 l 258,40,41
 439 -73 439 -73 439 -80 c 256,42,43
 439 -88 439 -88 432 -93 c 258,44,-1
 347 -151 l 258,45,46
 344 -154 344 -154 338 -154 c 256,47,48
 333 -154 333 -154 330 -151 c 258,49,-1
 220 -77 l 257,50,-1
 110 -151 l 258,51,52
 107 -154 107 -154 101 -154 c 256,53,54
 95 -154 95 -154 92 -151 c 258,55,-1
 7 -93 l 258,56,57
 0 -88 0 -88 0 -80 c 256,58,59
 0 -73 0 -73 7 -68 c 258,60,-1
 106 0 l 257,61,-1
 7 68 l 258,62,63
 0 73 0 73 0 80 c 256,64,65
 0 88 0 88 7 93 c 258,66,-1
 92 151 l 258,67,68
 95 154 95 154 101 154 c 256,69,70
 106 154 106 154 110 151 c 258,71,-1
 220 77 l 257,28,-1
EndSplineSet
EndChar

StartChar: noteheads.s1cross
Encoding: 338 57658 82
Width: 388
Flags: W
HStem: -67 34<177 211> 33 34<177 211>
VStem: 103 41<-20.5 20.5> 244 41<-20.5 20.5>
DStem2: 6 96 41 84 0.804433 0.594043<21.0266 69.6268> 41 84 6 72 0.804918 -0.593386<0 99.7494 212.754 331.81> 6 -72 41 -84 0.804918 0.593386<21.0515 120.801 233.805 352.862> 41 -84 6 -96 0.804433 -0.594043<0 48.6001> 89 144 80 113 0.804918 -0.593386<11.1507 130.207 243.212 342.961> 80 -113 89 -144 0.804918 0.593386<0 119.056 232.061 331.81> 317 144 308 113 0.804433 -0.594043<11.1754 59.7756> 308 -113 317 -144 0.804433 0.594043<0 48.6001>
LayerCount: 2
Fore
SplineSet
203 36 m 258,0,1
 199 33 199 33 194 33 c 256,2,3
 189 33 189 33 185 36 c 258,4,-1
 80 113 l 257,5,-1
 41 84 l 257,6,-1
 138 12 l 258,7,8
 144 6 144 6 144 0 c 256,9,10
 144 -6 144 -6 138 -12 c 258,11,-1
 41 -84 l 257,12,-1
 80 -113 l 257,13,-1
 185 -36 l 258,14,15
 189 -33 189 -33 194 -33 c 256,16,17
 199 -33 199 -33 203 -36 c 258,18,-1
 308 -113 l 257,19,-1
 347 -84 l 257,20,-1
 250 -12 l 258,21,22
 244 -6 244 -6 244 0 c 256,23,24
 244 6 244 6 250 12 c 258,25,-1
 347 84 l 257,26,-1
 308 113 l 257,27,-1
 203 36 l 258,0,1
194 67 m 257,28,-1
 299 144 l 258,29,30
 303.091 147 303.091 147 308 147 c 256,31,32
 312.938 147 312.938 147 317 144 c 258,33,-1
 382 96 l 258,34,35
 388 91.5692 388 91.5692 388 84 c 256,36,37
 388 76.4536 388 76.4536 382 72 c 258,38,-1
 285 0 l 257,39,-1
 382 -72 l 258,40,41
 388 -76.4536 388 -76.4536 388 -84 c 256,42,43
 388 -91.5692 388 -91.5692 382 -96 c 258,44,-1
 317 -144 l 258,45,46
 312.938 -147 312.938 -147 308 -147 c 256,47,48
 303.091 -147 303.091 -147 299 -144 c 258,49,-1
 194 -67 l 257,50,-1
 89 -144 l 258,51,52
 84.9091 -147 84.9091 -147 80 -147 c 256,53,54
 75.0625 -147 75.0625 -147 71 -144 c 258,55,-1
 6 -96 l 258,56,57
 0 -91.5692 0 -91.5692 0 -84 c 256,58,59
 0 -76.4536 0 -76.4536 6 -72 c 258,60,-1
 103 0 l 257,61,-1
 6 72 l 258,62,63
 0 76.4536 0 76.4536 0 84 c 256,64,65
 0 91.5692 0 91.5692 6 96 c 258,66,-1
 71 144 l 258,67,68
 75.0625 147 75.0625 147 80 147 c 256,69,70
 84.9091 147 84.9091 147 89 144 c 258,71,-1
 194 67 l 257,28,-1
EndSplineSet
EndChar

StartChar: noteheads.s2cross
Encoding: 339 57659 83
Width: 336
Flags: W
HStem: -141 282<32 39 298 305>
VStem: 124 89<-44.5 44.5>
DStem2: 169 37 5 97 0.775039 -0.631913<-168.725 -11.496 57.4825 214.712> 5 -97 45 -137 0.775039 0.631913<-3.70413 153.525 222.504 379.733>
LayerCount: 2
Fore
SplineSet
169 37 m 257,0,-1
 292 137 l 258,1,2
 298 141 298 141 301 141 c 256,3,4
 305 141 305 141 311 137 c 258,5,-1
 332 121 l 258,6,7
 337 116 337 116 337 109 c 256,8,9
 337 103 337 103 332 97 c 258,10,-1
 213 0 l 257,11,-1
 332 -97 l 258,12,13
 337 -102 337 -102 337 -109 c 256,14,15
 337 -116 337 -116 332 -121 c 258,16,-1
 311 -137 l 258,17,18
 305 -141 305 -141 301 -141 c 256,19,20
 298 -141 298 -141 292 -137 c 258,21,-1
 169 -37 l 257,22,-1
 45 -137 l 258,23,24
 39 -141 39 -141 36 -141 c 256,25,26
 32 -141 32 -141 26 -137 c 258,27,-1
 5 -121 l 258,28,29
 0 -116 0 -116 0 -109 c 256,30,31
 0 -103 0 -103 5 -97 c 258,32,-1
 124 0 l 257,33,-1
 5 97 l 258,34,35
 0 102 0 102 0 109 c 256,36,37
 0 116 0 116 5 121 c 258,38,-1
 26 137 l 258,39,40
 32 141 32 141 36 141 c 256,41,42
 39 141 39 141 45 137 c 258,43,-1
 169 37 l 257,0,-1
EndSplineSet
EndChar

StartChar: noteheads.s2xcircle
Encoding: 340 57660 84
Width: 400
Flags: W
HStem: -177 38<119.059 281.821> 139 38<119.059 281.668>
VStem: 0 37<-62.7466 62.7466> 172 56<-28 28> 364 36<-63.9496 63.9496>
DStem2: 101 111 73 87 0.755033 -0.655687<0 126.389 168.67 295.059> 73 -87 101 -111 0.755033 0.655687<5.40445 131.793 174.075 300.463>
LayerCount: 2
Fore
SplineSet
201 177 m 256,0,1
 283 177 283 177 341.5 125.5 c 256,2,3
 400 74 400 74 400 0 c 256,4,5
 400 -74 400 -74 341.5 -125.5 c 256,6,7
 283 -177 283 -177 201 -177 c 256,8,9
 118 -177 118 -177 59 -125.5 c 256,10,11
 0 -74 0 -74 0 0 c 256,12,13
 0 74 0 74 59 125.5 c 256,14,15
 118 177 118 177 201 177 c 256,0,1
201 25 m 257,16,-1
 299 111 l 257,17,18
 254 139 254 139 201 139 c 256,19,20
 147 139 147 139 101 111 c 257,21,-1
 201 25 l 257,16,-1
172 0 m 257,22,-1
 73 87 l 257,23,24
 37 48 37 48 37 0 c 256,25,26
 37 -48 37 -48 73 -87 c 257,27,-1
 172 0 l 257,22,-1
228 0 m 257,28,-1
 329 -87 l 257,29,30
 364 -49 364 -49 364 0 c 256,31,32
 364 49 364 49 329 87 c 257,33,-1
 228 0 l 257,28,-1
201 -25 m 257,34,-1
 101 -111 l 257,35,36
 147 -139 147 -139 201 -139 c 256,37,38
 255 -139 255 -139 299 -111 c 257,39,-1
 201 -25 l 257,34,-1
EndSplineSet
EndChar

StartChar: noteheads.s0do
Encoding: 341 57661 85
Width: 506
Flags: W
HStem: -115 44<86 421>
DStem2: 8 -76 86 -71 0.778572 0.627556<63.8664 280.014> 267 111 254 65 0.778572 -0.627556<18.7461 234.115>
LayerCount: 2
Fore
SplineSet
86 -71 m 257,0,-1
 421 -71 l 257,1,-1
 254 65 l 257,2,-1
 86 -71 l 257,0,-1
23 -115 m 258,3,4
 14 -115 14 -115 7 -108.5 c 256,5,6
 0 -102 0 -102 0 -93 c 256,7,8
 0 -82 0 -82 8 -76 c 258,9,-1
 240 111 l 258,10,11
 245 115 245 115 254 115 c 256,12,13
 262 115 262 115 267 111 c 258,14,-1
 499 -76 l 258,15,16
 507 -82 507 -82 507 -93 c 256,17,18
 507 -102 507 -102 500.5 -108.5 c 256,19,20
 494 -115 494 -115 484 -115 c 258,21,-1
 23 -115 l 258,3,4
EndSplineSet
EndChar

StartChar: noteheads.d1do
Encoding: 342 57662 86
Width: 355
Flags: W
HStem: -115 44<71 286>
DStem2: 5 -79 71 -71 0.640588 0.767885<48.4219 216.022> 196 108 178 58 0.635707 -0.77193<27.1538 195.389>
LayerCount: 2
Fore
SplineSet
71 -71 m 257,0,-1
 286 -71 l 257,1,-1
 178 58 l 257,2,-1
 71 -71 l 257,0,-1
23 -115 m 258,3,4
 14 -115 14 -115 7 -108.5 c 256,5,6
 0 -102 0 -102 0 -93 c 256,7,8
 0 -86 0 -86 5 -79 c 258,9,-1
 161 108 l 258,10,11
 167 116 167 116 178 116 c 256,12,13
 189 116 189 116 196 108 c 258,14,-1
 350 -79 l 258,15,16
 355 -86 355 -86 355 -93 c 256,17,18
 355 -102 355 -102 349 -108.5 c 256,19,20
 343 -115 343 -115 334 -115 c 258,21,-1
 23 -115 l 258,3,4
EndSplineSet
EndChar

StartChar: noteheads.u1do
Encoding: 343 57663 87
Width: 355
Flags: W
HStem: -115 44<71 286>
DStem2: 5 -79 71 -71 0.640588 0.767885<48.4219 216.022> 196 108 178 58 0.635707 -0.77193<27.1538 195.389>
LayerCount: 2
Fore
SplineSet
71 -71 m 257,0,-1
 286 -71 l 257,1,-1
 178 58 l 257,2,-1
 71 -71 l 257,0,-1
23 -115 m 258,3,4
 14 -115 14 -115 7 -108.5 c 256,5,6
 0 -102 0 -102 0 -93 c 256,7,8
 0 -86 0 -86 5 -79 c 258,9,-1
 161 108 l 258,10,11
 167 116 167 116 178 116 c 256,12,13
 189 116 189 116 196 108 c 258,14,-1
 350 -79 l 258,15,16
 355 -86 355 -86 355 -93 c 256,17,18
 355 -102 355 -102 349 -108.5 c 256,19,20
 343 -115 343 -115 334 -115 c 258,21,-1
 23 -115 l 258,3,4
EndSplineSet
EndChar

StartChar: noteheads.d2do
Encoding: 344 57664 88
Width: 336
Flags: W
HStem: -115 231<141.875 196.062>
VStem: 0 337<-108.296 -58.7656>
LayerCount: 2
Fore
SplineSet
23 -115 m 258,0,1
 14 -115 14 -115 7 -108.5 c 256,2,3
 0 -102 0 -102 0 -93 c 256,4,5
 0 -85.3356 0 -85.3356 5 -79 c 258,6,-1
 151 106 l 258,7,8
 159 116 159 116 169 116 c 256,9,10
 179 116 179 116 187 106 c 258,11,-1
 332 -79 l 258,12,13
 337 -85.3793 337 -85.3793 337 -93 c 256,14,15
 337 -102 337 -102 330.5 -108.5 c 256,16,17
 324 -115 324 -115 314 -115 c 258,18,-1
 23 -115 l 258,0,1
EndSplineSet
EndChar

StartChar: noteheads.u2do
Encoding: 345 57665 89
Width: 336
Flags: W
HStem: -115 231<141.875 196.062>
VStem: 0 337<-108.296 -58.7656>
LayerCount: 2
Fore
SplineSet
23 -115 m 258,0,1
 14 -115 14 -115 7 -108.5 c 256,2,3
 0 -102 0 -102 0 -93 c 256,4,5
 0 -85.3356 0 -85.3356 5 -79 c 258,6,-1
 151 106 l 258,7,8
 159 116 159 116 169 116 c 256,9,10
 179 116 179 116 187 106 c 258,11,-1
 332 -79 l 258,12,13
 337 -85.3793 337 -85.3793 337 -93 c 256,14,15
 337 -102 337 -102 330.5 -108.5 c 256,16,17
 324 -115 324 -115 314 -115 c 258,18,-1
 23 -115 l 258,0,1
EndSplineSet
EndChar

StartChar: noteheads.s0re
Encoding: 346 57666 90
Width: 506
Flags: W
HStem: -115 44<114.583 392.943> 71 44<45 462>
VStem: 0 45<-19.9531 71> 462 45<-22.2266 71>
LayerCount: 2
Fore
SplineSet
45 71 m 257,0,-1
 45 37 l 258,1,2
 45 -71 45 -71 254 -71 c 256,3,4
 462 -71 462 -71 462 37 c 258,5,-1
 462 71 l 257,6,-1
 45 71 l 257,0,-1
0 93 m 258,7,8
 0 102 0 102 6.5 108.5 c 256,9,10
 13 115 13 115 23 115 c 258,11,-1
 484 115 l 258,12,13
 493 115 493 115 500 108.5 c 256,14,15
 507 102 507 102 507 93 c 258,16,-1
 507 37 l 258,17,18
 507 -39 507 -39 432.5 -77 c 256,19,20
 358 -115 358 -115 254 -115 c 256,21,22
 150 -115 150 -115 75 -77 c 256,23,24
 0 -39 0 -39 0 37 c 258,25,-1
 0 93 l 258,7,8
EndSplineSet
EndChar

StartChar: noteheads.u1re
Encoding: 347 57667 91
Width: 355
Flags: W
HStem: -115 44<97.8687 258.986> 71 44<45 311>
VStem: 0 45<-23.25 71> 311 44<-23.1327 71>
LayerCount: 2
Fore
SplineSet
45 71 m 257,0,-1
 45 37 l 258,1,2
 45 -10 45 -10 84.5 -40.5 c 256,3,4
 124 -71 124 -71 178 -71 c 256,5,6
 232 -71 232 -71 271.5 -40.5 c 256,7,8
 311 -10 311 -10 311 37 c 258,9,-1
 311 71 l 257,10,-1
 45 71 l 257,0,-1
0 93 m 258,11,12
 0 102 0 102 6.5 108.5 c 256,13,14
 13 115 13 115 23 115 c 258,15,-1
 334 115 l 258,16,17
 343 115 343 115 349 108.5 c 256,18,19
 355 102 355 102 355 93 c 258,20,-1
 355 37 l 258,21,22
 355 -29 355 -29 303 -72 c 256,23,24
 251 -115 251 -115 178 -115 c 256,25,26
 105 -115 105 -115 52.5 -72 c 256,27,28
 0 -29 0 -29 0 37 c 258,29,-1
 0 93 l 258,11,12
EndSplineSet
EndChar

StartChar: noteheads.d1re
Encoding: 348 57668 92
Width: 355
Flags: W
HStem: -115 44<97.8687 258.986> 71 44<45 311>
VStem: 0 45<-23.25 71> 311 44<-23.1327 71>
LayerCount: 2
Fore
SplineSet
45 71 m 257,0,-1
 45 37 l 258,1,2
 45 -10 45 -10 84.5 -40.5 c 256,3,4
 124 -71 124 -71 178 -71 c 256,5,6
 232 -71 232 -71 271.5 -40.5 c 256,7,8
 311 -10 311 -10 311 37 c 258,9,-1
 311 71 l 257,10,-1
 45 71 l 257,0,-1
0 93 m 258,11,12
 0 102 0 102 6.5 108.5 c 256,13,14
 13 115 13 115 23 115 c 258,15,-1
 334 115 l 258,16,17
 343 115 343 115 349 108.5 c 256,18,19
 355 102 355 102 355 93 c 258,20,-1
 355 37 l 258,21,22
 355 -29 355 -29 303 -72 c 256,23,24
 251 -115 251 -115 178 -115 c 256,25,26
 105 -115 105 -115 52.5 -72 c 256,27,28
 0 -29 0 -29 0 37 c 258,29,-1
 0 93 l 258,11,12
EndSplineSet
EndChar

StartChar: noteheads.u2re
Encoding: 349 57669 93
Width: 336
Flags: W
HStem: -115 230<79.6279 258.114>
VStem: 0 337<-39.0532 108.296>
LayerCount: 2
Fore
SplineSet
0 93 m 258,0,1
 0 102 0 102 6.5 108.5 c 256,2,3
 13 115 13 115 23 115 c 258,4,-1
 314 115 l 258,5,6
 323 115 323 115 330 108.5 c 256,7,8
 337 102 337 102 337 93 c 258,9,-1
 337 37 l 258,10,11
 337 -28 337 -28 287.5 -71.5 c 256,12,13
 238 -115 238 -115 169 -115 c 256,14,15
 100 -115 100 -115 50 -71.5 c 256,16,17
 0 -28 0 -28 0 37 c 258,18,-1
 0 93 l 258,0,1
EndSplineSet
EndChar

StartChar: noteheads.d2re
Encoding: 350 57670 94
Width: 336
Flags: W
HStem: -115 230<79.6279 258.114>
VStem: 0 337<-39.0532 108.296>
LayerCount: 2
Fore
SplineSet
0 93 m 258,0,1
 0 102 0 102 6.5 108.5 c 256,2,3
 13 115 13 115 23 115 c 258,4,-1
 314 115 l 258,5,6
 323 115 323 115 330 108.5 c 256,7,8
 337 102 337 102 337 93 c 258,9,-1
 337 37 l 258,10,11
 337 -28 337 -28 287.5 -71.5 c 256,12,13
 238 -115 238 -115 169 -115 c 256,14,15
 100 -115 100 -115 50 -71.5 c 256,16,17
 0 -28 0 -28 0 37 c 258,18,-1
 0 93 l 258,0,1
EndSplineSet
EndChar

StartChar: noteheads.s0mi
Encoding: 351 57671 95
Width: 506
Flags: W
HStem: -115 230<248 259>
DStem2: 14 20 97 6 0.926248 0.376915<71.6018 224.236> 97 6 14 -20 0.926248 -0.376915<0 184.019> 493 20 239 62 0.926248 -0.376915<-251.097 -67.0788> 268 -62 262 -114 0.926248 0.376915<0 152.634>
LayerCount: 2
Fore
SplineSet
97 6 m 257,0,-1
 268 -62 l 257,1,-1
 410 -6 l 257,2,-1
 239 62 l 257,3,-1
 97 6 l 257,0,-1
14 -20 m 258,4,5
 0 -15 0 -15 0 0 c 256,6,7
 0 15 0 15 14 20 c 258,8,-1
 245 114 l 258,9,10
 248 115 248 115 254 115 c 256,11,12
 259 115 259 115 262 114 c 258,13,-1
 493 20 l 258,14,15
 507 15 507 15 507 0 c 256,16,17
 507 -15 507 -15 493 -20 c 258,18,-1
 262 -114 l 258,19,20
 259 -115 259 -115 254 -115 c 256,21,22
 248 -115 248 -115 245 -114 c 258,23,-1
 14 -20 l 258,4,5
EndSplineSet
EndChar

StartChar: noteheads.s1mi
Encoding: 352 57672 96
Width: 336
Flags: W
HStem: -115 230<163 174>
VStem: 0 337<-11 11>
DStem2: 10 18 75 6 0.84248 0.538728<48.2964 146.775> 75 6 10 -18 0.84248 -0.538728<0 122.635> 180 112 158 59 0.84248 -0.538728<10.0181 132.653> 179 -59 180 -112 0.84248 0.538728<0 98.4784>
LayerCount: 2
Fore
SplineSet
75 6 m 257,0,-1
 179 -59 l 257,1,-1
 262 -6 l 257,2,-1
 158 59 l 257,3,-1
 75 6 l 257,0,-1
10 -18 m 258,4,5
 0 -11 0 -11 0 0 c 256,6,7
 0 11 0 11 10 18 c 258,8,-1
 157 112 l 258,9,10
 163 115 163 115 169 115 c 256,11,12
 174 115 174 115 180 112 c 258,13,-1
 327 18 l 258,14,15
 337 11 337 11 337 0 c 256,16,17
 337 -11 337 -11 327 -18 c 258,18,-1
 180 -112 l 258,19,20
 174 -115 174 -115 169 -115 c 256,21,22
 163 -115 163 -115 157 -112 c 258,23,-1
 10 -18 l 258,4,5
EndSplineSet
EndChar

StartChar: noteheads.s2mi
Encoding: 353 57673 97
Width: 336
Flags: W
HStem: -115 230<127.141 209.859>
VStem: 0 337<-25.3438 25.3438>
LayerCount: 2
Fore
SplineSet
10 -18 m 258,0,1
 0 -11 0 -11 0 0 c 256,2,3
 0 11 0 11 10 18 c 258,4,-1
 157 112 l 258,5,6
 163 115 163 115 169 115 c 256,7,8
 174 115 174 115 180 112 c 258,9,-1
 327 18 l 258,10,11
 337 11 337 11 337 0 c 256,12,13
 337 -11 337 -11 327 -18 c 258,14,-1
 180 -112 l 258,15,16
 174 -115 174 -115 169 -115 c 256,17,18
 163 -115 163 -115 157 -112 c 258,19,-1
 10 -18 l 258,0,1
EndSplineSet
EndChar

StartChar: noteheads.u0fa
Encoding: 354 57674 98
Width: 506
Flags: W
HStem: 71 44<6.70398 14 138 462>
VStem: 462 45<-59 71>
DStem2: 138 71 14 72 0.927644 -0.373467<0 349.107>
LayerCount: 2
Fore
SplineSet
138 71 m 257,0,-1
 462 -59 l 257,1,-1
 462 71 l 257,2,-1
 138 71 l 257,0,-1
0 93 m 256,3,4
 0 102 0 102 6.5 108.5 c 256,5,6
 13 115 13 115 23 115 c 258,7,-1
 484 115 l 258,8,9
 493 115 493 115 500 108.5 c 256,10,11
 507 102 507 102 507 93 c 258,12,-1
 507 -93 l 258,13,14
 507 -102 507 -102 500.5 -108.5 c 256,15,16
 494 -115 494 -115 484 -115 c 256,17,18
 479 -115 479 -115 476 -114 c 258,19,-1
 14 72 l 258,20,21
 0 77 0 77 0 93 c 256,3,4
EndSplineSet
EndChar

StartChar: noteheads.d0fa
Encoding: 355 57675 99
Width: 506
Flags: W
HStem: -115 44<45 369 493 500.296>
VStem: 0 45<-71 59>
DStem2: 31 114 45 59 0.927644 -0.373467<33.5277 382.635>
LayerCount: 2
Fore
SplineSet
369 -71 m 257,0,-1
 45 59 l 257,1,-1
 45 -71 l 257,2,-1
 369 -71 l 257,0,-1
507 -93 m 256,3,4
 507 -102 507 -102 500.5 -108.5 c 256,5,6
 494 -115 494 -115 484 -115 c 258,7,-1
 23 -115 l 258,8,9
 14 -115 14 -115 7 -108.5 c 256,10,11
 0 -102 0 -102 0 -93 c 258,12,-1
 0 93 l 258,13,14
 0 102 0 102 6.5 108.5 c 256,15,16
 13 115 13 115 23 115 c 256,17,18
 28 115 28 115 31 114 c 258,19,-1
 493 -72 l 258,20,21
 507 -77 507 -77 507 -93 c 256,3,4
EndSplineSet
EndChar

StartChar: noteheads.u1fa
Encoding: 356 57676 100
Width: 355
Flags: W
HStem: 71 44<103 311>
VStem: 311 44<-53 71>
DStem2: 103 71 11 74 0.858223 -0.513278<0 242.157>
LayerCount: 2
Fore
SplineSet
103 71 m 257,0,-1
 311 -53 l 257,1,-1
 311 71 l 257,2,-1
 103 71 l 257,0,-1
0 93 m 256,3,4
 0 102 0 102 6.5 108.5 c 256,5,6
 13 115 13 115 23 115 c 258,7,-1
 334 115 l 258,8,9
 343 115 343 115 349 108.5 c 256,10,11
 355 102 355 102 355 93 c 258,12,-1
 355 -93 l 258,13,14
 355 -102 355 -102 349 -108.5 c 256,15,16
 343 -115 343 -115 334 -115 c 256,17,18
 326 -115 326 -115 322 -112 c 258,19,-1
 11 74 l 258,20,21
 0 80 0 80 0 93 c 256,3,4
EndSplineSet
EndChar

StartChar: noteheads.d1fa
Encoding: 357 57677 101
Width: 355
Flags: W
HStem: -115 44<45 252>
VStem: 0 45<-71 53>
DStem2: 40 108 45 53 0.858753 -0.512389<32.4752 273.773>
LayerCount: 2
Fore
SplineSet
252 -71 m 257,0,-1
 45 53 l 257,1,-1
 45 -71 l 257,2,-1
 252 -71 l 257,0,-1
355 -91 m 256,3,4
 355 -102 355 -102 349 -108.5 c 256,5,6
 343 -115 343 -115 334 -115 c 258,7,-1
 23 -115 l 258,8,9
 14 -115 14 -115 7 -108.5 c 256,10,11
 0 -102 0 -102 0 -93 c 258,12,-1
 0 93 l 258,13,14
 0 102 0 102 6.5 108.5 c 256,15,16
 13 115 13 115 23 115 c 256,17,18
 28 115 28 115 40 108 c 258,19,-1
 340 -71 l 258,20,21
 355 -80 355 -80 355 -91 c 256,3,4
EndSplineSet
EndChar

StartChar: noteheads.u2fa
Encoding: 358 57678 102
Width: 336
Flags: W
HStem: -115 230<274.625 330.296>
VStem: 0 337<68.1875 108.296>
LayerCount: 2
Fore
SplineSet
0 93 m 256,0,1
 0 102 0 102 6.5 108.5 c 256,2,3
 13 115 13 115 23 115 c 258,4,-1
 314 115 l 258,5,6
 323 115 323 115 330 108.5 c 256,7,8
 337 102 337 102 337 93 c 258,9,-1
 337 -93 l 258,10,11
 337 -102 337 -102 330.5 -108.5 c 256,12,13
 324 -115 324 -115 314 -115 c 256,14,15
 308 -115 308 -115 302 -112 c 258,16,-1
 10 74 l 258,17,18
 0 81 0 81 0 93 c 256,0,1
EndSplineSet
EndChar

StartChar: noteheads.d2fa
Encoding: 359 57679 103
Width: 336
Flags: W
HStem: -115 230<6.70398 62.375>
VStem: 0 337<-108.296 -68.1875>
LayerCount: 2
Fore
SplineSet
337 -93 m 256,0,1
 337 -102 337 -102 330.5 -108.5 c 256,2,3
 324 -115 324 -115 314 -115 c 258,4,-1
 23 -115 l 258,5,6
 14 -115 14 -115 7 -108.5 c 256,7,8
 0 -102 0 -102 0 -93 c 258,9,-1
 0 93 l 258,10,11
 0 102 0 102 6.5 108.5 c 256,12,13
 13 115 13 115 23 115 c 256,14,15
 29 115 29 115 35 112 c 258,16,-1
 327 -74 l 258,17,18
 337 -81 337 -81 337 -93 c 256,0,1
EndSplineSet
EndChar

StartChar: noteheads.s0la
Encoding: 360 57680 104
Width: 506
Flags: W
HStem: -115 44<45 462> 71 44<45 462>
VStem: 0 45<-71 71> 462 45<-71 71>
LayerCount: 2
Fore
SplineSet
45 71 m 257,0,-1
 45 -71 l 257,1,-1
 462 -71 l 257,2,-1
 462 71 l 257,3,-1
 45 71 l 257,0,-1
23 115 m 258,4,-1
 484 115 l 258,5,6
 493 115 493 115 500 108.5 c 256,7,8
 507 102 507 102 507 93 c 258,9,-1
 507 -93 l 258,10,11
 507 -102 507 -102 500.5 -108.5 c 256,12,13
 494 -115 494 -115 484 -115 c 258,14,-1
 23 -115 l 258,15,16
 14 -115 14 -115 7 -108.5 c 256,17,18
 0 -102 0 -102 0 -93 c 258,19,-1
 0 93 l 258,20,21
 0 102 0 102 7 108.5 c 256,22,23
 14 115 14 115 23 115 c 258,4,-1
EndSplineSet
EndChar

StartChar: noteheads.s1la
Encoding: 361 57681 105
Width: 355
Flags: W
HStem: -115 44<45 311> 71 44<45 311>
VStem: 0 45<-71 71> 311 44<-71 71>
LayerCount: 2
Fore
SplineSet
45 71 m 257,0,-1
 45 -71 l 257,1,-1
 311 -71 l 257,2,-1
 311 71 l 257,3,-1
 45 71 l 257,0,-1
23 115 m 258,4,-1
 334 115 l 258,5,6
 343 115 343 115 349 108.5 c 256,7,8
 355 102 355 102 355 93 c 258,9,-1
 355 -93 l 258,10,11
 355 -102 355 -102 349 -108.5 c 256,12,13
 343 -115 343 -115 334 -115 c 258,14,-1
 23 -115 l 258,15,16
 14 -115 14 -115 7 -108.5 c 256,17,18
 0 -102 0 -102 0 -93 c 258,19,-1
 0 93 l 258,20,21
 0 102 0 102 7 108.5 c 256,22,23
 14 115 14 115 23 115 c 258,4,-1
EndSplineSet
EndChar

StartChar: noteheads.s2la
Encoding: 362 57682 106
Width: 336
Flags: W
HStem: -115 230<7e-08 330.296>
VStem: 0 337<-108.296 114.994>
LayerCount: 2
Fore
SplineSet
23 115 m 258,0,-1
 314 115 l 258,1,2
 323 115 323 115 330 108.5 c 256,3,4
 337 102 337 102 337 93 c 258,5,-1
 337 -93 l 258,6,7
 337 -102 337 -102 330.5 -108.5 c 256,8,9
 324 -115 324 -115 314 -115 c 258,10,-1
 23 -115 l 258,11,12
 14 -115 14 -115 7 -108.5 c 256,13,14
 0 -102 0 -102 0 -93 c 258,15,-1
 0 93 l 258,16,17
 0 102 0 102 7 108.5 c 256,18,19
 14 115 14 115 23 115 c 258,0,-1
EndSplineSet
EndChar

StartChar: noteheads.s0ti
Encoding: 363 57683 107
Width: 506
Flags: W
HStem: 71 45<122.894 384.95>
DStem2: 70 27 12 6 0.889778 -0.456395<0 207.077> 254 -68 264 -113 0.888975 0.457957<0 206.188>
LayerCount: 2
Fore
SplineSet
254 -68 m 257,0,-1
 437 27 l 257,1,2
 349 71 349 71 254 71 c 256,3,4
 158 71 158 71 70 27 c 257,5,-1
 254 -68 l 257,0,-1
0 26 m 256,6,7
 0 51 0 51 83.5 83.5 c 256,8,9
 167 116 167 116 254 116 c 256,10,11
 382 116 382 116 495 46 c 256,12,13
 507 38 507 38 507 26 c 256,14,15
 507 12 507 12 495 6 c 258,16,-1
 264 -113 l 258,17,18
 261 -115 261 -115 254 -115 c 256,19,20
 247 -115 247 -115 244 -113 c 258,21,-1
 12 6 l 258,22,23
 0 12 0 12 0 26 c 256,6,7
EndSplineSet
EndChar

StartChar: noteheads.u1ti
Encoding: 364 57684 108
Width: 355
Flags: W
HStem: -115 50<153 203> 71 44<89.3475 266.905>
DStem2: 57 28 9 8 0.793194 -0.608969<0 152.611> 178 -65 191 -111 0.795081 0.606504<0 152.61>
LayerCount: 2
Fore
SplineSet
178 -65 m 257,0,-1
 299 28 l 257,1,2
 247 71 247 71 178.5 71 c 256,3,4
 110 71 110 71 57 28 c 257,5,-1
 178 -65 l 257,0,-1
178 115 m 256,6,7
 225 115 225 115 268.5 96.5 c 256,8,9
 312 78 312 78 334 57 c 256,10,11
 356 36 356 36 356 25 c 256,12,13
 356 16 356 16 347 8 c 258,14,-1
 191 -111 l 258,15,16
 186 -115 186 -115 178 -115 c 256,17,18
 169 -115 169 -115 164 -111 c 258,19,-1
 9 8 l 258,20,21
 0 15 0 15 0 25 c 256,22,23
 0 37 0 37 22 57.5 c 256,24,25
 44 78 44 78 87.5 96.5 c 256,26,27
 131 115 131 115 178 115 c 256,6,7
EndSplineSet
EndChar

StartChar: noteheads.d1ti
Encoding: 365 57685 109
Width: 355
Flags: W
HStem: -115 50<153 203> 71 44<89.3475 266.905>
DStem2: 57 28 9 8 0.793194 -0.608969<0 152.611> 178 -65 191 -111 0.795081 0.606504<0 152.61>
LayerCount: 2
Fore
SplineSet
178 -65 m 257,0,-1
 299 28 l 257,1,2
 247 71 247 71 178.5 71 c 256,3,4
 110 71 110 71 57 28 c 257,5,-1
 178 -65 l 257,0,-1
178 115 m 256,6,7
 225 115 225 115 268.5 96.5 c 256,8,9
 312 78 312 78 334 57 c 256,10,11
 356 36 356 36 356 25 c 256,12,13
 356 16 356 16 347 8 c 258,14,-1
 191 -111 l 258,15,16
 186 -115 186 -115 178 -115 c 256,17,18
 169 -115 169 -115 164 -111 c 258,19,-1
 9 8 l 258,20,21
 0 15 0 15 0 25 c 256,22,23
 0 37 0 37 22 57.5 c 256,24,25
 44 78 44 78 87.5 96.5 c 256,26,27
 131 115 131 115 178 115 c 256,6,7
EndSplineSet
EndChar

StartChar: noteheads.u2ti
Encoding: 366 57686 110
Width: 336
Flags: W
HStem: -115 230<134.328 202.672>
VStem: 0 337<-3.15625 55.6973>
LayerCount: 2
Fore
SplineSet
169 115 m 256,0,1
 205 115 205 115 238 103.5 c 256,2,3
 271 92 271 92 291.5 76 c 256,4,5
 312 60 312 60 324.5 46 c 256,6,7
 337 32 337 32 337 25 c 256,8,9
 337 15 337 15 329 8 c 258,10,-1
 182 -111 l 258,11,12
 177 -115 177 -115 169 -115 c 256,13,14
 160 -115 160 -115 155 -111 c 258,15,-1
 8 8 l 258,16,17
 0 14 0 14 0 25 c 256,18,19
 0 36 0 36 20.5 57 c 256,20,21
 41 78 41 78 82.5 96.5 c 256,22,23
 124 115 124 115 169 115 c 256,0,1
EndSplineSet
EndChar

StartChar: noteheads.d2ti
Encoding: 367 57687 111
Width: 336
Flags: W
HStem: -115 230<134.328 202.672>
VStem: 0 337<-3.15625 55.6973>
LayerCount: 2
Fore
SplineSet
169 115 m 256,0,1
 205 115 205 115 238 103.5 c 256,2,3
 271 92 271 92 291.5 76 c 256,4,5
 312 60 312 60 324.5 46 c 256,6,7
 337 32 337 32 337 25 c 256,8,9
 337 15 337 15 329 8 c 258,10,-1
 182 -111 l 258,11,12
 177 -115 177 -115 169 -115 c 256,13,14
 160 -115 160 -115 155 -111 c 258,15,-1
 8 8 l 258,16,17
 0 14 0 14 0 25 c 256,18,19
 0 36 0 36 20.5 57 c 256,20,21
 41 78 41 78 82.5 96.5 c 256,22,23
 124 115 124 115 169 115 c 256,0,1
EndSplineSet
EndChar

StartChar: scripts.ufermata
Encoding: 368 57688 112
Width: 338
Flags: W
HStem: -18 138<-48.3728 48.3728> 268 104<-109.24 109.24>
VStem: -340 39<-13.2144 68.1152> -69 138<2.6272 99.3728> 301 39<-17.9824 68.1152>
CounterMasks: 1 38
LayerCount: 2
Fore
SplineSet
-69 51 m 256,0,1
 -69 80 -69 80 -49 100 c 256,2,3
 -29 120 -29 120 0 120 c 256,4,5
 29 120 29 120 49 100 c 256,6,7
 69 80 69 80 69 51 c 256,8,9
 69 22 69 22 49 2 c 256,10,11
 29 -18 29 -18 0 -18 c 256,12,13
 -29 -18 -29 -18 -49 2 c 256,14,15
 -69 22 -69 22 -69 51 c 256,0,1
0 372 m 256,16,17
 62 372 62 372 116.5 346.5 c 256,18,19
 171 321 171 321 206.5 281 c 256,20,21
 242 241 242 241 269 196 c 256,22,23
 296 151 296 151 311 107 c 256,24,25
 326 63 326 63 333 35 c 256,26,27
 340 7 340 7 340 -3 c 256,28,29
 340 -9 340 -9 334 -13.5 c 256,30,31
 328 -18 328 -18 321 -18 c 256,32,33
 305 -18 305 -18 301 0 c 256,34,35
 281 115 281 115 197 191.5 c 256,36,37
 113 268 113 268 0 268 c 256,38,39
 -113 268 -113 268 -197 191.5 c 256,40,41
 -281 115 -281 115 -301 0 c 256,42,43
 -304 -18 -304 -18 -321 -18 c 256,44,45
 -328 -18 -328 -18 -334 -13.5 c 256,46,47
 -340 -9 -340 -9 -340 -3 c 256,48,49
 -340 7 -340 7 -333 35 c 256,50,51
 -326 63 -326 63 -311 107 c 256,52,53
 -296 151 -296 151 -269 196 c 256,54,55
 -242 241 -242 241 -206.5 281 c 256,56,57
 -171 321 -171 321 -116.5 346.5 c 256,58,59
 -62 372 -62 372 0 372 c 256,16,17
EndSplineSet
EndChar

StartChar: scripts.dfermata
Encoding: 369 57689 113
Width: 338
Flags: W
HStem: -372 104<-109.24 109.24> -120 138<-48.3728 48.3728>
VStem: -340 39<-68.1152 13.2144> -69 138<-99.3728 -2.6272> 301 39<-68.1152 17.9956>
CounterMasks: 1 38
LayerCount: 2
Fore
SplineSet
-69 -51 m 256,0,1
 -69 -22 -69 -22 -49 -2 c 256,2,3
 -29 18 -29 18 0 18 c 256,4,5
 29 18 29 18 49 -2 c 256,6,7
 69 -22 69 -22 69 -51 c 256,8,9
 69 -80 69 -80 49 -100 c 256,10,11
 29 -120 29 -120 0 -120 c 256,12,13
 -29 -120 -29 -120 -49 -100 c 256,14,15
 -69 -80 -69 -80 -69 -51 c 256,0,1
0 -372 m 256,16,17
 -62 -372 -62 -372 -116.5 -346.5 c 256,18,19
 -171 -321 -171 -321 -206.5 -281 c 256,20,21
 -242 -241 -242 -241 -269 -196 c 256,22,23
 -296 -151 -296 -151 -311 -107 c 256,24,25
 -326 -63 -326 -63 -333 -35 c 256,26,27
 -340 -7 -340 -7 -340 3 c 256,28,29
 -340 9 -340 9 -334 13.5 c 256,30,31
 -328 18 -328 18 -321 18 c 256,32,33
 -305 18 -305 18 -301 0 c 256,34,35
 -281 -115 -281 -115 -197 -191.5 c 256,36,37
 -113 -268 -113 -268 0 -268 c 256,38,39
 113 -268 113 -268 197 -191.5 c 256,40,41
 281 -115 281 -115 301 0 c 256,42,43
 304 18 304 18 321 18 c 256,44,45
 328 18 328 18 334 13.5 c 256,46,47
 340 9 340 9 340 3 c 256,48,49
 340 -7 340 -7 333 -35 c 256,50,51
 326 -63 326 -63 311 -107 c 256,52,53
 296 -151 296 -151 269 -196 c 256,54,55
 242 -241 242 -241 206.5 -281 c 256,56,57
 171 -321 171 -321 116.5 -346.5 c 256,58,59
 62 -372 62 -372 0 -372 c 256,16,17
EndSplineSet
EndChar

StartChar: scripts.ushortfermata
Encoding: 370 57690 114
Width: 256
Flags: W
HStem: 0 136<-72.8884 22.3729>
VStem: -93 136<20.6271 115.888>
DStem2: -251 35 -219 11 0.412342 0.911029<-16.494 460.833> 17 552 -26 439 0.411681 -0.911328<85.2778 576.892>
LayerCount: 2
Fore
SplineSet
-93 68.5 m 256,0,1
 -93 97 -93 97 -73.5 116.5 c 256,2,3
 -54 136 -54 136 -25.5 136 c 256,4,5
 3 136 3 136 23 116.5 c 256,6,7
 43 97 43 97 43 68.5 c 256,8,9
 43 40 43 40 23 20 c 256,10,11
 3 0 3 0 -25.5 0 c 256,12,13
 -54 0 -54 0 -73.5 20 c 256,14,15
 -93 40 -93 40 -93 68.5 c 256,0,1
-237 0 m 256,16,17
 -245 0 -245 0 -250.5 5.5 c 256,18,19
 -256 11 -256 11 -256 19 c 256,20,21
 -256 24 -256 24 -251 35 c 258,22,-1
 -17 552 l 258,23,24
 -12 563 -12 563 0 563 c 256,25,26
 12 563 12 563 17 552 c 258,27,-1
 251 34 l 258,28,29
 255 27 255 27 255 18 c 256,30,31
 255 9 255 9 250 4.5 c 256,32,33
 245 0 245 0 237 0 c 258,34,-1
 186 0 l 258,35,36
 174 0 174 0 169 11 c 258,37,-1
 -26 439 l 257,38,-1
 -219 11 l 258,39,40
 -224 0 -224 0 -237 0 c 256,16,17
EndSplineSet
EndChar

StartChar: scripts.dshortfermata
Encoding: 371 57691 115
Width: 256
Flags: W
HStem: -136 136<-22.3729 72.8884>
VStem: -43 136<-115.888 -20.6271>
DStem2: 26 -439 -17 -552 0.411447 -0.911434<-491.608 0> 26 -439 17 -552 0.411447 0.911434<0 477.405>
LayerCount: 2
Fore
SplineSet
93 -68.5 m 256,0,1
 93 -97 93 -97 73.5 -116.5 c 256,2,3
 54 -136 54 -136 25.5 -136 c 256,4,5
 -3 -136 -3 -136 -23 -116.5 c 256,6,7
 -43 -97 -43 -97 -43 -68.5 c 256,8,9
 -43 -40 -43 -40 -23 -20 c 256,10,11
 -3 0 -3 0 25.5 0 c 256,12,13
 54 0 54 0 73.5 -20 c 256,14,15
 93 -40 93 -40 93 -68.5 c 256,0,1
237 0 m 256,16,17
 245 0 245 0 250.5 -5.5 c 256,18,19
 256 -11 256 -11 256 -19 c 256,20,21
 256 -20 256 -20 254 -27 c 258,22,-1
 17 -552 l 258,23,24
 12 -563 12 -563 0 -563 c 256,25,26
 -12 -563 -12 -563 -17 -552 c 258,27,-1
 -254 -27 l 258,28,29
 -256 -21 -256 -21 -256 -19 c 256,30,31
 -256 -11 -256 -11 -250.5 -5.5 c 256,32,33
 -245 0 -245 0 -237 0 c 258,34,-1
 -186 0 l 258,35,36
 -174 0 -174 0 -169 -11 c 258,37,-1
 26 -439 l 257,38,-1
 219 -11 l 258,39,40
 225 0 225 0 237 0 c 256,16,17
EndSplineSet
EndChar

StartChar: scripts.ulongfermata
Encoding: 372 57692 116
Width: 319
Flags: W
HStem: 0 138<-48.3728 48.3728> 282 102<-282 282>
VStem: -319 37<0.0131836 282> -69 138<20.6272 117.373> 282 39<0.0131836 282>
LayerCount: 2
Fore
SplineSet
-69 69 m 256,0,1
 -69 98 -69 98 -49 118 c 256,2,3
 -29 138 -29 138 0 138 c 256,4,5
 29 138 29 138 49 118 c 256,6,7
 69 98 69 98 69 69 c 256,8,9
 69 40 69 40 49 20 c 256,10,11
 29 0 29 0 0 0 c 256,12,13
 -29 0 -29 0 -49 20 c 256,14,15
 -69 40 -69 40 -69 69 c 256,0,1
-309 384 m 258,16,-1
 310 384 l 258,17,18
 321 384 321 384 321 374 c 258,19,-1
 321 19 l 258,20,21
 321 12 321 12 315 6 c 256,22,23
 309 0 309 0 301 0 c 256,24,25
 293 0 293 0 287.5 6 c 256,26,27
 282 12 282 12 282 19 c 258,28,-1
 282 282 l 257,29,-1
 -282 282 l 257,30,-1
 -282 19 l 258,31,32
 -282 12 -282 12 -287.5 6 c 256,33,34
 -293 0 -293 0 -301 0 c 256,35,36
 -308 0 -308 0 -313.5 5.5 c 256,37,38
 -319 11 -319 11 -319 19 c 258,39,-1
 -319 374 l 258,40,41
 -319 384 -319 384 -309 384 c 258,16,-1
EndSplineSet
EndChar

StartChar: scripts.dlongfermata
Encoding: 373 57693 117
Width: 319
Flags: W
HStem: -384 102<-282 282> -138 138<-48.3728 48.3728>
VStem: -319 37<-282 -0.0131836> -69 138<-117.373 -20.6272> 282 39<-282 -0.0131836>
LayerCount: 2
Fore
SplineSet
-69 -69 m 256,0,1
 -69 -40 -69 -40 -49 -20 c 256,2,3
 -29 0 -29 0 0 0 c 256,4,5
 29 0 29 0 49 -20 c 256,6,7
 69 -40 69 -40 69 -69 c 256,8,9
 69 -98 69 -98 49 -118 c 256,10,11
 29 -138 29 -138 0 -138 c 256,12,13
 -29 -138 -29 -138 -49 -118 c 256,14,15
 -69 -98 -69 -98 -69 -69 c 256,0,1
-309 -384 m 258,16,17
 -319 -384 -319 -384 -319 -374 c 258,18,-1
 -319 -19 l 258,19,20
 -319 -11 -319 -11 -313.5 -5.5 c 256,21,22
 -308 0 -308 0 -301 0 c 256,23,24
 -293 0 -293 0 -287.5 -6 c 256,25,26
 -282 -12 -282 -12 -282 -19 c 258,27,-1
 -282 -282 l 257,28,-1
 282 -282 l 257,29,-1
 282 -19 l 258,30,31
 282 -12 282 -12 287.5 -6 c 256,32,33
 293 0 293 0 301 0 c 256,34,35
 309 0 309 0 315 -6 c 256,36,37
 321 -12 321 -12 321 -19 c 258,38,-1
 321 -374 l 258,39,40
 321 -384 321 -384 310 -384 c 258,41,-1
 -309 -384 l 258,16,17
EndSplineSet
EndChar

StartChar: scripts.uverylongfermata
Encoding: 374 57694 118
Width: 384
Flags: W
HStem: 0 122<-42.4358 42.4358> 154 76<-217 217> 282 128<-345 345>
VStem: -384 39<0.00146484 282> -256 39<0.00146484 154> -61 122<18.5642 103.436> 217 39<0.00146484 154> 345 39<0.00146484 282>
LayerCount: 2
Fore
SplineSet
-61 61 m 256,0,1
 -61 86 -61 86 -43 104 c 256,2,3
 -25 122 -25 122 0 122 c 256,4,5
 25 122 25 122 43 104 c 256,6,7
 61 86 61 86 61 61 c 256,8,9
 61 36 61 36 43 18 c 256,10,11
 25 -0 25 -0 0 0 c 256,12,13
 -25 0 -25 0 -43 18 c 256,14,15
 -61 36 -61 36 -61 61 c 256,0,1
-246 230 m 258,16,-1
 246 230 l 258,17,18
 256 230 256 230 256 220 c 258,19,-1
 256 19 l 258,20,21
 256 12 256 12 250 6 c 256,22,23
 244 0 244 0 236.5 0 c 256,24,25
 229 0 229 0 223 6 c 256,26,27
 217 12 217 12 217 19 c 258,28,-1
 217 154 l 257,29,-1
 -217 154 l 257,30,-1
 -217 19 l 258,31,32
 -217 12 -217 12 -223 6 c 256,33,34
 -229 0 -229 0 -236.5 0 c 256,35,36
 -244 0 -244 0 -250 6 c 256,37,38
 -256 12 -256 12 -256 19 c 258,39,-1
 -256 220 l 258,40,41
 -256 230 -256 230 -246 230 c 258,16,-1
-374 410 m 258,42,-1
 374 410 l 258,43,44
 384 410 384 410 384 399 c 258,45,-1
 384 19 l 258,46,47
 384 12 384 12 378.5 6 c 256,48,49
 373 0 373 0 364.5 0 c 256,50,51
 356 0 356 0 350.5 6 c 256,52,53
 345 12 345 12 345 19 c 258,54,-1
 345 282 l 257,55,-1
 -345 282 l 257,56,-1
 -345 19 l 258,57,58
 -345 12 -345 12 -350.5 6 c 256,59,60
 -356 0 -356 0 -364.5 0 c 256,61,62
 -373 0 -373 0 -378.5 6 c 256,63,64
 -384 12 -384 12 -384 19 c 258,65,-1
 -384 399 l 258,66,67
 -384 410 -384 410 -374 410 c 258,42,-1
EndSplineSet
EndChar

StartChar: scripts.dverylongfermata
Encoding: 375 57695 119
Width: 384
Flags: W
HStem: -410 128<-345 345> -230 76<-217 217> -122 122<-42.4358 42.4358>
VStem: -384 39<-282 -0.00146484> -256 39<-154 -0.00146484> -61 122<-103.436 -18.5642> 217 39<-154 -0.00146484> 345 39<-282 -0.00146484>
LayerCount: 2
Fore
SplineSet
-61 -61 m 256,0,1
 -61 -36 -61 -36 -43 -18 c 256,2,3
 -25 0 -25 0 0 0 c 256,4,5
 25 0 25 0 43 -18 c 256,6,7
 61 -36 61 -36 61 -61 c 256,8,9
 61 -86 61 -86 43 -104 c 256,10,11
 25 -122 25 -122 0 -122 c 256,12,13
 -25 -122 -25 -122 -43 -104 c 256,14,15
 -61 -86 -61 -86 -61 -61 c 256,0,1
-246 -230 m 258,16,17
 -256 -230 -256 -230 -256 -220 c 258,18,-1
 -256 -19 l 258,19,20
 -256 -12 -256 -12 -250 -6 c 256,21,22
 -244 0 -244 0 -236.5 0 c 256,23,24
 -229 0 -229 0 -223 -6 c 256,25,26
 -217 -12 -217 -12 -217 -19 c 258,27,-1
 -217 -154 l 257,28,-1
 217 -154 l 257,29,-1
 217 -19 l 258,30,31
 217 -12 217 -12 223 -6 c 256,32,33
 229 0 229 0 236.5 0 c 256,34,35
 244 0 244 0 250 -6 c 256,36,37
 256 -12 256 -12 256 -19 c 258,38,-1
 256 -220 l 258,39,40
 256 -230 256 -230 246 -230 c 258,41,-1
 -246 -230 l 258,16,17
-374 -410 m 258,42,43
 -384 -410 -384 -410 -384 -399 c 258,44,-1
 -384 -19 l 258,45,46
 -384 -12 -384 -12 -378.5 -6 c 256,47,48
 -373 0 -373 0 -364.5 0 c 256,49,50
 -356 0 -356 0 -350.5 -6 c 256,51,52
 -345 -12 -345 -12 -345 -19 c 258,53,-1
 -345 -282 l 257,54,-1
 345 -282 l 257,55,-1
 345 -19 l 258,56,57
 345 -12 345 -12 350.5 -6 c 256,58,59
 356 0 356 0 364.5 0 c 256,60,61
 373 0 373 0 378.5 -6 c 256,62,63
 384 -12 384 -12 384 -19 c 258,64,-1
 384 -399 l 258,65,66
 384 -410 384 -410 374 -410 c 258,67,-1
 -374 -410 l 258,42,43
EndSplineSet
EndChar

StartChar: scripts.thumb
Encoding: 376 57696 120
Width: 101
Flags: W
HStem: -205 108<-21.4784 21.6971> 97 31<-30.1943 30.5086>
VStem: -102 54<-82.1587 80.6362> -22 44<-204.998 -117.738> 49 53<-80.992 80.6362>
LayerCount: 2
Fore
SplineSet
22 -128 m 257,0,-1
 25 -180 l 258,1,2
 26 -190 26 -190 18 -197.5 c 256,3,4
 10 -205 10 -205 0 -205 c 256,5,6
 -10 -205 -10 -205 -18 -197.5 c 256,7,8
 -26 -190 -26 -190 -25 -180 c 258,9,-1
 -22 -128 l 257,10,-1
 -22 -126 l 257,11,12
 -59 -117 -59 -117 -80.5 -81 c 256,13,14
 -102 -45 -102 -45 -102 0 c 256,15,16
 -102 52 -102 52 -73.5 90 c 256,17,18
 -45 128 -45 128 0 128 c 256,19,20
 45 128 45 128 73.5 90 c 256,21,22
 102 52 102 52 102 0 c 256,23,24
 102 -45 102 -45 80 -81 c 256,25,26
 58 -117 58 -117 22 -126 c 257,27,-1
 22 -128 l 257,0,-1
49 0 m 256,28,29
 49 97 49 97 0 97 c 256,30,31
 -48 97 -48 97 -48 0 c 256,32,33
 -48 -97 -48 -97 0 -97 c 256,34,35
 49 -97 49 -97 49 0 c 256,28,29
EndSplineSet
EndChar

StartChar: scripts.sforzato
Encoding: 377 57697 121
Width: 229
Flags: W
HStem: -19 38<183.249 229.995> 90 38<-229.995 -188.088>
VStem: 184 46<-23 23>
DStem2: 41 -24 211 -19 0.968224 0.250086<-283.518 0>
LayerCount: 2
Fore
SplineSet
230 0 m 256,0,1
 230 -19 230 -19 211 -19 c 257,2,-1
 -211 -128 l 258,3,4
 -230 -133 -230 -133 -230 -109 c 256,5,6
 -230 -93 -230 -93 -216 -90 c 258,7,-1
 41 -24 l 257,8,-1
 184 0 l 257,9,-1
 41 24 l 257,10,-1
 -216 90 l 258,11,12
 -230 93 -230 93 -230 109 c 256,13,14
 -230 133 -230 133 -211 128 c 258,15,-1
 211 19 l 257,16,17
 230 19 230 19 230 0 c 256,0,1
EndSplineSet
EndChar

StartChar: scripts.espr
Encoding: 378 57698 122
Width: 486
Flags: W
HStem: -128 38<-72.5859 -31.1675 31.1675 72.5859> -19 38<-485.995 -439.589 439.589 485.995> 90 37<31.0898 72.5859>
VStem: -486 42<-21 21> 444 42<-21 21>
DStem2: -467 19 -299 24 0.967468 0.252994<19.1068 443.606> 299 -24 467 -19 0.967494 0.252894<-279.691 140.716>
LayerCount: 2
Fore
SplineSet
-486 0 m 256,0,1
 -486 19 -486 19 -467 19 c 257,2,-1
 -54 127 l 258,3,4
 -31 132.75 -31 132.75 -31 105.5 c 256,5,6
 -31 94 -31 94 -45 90 c 258,7,-1
 -299 24 l 257,8,-1
 -444 0 l 257,9,-1
 -299 -24 l 257,10,-1
 -45 -90 l 258,11,12
 -31 -95 -31 -95 -31 -105 c 256,13,14
 -31 -131 -31 -131 -50 -128 c 258,15,-1
 -467 -19 l 257,16,17
 -486 -19 -486 -19 -486 0 c 256,0,1
486 0 m 256,18,19
 486 -19 486 -19 467 -19 c 257,20,-1
 50 -128 l 258,21,22
 31 -131 31 -131 31 -105 c 256,23,24
 31 -95 31 -95 45 -90 c 258,25,-1
 299 -24 l 257,26,-1
 444 0 l 257,27,-1
 299 24 l 257,28,-1
 45 90 l 258,29,30
 31 94 31 94 31 105.5 c 256,31,32
 31 132.75 31 132.75 54 127 c 258,33,-1
 467 19 l 257,34,35
 486 19 486 19 486 0 c 256,18,19
EndSplineSet
EndChar

StartChar: scripts.staccato
Encoding: 379 57699 123
Width: 50
Flags: W
HStem: -51 102<-35.5298 35.5298>
VStem: -51 102<-35.5298 35.5298>
LayerCount: 2
Fore
SplineSet
-51 0 m 256,0,1
 -51 21 -51 21 -36 36 c 256,2,3
 -21 51 -21 51 0 51 c 256,4,5
 21 51 21 51 36 36 c 256,6,7
 51 21 51 21 51 0 c 256,8,9
 51 -21 51 -21 36 -36 c 256,10,11
 21 -51 21 -51 0 -51 c 256,12,13
 -21 -51 -21 -51 -36 -36 c 256,14,15
 -51 -21 -51 -21 -51 0 c 256,0,1
EndSplineSet
EndChar

StartChar: scripts.ustaccatissimo
Encoding: 380 57700 124
Width: 50
Flags: W
HStem: -13 269<-14.2188 14.2188>
VStem: -52 104<173.035 242.593> -13 26<-12.9968 38.9645>
LayerCount: 2
Fore
SplineSet
-13 0 m 258,0,-1
 -52 212 l 257,1,2
 -52 230 -52 230 -37 243 c 256,3,4
 -22 256 -22 256 0 256 c 256,5,6
 22 256 22 256 37 243 c 256,7,8
 52 230 52 230 52 212 c 257,9,10
 13 0 l 258,11,12
 11 -13 11 -13 0 -13 c 256,13,14
 -11 -13 -11 -13 -13 0 c 258,0,-1
EndSplineSet
EndChar

StartChar: scripts.dstaccatissimo
Encoding: 381 57701 125
Width: 50
Flags: W
HStem: -256 269<-14.2188 14.2188>
VStem: -52 104<-242.593 -173.035> -13 26<-38.9645 12.9968>
LayerCount: 2
Fore
SplineSet
-13 0 m 258,0,1
 -11 13 -11 13 0 13 c 256,2,3
 11 13 11 13 13 0 c 258,4,-1
 52 -212 l 257,5,6
 52 -230 52 -230 37 -243 c 256,7,8
 22 -256 22 -256 0 -256 c 256,9,10
 -22 -256 -22 -256 -37 -243 c 256,11,12
 -52 -230 -52 -230 -52 -212 c 257,13,-1
 -13 0 l 258,0,1
EndSplineSet
EndChar

StartChar: scripts.tenuto
Encoding: 382 57702 126
Width: 152
Flags: W
HStem: -20 40<-153.998 153.998>
VStem: -154 308<-20 20>
LayerCount: 2
Fore
SplineSet
133 -20 m 258,0,-1
 -133 -20 l 258,1,2
 -141 -20 -141 -20 -147.5 -14 c 256,3,4
 -154 -8 -154 -8 -154 0 c 256,5,6
 -154 8 -154 8 -147.5 14 c 256,7,8
 -141 20 -141 20 -133 20 c 258,9,-1
 133 20 l 258,10,11
 141 20 141 20 147.5 14 c 256,12,13
 154 8 154 8 154 0 c 256,14,15
 154 -8 154 -8 147.5 -14 c 256,16,17
 141 -20 141 -20 133 -20 c 258,0,-1
EndSplineSet
EndChar

StartChar: scripts.uportato
Encoding: 383 57703 127
Width: 152
Flags: W
HStem: -18 36<-148.328 148.328> 128 82<-28.6238 28.6238>
VStem: -41 82<140.376 197.624>
LayerCount: 2
Fore
SplineSet
-41 169 m 256,0,1
 -41 186 -41 186 -29 198 c 256,2,3
 -17 210 -17 210 0 210 c 256,4,5
 17 210 17 210 29 198 c 256,6,7
 41 186 41 186 41 169 c 256,8,9
 41 152 41 152 29 140 c 256,10,11
 17 128 17 128 0 128 c 256,12,13
 -17 128 -17 128 -29 140 c 256,14,15
 -41 152 -41 152 -41 169 c 256,0,1
135 -18 m 258,16,-1
 -135 -18 l 258,17,18
 -143 -18 -143 -18 -148.5 -13 c 256,19,20
 -154 -8 -154 -8 -154 0 c 256,21,22
 -154 8 -154 8 -148.5 13 c 256,23,24
 -143 18 -143 18 -135 18 c 258,25,-1
 135 18 l 258,26,27
 143 18 143 18 148.5 13 c 256,28,29
 154 8 154 8 154 0 c 256,30,31
 154 -8 154 -8 148.5 -13 c 256,32,33
 143 -18 143 -18 135 -18 c 258,16,-1
EndSplineSet
EndChar

StartChar: scripts.dportato
Encoding: 384 57704 128
Width: 152
Flags: W
HStem: -210 82<-28.6238 28.6238> -18 36<-148.328 148.328>
VStem: -41 82<-197.624 -140.376>
LayerCount: 2
Fore
SplineSet
-41 -169 m 256,0,1
 -41 -152 -41 -152 -29 -140 c 256,2,3
 -17 -128 -17 -128 0 -128 c 256,4,5
 17 -128 17 -128 29 -140 c 256,6,7
 41 -152 41 -152 41 -169 c 256,8,9
 41 -186 41 -186 29 -198 c 256,10,11
 17 -210 17 -210 0 -210 c 256,12,13
 -17 -210 -17 -210 -29 -198 c 256,14,15
 -41 -186 -41 -186 -41 -169 c 256,0,1
135 18 m 258,16,17
 143 18 143 18 148.5 13 c 256,18,19
 154 8 154 8 154 0 c 256,20,21
 154 -8 154 -8 148.5 -13 c 256,22,23
 143 -18 143 -18 135 -18 c 258,24,-1
 -135 -18 l 258,25,26
 -143 -18 -143 -18 -148.5 -13 c 256,27,28
 -154 -8 -154 -8 -154 0 c 256,29,30
 -154 8 -154 8 -148.5 13 c 256,31,32
 -143 18 -143 18 -135 18 c 258,33,-1
 135 18 l 258,16,17
EndSplineSet
EndChar

StartChar: scripts.umarcato
Encoding: 385 57705 129
Width: 128
Flags: W
HStem: 0 281.5
VStem: -128 256<0 16>
DStem2: 11 274 -35 161 0.41273 -0.910853<83.9408 270.571> -11 274 -103 7 0.41273 0.910853<-286.819 -112.832>
LayerCount: 2
Fore
SplineSet
-115 0 m 256,0,1
 -128 0 -128 0 -128 12 c 256,2,3
 -128 16 -128 16 -127 18 c 258,4,-1
 -11 274 l 258,5,6
 -8.02 281.5 -8.02 281.5 0 281.5 c 256,7,8
 8.02 281.5 8.02 281.5 11 274 c 258,9,-1
 127 18 l 258,10,11
 128 16 128 16 128 12 c 256,12,13
 128 0 128 0 115 0 c 258,14,-1
 47 0 l 258,15,16
 39 0 39 0 35 7 c 258,17,-1
 -35 161 l 257,18,-1
 -103 7 l 258,19,20
 -107 0 -107 0 -115 0 c 256,0,1
EndSplineSet
EndChar

StartChar: scripts.dmarcato
Encoding: 386 57706 130
Width: 128
Flags: W
HStem: -281.5 281.5
VStem: -128 256<-16 0>
DStem2: 35 -161 -127 -18 0.41273 -0.910853<-186.631 0> 35 -161 11 -274 0.41273 0.910853<0 173.988>
LayerCount: 2
Fore
SplineSet
115 0 m 256,0,1
 128 0 128 0 128 -12 c 256,2,3
 128 -16 128 -16 127 -18 c 258,4,-1
 11 -274 l 258,5,6
 8.02 -281.5 8.02 -281.5 0 -281.5 c 256,7,8
 -8.02 -281.5 -8.02 -281.5 -11 -274 c 258,9,-1
 -127 -18 l 258,10,11
 -128 -16 -128 -16 -128 -12 c 256,12,13
 -128 0 -128 0 -115 0 c 258,14,-1
 -47 0 l 258,15,16
 -39 0 -39 0 -35 -7 c 258,17,-1
 35 -161 l 257,18,-1
 103 -7 l 258,19,20
 107 0 107 0 115 0 c 256,0,1
EndSplineSet
EndChar

StartChar: scripts.open
Encoding: 387 57707 131
Width: 101
Flags: W
HStem: -128 31<-35.2328 35.2328> 97 31<-35.2328 35.2328>
VStem: -102 44<-73.9439 73.9439> 58 44<-73.9439 73.9439>
LayerCount: 2
Fore
SplineSet
102 0 m 256,0,1
 102 -52 102 -52 73.5 -90 c 256,2,3
 45 -128 45 -128 0 -128 c 256,4,5
 -45 -128 -45 -128 -73.5 -90 c 256,6,7
 -102 -52 -102 -52 -102 0 c 256,8,9
 -102 52 -102 52 -73.5 90 c 256,10,11
 -45 128 -45 128 0 128 c 256,12,13
 45 128 45 128 73.5 90 c 256,14,15
 102 52 102 52 102 0 c 256,0,1
58 0 m 256,16,17
 58 40 58 40 44 68.5 c 256,18,19
 30 97 30 97 0 97 c 256,20,21
 -30 97 -30 97 -44 68.5 c 256,22,23
 -58 40 -58 40 -58 0 c 256,24,25
 -58 -40 -58 -40 -44 -68.5 c 256,26,27
 -30 -97 -30 -97 0 -97 c 256,28,29
 30 -97 30 -97 44 -68.5 c 256,30,31
 58 -40 58 -40 58 0 c 256,16,17
EndSplineSet
EndChar

StartChar: scripts.stopped
Encoding: 388 57708 132
Width: 140
Flags: W
HStem: -26 52<-140.736 -26 26 140.736>
VStem: -26 52<-140.736 -26 26 140.736>
LayerCount: 2
Fore
SplineSet
0 -141 m 256,0,1
 -10 -141 -10 -141 -18 -133.5 c 256,2,3
 -26 -126 -26 -126 -26 -115 c 258,4,-1
 -26 -26 l 257,5,-1
 -115 -26 l 258,6,7
 -126 -26 -126 -26 -133.5 -18 c 256,8,9
 -141 -10 -141 -10 -141 0 c 256,10,11
 -141 10 -141 10 -133.5 18 c 256,12,13
 -126 26 -126 26 -115 26 c 258,14,-1
 -26 26 l 257,15,-1
 -26 115 l 258,16,17
 -26 126 -26 126 -18 133.5 c 256,18,19
 -10 141 -10 141 0 141 c 256,20,21
 10 141 10 141 18 133.5 c 256,22,23
 26 126 26 126 26 115 c 258,24,-1
 26 26 l 257,25,-1
 115 26 l 258,26,27
 126 26 126 26 133.5 18 c 256,28,29
 141 10 141 10 141 0 c 256,30,31
 141 -10 141 -10 133.5 -18 c 256,32,33
 126 -26 126 -26 115 -26 c 258,34,-1
 26 -26 l 257,35,-1
 26 -115 l 258,36,37
 26 -126 26 -126 18 -133.5 c 256,38,39
 10 -141 10 -141 0 -141 c 256,0,1
EndSplineSet
EndChar

StartChar: scripts.upbow
Encoding: 389 57709 133
Width: 165
Flags: W
HStem: 0 50<-25 25>
VStem: -167 36<495.947 531.985> -18 36<0.00439453 41.8288> 131 36<495.947 531.985>
DStem2: 41 218 18 18 0.288062 0.957612<-172.689 322.502>
CounterMasks: 1 70
LayerCount: 2
Fore
SplineSet
0 0 m 256,0,1
 18 0 18 0 18 18 c 257,2,-1
 166 510 l 258,3,4
 167 513 167 513 167 517 c 256,5,6
 167 532 167 532 148 532 c 256,7,8
 134 532 134 532 131 520 c 258,9,-1
 41 218 l 257,10,-1
 0 50 l 257,11,-1
 -41 218 l 257,12,-1
 -131 520 l 258,13,14
 -134 532 -134 532 -148 532 c 256,15,16
 -167 532 -167 532 -167 517 c 256,17,18
 -167 512.998 -167 512.998 -166 510 c 258,19,-1
 -18 18 l 257,20,21
 -18 0 -18 0 0 0 c 256,0,1
EndSplineSet
EndChar

StartChar: scripts.downbow
Encoding: 390 57710 134
Width: 191
Flags: W
HStem: 0 21G<-179 -173 174 180> 205 136<-161 161>
VStem: -193 32<0.0395508 205> 161 32<0.00109863 205>
LayerCount: 2
Fore
SplineSet
-182 341 m 258,0,-1
 182 341 l 258,1,2
 193 341 193 341 193 331 c 258,3,-1
 193 15 l 258,4,5
 193 9 193 9 188 4.5 c 256,6,7
 183 0 183 0 177 0 c 256,8,9
 171 0 171 0 166 4.5 c 256,10,11
 161 9 161 9 161 15 c 258,12,-1
 161 205 l 257,13,-1
 -161 205 l 257,14,-1
 -161 15 l 258,15,16
 -161 9 -161 9 -165.5 4.5 c 256,17,18
 -170 0 -170 0 -176 0 c 256,19,20
 -182 0 -182 0 -187.5 4.5 c 256,21,22
 -193 9 -193 9 -193 15 c 258,23,-1
 -193 331 l 258,24,25
 -193 341 -193 341 -182 341 c 258,0,-1
EndSplineSet
EndChar

StartChar: scripts.reverseturn
Encoding: 391 57711 135
Width: 279
Flags: W
HStem: -135 108<109.502 192.639> -135 80<-218.212 -115.971> 27 108<-192.639 -109.502> 55 80<115.971 218.212>
VStem: -280 31<-36.5347 39.0771> 249 31<-39.0771 36.5347>
DStem2: -58 12 -1 -68 0.752265 0.658861<-124.175 201.051>
LayerCount: 2
Fore
SplineSet
142 135 m 256,0,1
 199 135 199 135 239.5 95.5 c 256,2,3
 280 56 280 56 280 0 c 256,4,5
 280 -55 280 -55 246.5 -95 c 256,6,7
 213 -135 213 -135 163 -135 c 256,8,9
 135 -135 135 -135 114 -119.5 c 256,10,11
 93 -104 93 -104 93 -81 c 256,12,13
 93 -56 93 -56 109 -41.5 c 256,14,15
 125 -27 125 -27 148 -27 c 256,16,17
 184 -27 184 -27 198 -58 c 257,18,19
 220 -55 220 -55 234.5 -39.5 c 256,20,21
 249 -24 249 -24 249 0 c 256,22,23
 249 24 249 24 230.5 39.5 c 256,24,25
 212 55 212 55 186 55 c 256,26,27
 153 55 153 55 120 35.5 c 256,28,29
 87 16 87 16 58 -12 c 256,30,31
 29 -40 29 -40 -1 -68 c 256,32,33
 -31 -96 -31 -96 -67.5 -115.5 c 256,34,35
 -104 -135 -104 -135 -142 -135 c 256,36,37
 -199 -135 -199 -135 -239.5 -95.5 c 256,38,39
 -280 -56 -280 -56 -280 0 c 256,40,41
 -280 55 -280 55 -246.5 95 c 256,42,43
 -213 135 -213 135 -163 135 c 256,44,45
 -135 135 -135 135 -114 119.5 c 256,46,47
 -93 104 -93 104 -93 81 c 256,48,49
 -93 56 -93 56 -109 41.5 c 256,50,51
 -125 27 -125 27 -148 27 c 256,52,53
 -184 27 -184 27 -198 58 c 257,54,55
 -220 55 -220 55 -234.5 39.5 c 256,56,57
 -249 24 -249 24 -249 0 c 256,58,59
 -249 -24 -249 -24 -230.5 -39.5 c 256,60,61
 -212 -55 -212 -55 -186 -55 c 256,62,63
 -153 -55 -153 -55 -120 -35.5 c 256,64,65
 -87 -16 -87 -16 -58 12 c 256,66,67
 -29 40 -29 40 1 68 c 256,68,69
 31 96 31 96 67.5 115.5 c 256,70,71
 104 135 104 135 142 135 c 256,0,1
EndSplineSet
EndChar

StartChar: scripts.turn
Encoding: 392 57712 136
Width: 279
Flags: W
HStem: -135 108<-192.639 -114.658> -135 80<116.191 218.212> 27 108<114.658 192.639> 55 80<-218.865 -116.191>
VStem: -280 31<-39.561 36.5347> 249 31<-36.5347 39.561>
DStem2: -1 68 -58 -12 0.728583 -0.684958<-102.488 198.237>
LayerCount: 2
Fore
SplineSet
142 -135 m 256,0,1
 104 -135 104 -135 67.5 -115.5 c 256,2,3
 31 -96 31 -96 1 -68 c 256,4,5
 -29 -40 -29 -40 -58 -12 c 256,6,7
 -87 16 -87 16 -120.5 35.5 c 256,8,9
 -154 55 -154 55 -186 55 c 256,10,11
 -212 55 -212 55 -230.5 39.5 c 256,12,13
 -249 24 -249 24 -249 0 c 256,14,15
 -249 -24 -249 -24 -234 -39.5 c 256,16,17
 -219 -55 -219 -55 -198 -58 c 257,18,19
 -185 -27 -185 -27 -148 -27 c 256,20,21
 -124 -27 -124 -27 -108.5 -41.5 c 256,22,23
 -93 -56 -93 -56 -93 -81 c 256,24,25
 -93 -105 -93 -105 -114 -120 c 256,26,27
 -135 -135 -135 -135 -163 -135 c 256,28,29
 -213 -135 -213 -135 -246.5 -95 c 256,30,31
 -280 -55 -280 -55 -280 0 c 256,32,33
 -280 56 -280 56 -240 95.5 c 256,34,35
 -200 135 -200 135 -142 135 c 256,36,37
 -104 135 -104 135 -67.5 115.5 c 256,38,39
 -31 96 -31 96 -1 68 c 256,40,41
 29 40 29 40 58 12 c 256,42,43
 87 -16 87 -16 120.5 -35.5 c 256,44,45
 154 -55 154 -55 186 -55 c 256,46,47
 212 -55 212 -55 230.5 -39.5 c 256,48,49
 249 -24 249 -24 249 0 c 256,50,51
 249 24 249 24 234 39.5 c 256,52,53
 219 55 219 55 198 58 c 257,54,55
 185 27 185 27 148 27 c 256,56,57
 124 27 124 27 108.5 41.5 c 256,58,59
 93 56 93 56 93 81 c 256,60,61
 93 105 93 105 114 120 c 256,62,63
 135 135 135 135 163 135 c 256,64,65
 213 135 213 135 246.5 95 c 256,66,67
 280 55 280 55 280 0 c 256,68,69
 280 -56 280 -56 239.5 -95.5 c 256,70,71
 199 -135 199 -135 142 -135 c 256,0,1
EndSplineSet
EndChar

StartChar: scripts.trill
Encoding: 393 57713 137
Width: 217
Flags: W
HStem: -11 51<-141.5 -70.4736> 176 26<-299.24 -199.688> 285 25<-282.606 -183.198> 302 36<7.20312 101> 312 28<166.078 238.477>
VStem: -330 26<207.811 264.114> -184 81<40.4622 181.43> -52 25<55.7998 149.298> 178 106<201.609 276.011>
DStem2: -180 124 -90 155 0.197063 0.980391<-36.9923 75.5837 94.4871 141.999 176.584 405> -65 281 -71 250 0.874157 0.485643<0 97.3392> 65 268 147 268 0.198847 0.980031<-261.995 6.86021>
LayerCount: 2
Fore
SplineSet
-330 228 m 256,0,1
 -330 262 -330 262 -302.5 286 c 256,2,3
 -275 310 -275 310 -231 310 c 256,4,5
 -188 310 -188 310 -147 285 c 257,6,-1
 -100 522 l 257,7,8
 -90 517 -90 517 -80 517 c 256,9,10
 -48 517 -48 517 -10 553 c 257,11,-1
 -65 281 l 257,12,-1
 1 317 l 258,13,14
 39 337 39 337 77 338 c 257,15,16
 125 338 125 338 142 309 c 257,17,18
 170 340 170 340 213 340 c 256,19,20
 243 340 243 340 263.5 321.5 c 256,21,22
 284 303 284 303 284 269 c 256,23,24
 284 233 284 233 264.5 205 c 256,25,26
 245 177 245 177 217 177 c 256,27,28
 199 177 199 177 188.5 191 c 256,29,30
 178 205 178 205 178 226 c 256,31,32
 178 261 178 261 198 276.5 c 256,33,34
 218 292 218 292 240 292 c 258,35,-1
 243 292 l 257,36,37
 232 312 232 312 204 312 c 256,38,39
 185 312 185 312 168.5 300 c 256,40,41
 152 288 152 288 147 268 c 258,42,-1
 92 -8 l 257,43,44
 75 3 75 3 53.5 3 c 256,45,46
 32 3 32 3 9 -8 c 257,47,-1
 65 268 l 257,48,-1
 65 275 l 258,49,50
 65 302 65 302 35 302 c 256,51,52
 25 302 25 302 10 295 c 257,53,-1
 -71 250 l 257,54,-1
 -78 218 l 257,55,56
 -27 160 -27 160 -27 106 c 256,57,58
 -27 61 -27 61 -57 25 c 256,59,60
 -87 -11 -87 -11 -127 -11 c 256,61,62
 -156 -11 -156 -11 -170 16 c 256,63,64
 -184 43 -184 43 -184 82 c 256,65,66
 -184 107 -184 107 -180 124 c 258,67,-1
 -165 202 l 257,68,69
 -226 176 -226 176 -268 176 c 256,70,71
 -302 176 -302 176 -316 192 c 256,72,73
 -330 208 -330 208 -330 228 c 256,0,1
-304 232 m 256,74,75
 -304 202 -304 202 -264 202 c 257,76,77
 -222 202 -222 202 -159 230 c 257,78,-1
 -154 255 l 257,79,80
 -194 285 -194 285 -237 285 c 256,81,82
 -272 285 -272 285 -288 268 c 256,83,84
 -304 251 -304 251 -304 232 c 256,74,75
-88 40 m 256,85,86
 -72 40 -72 40 -62 60 c 256,87,88
 -52 80 -52 80 -52 102 c 256,89,90
 -52 140 -52 140 -85 182 c 257,91,-1
 -90 155 l 257,92,93
 -103 95 -103 95 -103 70 c 256,94,95
 -103 40 -103 40 -88 40 c 256,85,86
EndSplineSet
EndChar

StartChar: scripts.upedalheel
Encoding: 394 57714 138
Width: 128
Flags: W
HStem: -128 39<-55.0953 55.0953>
VStem: -128 39<-54.7207 165.328> 89 39<-54.7207 165.328>
LayerCount: 2
Fore
SplineSet
0 -89 m 256,0,1
 37 -89 37 -89 63 -63 c 256,2,3
 89 -37 89 -37 89 0 c 258,4,-1
 89 152 l 258,5,6
 89 160 89 160 94.5 165.5 c 256,7,8
 100 171 100 171 108.5 171 c 256,9,10
 117 171 117 171 122.5 165.5 c 256,11,12
 128 160 128 160 128 152 c 258,13,-1
 128 0 l 258,14,15
 128 -53 128 -53 90.5 -90.5 c 256,16,17
 53 -128 53 -128 0 -128 c 256,18,19
 -53 -128 -53 -128 -90.5 -90.5 c 256,20,21
 -128 -53 -128 -53 -128 0 c 258,22,-1
 -128 152 l 258,23,24
 -128 160 -128 160 -122.5 165.5 c 256,25,26
 -117 171 -117 171 -108.5 171 c 256,27,28
 -100 171 -100 171 -94.5 165.5 c 256,29,30
 -89 160 -89 160 -89 152 c 258,31,-1
 -89 0 l 258,32,33
 -89 -37 -89 -37 -63 -63 c 256,34,35
 -37 -89 -37 -89 0 -89 c 256,0,1
EndSplineSet
EndChar

StartChar: scripts.dpedalheel
Encoding: 395 57715 139
Width: 128
Flags: W
HStem: 89 39<-55.0953 55.0953>
VStem: -128 39<-165.328 54.7207> 89 39<-165.328 54.7207>
LayerCount: 2
Fore
SplineSet
0 89 m 256,0,1
 -37 89 -37 89 -63 63 c 256,2,3
 -89 37 -89 37 -89 0 c 258,4,-1
 -89 -152 l 258,5,6
 -89 -160 -89 -160 -94.5 -165.5 c 256,7,8
 -100 -171 -100 -171 -108.5 -171 c 256,9,10
 -117 -171 -117 -171 -122.5 -165.5 c 256,11,12
 -128 -160 -128 -160 -128 -152 c 258,13,-1
 -128 0 l 258,14,15
 -128 53 -128 53 -90.5 90.5 c 256,16,17
 -53 128 -53 128 0 128 c 256,18,19
 53 128 53 128 90.5 90.5 c 256,20,21
 128 53 128 53 128 0 c 258,22,-1
 128 -152 l 258,23,24
 128 -160 128 -160 122.5 -165.5 c 256,25,26
 117 -171 117 -171 108.5 -171 c 256,27,28
 100 -171 100 -171 94.5 -165.5 c 256,29,30
 89 -160 89 -160 89 -152 c 258,31,-1
 89 0 l 258,32,33
 89 37 89 37 63 63 c 256,34,35
 37 89 37 89 0 89 c 256,0,1
EndSplineSet
EndChar

StartChar: scripts.upedaltoe
Encoding: 396 57716 140
Width: 128
Flags: W
HStem: 0 54<-27 27>
VStem: -19 38<0.00463867 41.5659>
DStem2: -90 371 -127 359 0.302741 -0.953073<-5.66697 221.079>
LayerCount: 2
Fore
SplineSet
0 0 m 256,0,1
 -19 0 -19 0 -19 19 c 257,2,-1
 -127 359 l 258,3,4
 -128 361 -128 361 -128 365 c 256,5,6
 -128 373 -128 373 -122.5 378.5 c 256,7,8
 -117 384 -117 384 -109 384 c 256,9,10
 -94 384 -94 384 -90 371 c 258,11,-1
 -24 160 l 257,12,-1
 0 54 l 257,13,-1
 24 160 l 257,14,-1
 90 371 l 258,15,16
 93 384 93 384 109 384 c 256,17,18
 117 384 117 384 122.5 378.5 c 256,19,20
 128 373 128 373 128 365 c 256,21,22
 128 362 128 362 127 359 c 258,23,-1
 19 19 l 257,24,25
 19 0 19 0 0 0 c 256,0,1
EndSplineSet
EndChar

StartChar: scripts.dpedaltoe
Encoding: 397 57717 141
Width: 128
Flags: W
HStem: -54 54<-27 27>
VStem: -19 38<-41.5659 -0.00463867>
DStem2: 19 -19 24 -160 0.302741 -0.953073<27.6055 362.643>
LayerCount: 2
Fore
SplineSet
0 0 m 256,0,1
 19 0 19 0 19 -19 c 257,2,-1
 127 -359 l 258,3,4
 128 -361 128 -361 128 -365 c 256,5,6
 128 -373 128 -373 122.5 -378.5 c 256,7,8
 117 -384 117 -384 109 -384 c 256,9,10
 93 -384 93 -384 90 -371 c 258,11,-1
 24 -160 l 257,12,-1
 0 -54 l 257,13,-1
 -24 -160 l 257,14,-1
 -90 -371 l 258,15,16
 -93 -384 -93 -384 -109 -384 c 256,17,18
 -117 -384 -117 -384 -122.5 -378.5 c 256,19,20
 -128 -373 -128 -373 -128 -365 c 256,21,22
 -128 -362 -128 -362 -127 -359 c 258,23,-1
 -19 -19 l 257,24,25
 -19 0 -19 0 0 0 c 256,0,1
EndSplineSet
EndChar

StartChar: scripts.flageolet
Encoding: 398 57718 142
Width: 135
Flags: W
HStem: -136 20<-46.7871 46.7871> 116 20<-46.7871 46.7871>
VStem: -136 20<-46.7871 46.7871> 116 20<-46.7871 46.7871>
LayerCount: 2
Fore
SplineSet
0 136 m 256,0,1
 57 136 57 136 96.5 96.5 c 256,2,3
 136 57 136 57 136 0 c 256,4,5
 136 -57 136 -57 96.5 -96.5 c 256,6,7
 57 -136 57 -136 0 -136 c 256,8,9
 -57 -136 -57 -136 -96.5 -96.5 c 256,10,11
 -136 -57 -136 -57 -136 0 c 256,12,13
 -136 57 -136 57 -96.5 96.5 c 256,14,15
 -57 136 -57 136 0 136 c 256,0,1
0 116 m 256,16,17
 -48 116 -48 116 -82 82 c 256,18,19
 -116 48 -116 48 -116 0 c 256,20,21
 -116 -48 -116 -48 -82 -82 c 256,22,23
 -48 -116 -48 -116 0 -116 c 256,24,25
 48 -116 48 -116 82 -82 c 256,26,27
 116 -48 116 -48 116 0 c 256,28,29
 116 48 116 48 82 82 c 256,30,31
 48 116 48 116 0 116 c 256,16,17
EndSplineSet
EndChar

StartChar: scripts.segno
Encoding: 399 57719 143
Width: 256
Flags: W
HStem: -384 31<62.9509 149.492> -82 62<-197.718 -154.282> 20 62<154.282 197.718> 353 31<-149.492 -62.9509>
VStem: -256 80<193.374 309.773> -256 61<-384 -323> -207 62<-72.7178 -29.2822> -79 115<191.595 288.691> -36 115<-288.074 -191.595> 145 62<29.2822 72.7178> 176 80<-309.773 -193.374> 195 61<323 384>
DStem2: -256 -384 -195 -384 0.506382 0.862309<30.8893 413.678 507.843 890.632>
LayerCount: 2
Fore
SplineSet
145 51 m 256,0,1
 145 64 145 64 154 73 c 256,2,3
 163 82 163 82 176 82 c 256,4,5
 189 82 189 82 198 73 c 256,6,7
 207 64 207 64 207 51 c 256,8,9
 207 38 207 38 198 29 c 256,10,11
 189 20 189 20 176 20 c 256,12,13
 163 20 163 20 154 29 c 256,14,15
 145 38 145 38 145 51 c 256,0,1
-207 -51 m 256,16,17
 -207 -38 -207 -38 -198 -29 c 256,18,19
 -189 -20 -189 -20 -176 -20 c 256,20,21
 -163 -20 -163 -20 -154 -29 c 256,22,23
 -145 -38 -145 -38 -145 -51 c 256,24,25
 -145 -64 -145 -64 -154 -73 c 256,26,27
 -163 -82 -163 -82 -176 -82 c 256,28,29
 -189 -82 -189 -82 -198 -73 c 256,30,31
 -207 -64 -207 -64 -207 -51 c 256,16,17
-36 -232 m 256,32,33
 -36 -172 -36 -172 19 -172 c 256,34,35
 48 -172 48 -172 63.5 -191 c 256,36,37
 79 -210 79 -210 79 -236 c 256,38,39
 79 -258 79 -258 67.5 -276 c 256,40,41
 56 -294 56 -294 38 -301 c 257,42,43
 44 -324 44 -324 64 -338.5 c 256,44,45
 84 -353 84 -353 109 -353 c 256,46,47
 138 -353 138 -353 157 -330.5 c 256,48,49
 176 -308 176 -308 176 -276 c 256,50,51
 176 -153 176 -153 0 -52 c 257,52,-1
 -195 -384 l 257,53,-1
 -256 -384 l 257,54,-1
 -47 -27 l 257,55,56
 -143 26 -143 26 -199.5 85.5 c 256,57,58
 -256 145 -256 145 -256 224 c 256,59,60
 -256 291 -256 291 -213 337.5 c 256,61,62
 -170 384 -170 384 -109 384 c 256,63,64
 -49 384 -49 384 -6.5 339.5 c 256,65,66
 36 295 36 295 36 232 c 256,67,68
 36 172 36 172 -19 172 c 256,69,70
 -48 172 -48 172 -63.5 191 c 256,71,72
 -79 210 -79 210 -79 236 c 256,73,74
 -79 258 -79 258 -67.5 276 c 256,75,76
 -56 294 -56 294 -38 301 c 257,77,78
 -44 324 -44 324 -64 338.5 c 256,79,80
 -84 353 -84 353 -109 353 c 256,81,82
 -138 353 -138 353 -157 330.5 c 256,83,84
 -176 308 -176 308 -176 276 c 256,85,86
 -176 153 -176 153 0 52 c 257,87,-1
 195 384 l 257,88,-1
 256 384 l 257,89,-1
 47 27 l 257,90,91
 143 -26 143 -26 199.5 -85.5 c 256,92,93
 256 -145 256 -145 256 -224 c 256,94,95
 256 -291 256 -291 213 -337.5 c 256,96,97
 170 -384 170 -384 109 -384 c 256,98,99
 49 -384 49 -384 6.5 -339 c 256,100,101
 -36 -294 -36 -294 -36 -232 c 256,32,33
EndSplineSet
EndChar

StartChar: scripts.coda
Encoding: 400 57720 144
Width: 260
Flags: W
HStem: -15 30<-274.999 -170 -95 -15 15 95 170 274.999>
VStem: -170 75<-133.336 -15 15 132.67> -15 30<-360.999 -253.143 -224 -15 15 224 253.143 360.999> 95 75<-132.67 -15 15 133.336>
CounterMasks: 1 70
LayerCount: 2
Fore
SplineSet
15 -346 m 258,0,1
 15 -352 15 -352 10.5 -356.5 c 256,2,3
 6 -361 6 -361 0 -361 c 256,4,5
 -6 -361 -6 -361 -10.5 -356.5 c 256,6,7
 -15 -352 -15 -352 -15 -346 c 258,8,-1
 -15 -255 l 257,9,10
 -86 -248 -86 -248 -126.5 -179 c 256,11,12
 -167 -110 -167 -110 -170 -15 c 257,13,-1
 -260 -15 l 258,14,15
 -266 -15 -266 -15 -270.5 -10.5 c 256,16,17
 -275 -6 -275 -6 -275 0 c 256,18,19
 -275 6 -275 6 -270.5 10.5 c 256,20,21
 -266 15 -266 15 -260 15 c 258,22,-1
 -170 15 l 257,23,24
 -167 109 -167 109 -126.5 178.5 c 256,25,26
 -86 248 -86 248 -15 255 c 257,27,-1
 -15 346 l 258,28,29
 -15 352 -15 352 -10.5 356.5 c 256,30,31
 -6 361 -6 361 0 361 c 256,32,33
 6 361 6 361 10.5 356.5 c 256,34,35
 15 352 15 352 15 346 c 258,36,-1
 15 255 l 257,37,38
 86 248 86 248 126.5 179 c 256,39,40
 167 110 167 110 170 15 c 257,41,-1
 260 15 l 258,42,43
 266 15 266 15 270.5 10.5 c 256,44,45
 275 6 275 6 275 0 c 256,46,47
 275 -6 275 -6 270.5 -10.5 c 256,48,49
 266 -15 266 -15 260 -15 c 258,50,-1
 170 -15 l 257,51,52
 167 -109 167 -109 126.5 -178.5 c 256,53,54
 86 -248 86 -248 15 -255 c 257,55,-1
 15 -346 l 258,0,1
15 15 m 257,56,-1
 95 15 l 257,57,58
 95 58 95 58 92 87.5 c 256,59,60
 89 117 89 117 82 149.5 c 256,61,62
 75 182 75 182 58 201 c 256,63,64
 41 220 41 220 15 224 c 257,65,-1
 15 15 l 257,56,-1
15 -15 m 257,66,-1
 15 -224 l 257,67,68
 41 -220 41 -220 58 -201 c 256,69,70
 75 -182 75 -182 82 -149.5 c 256,71,72
 89 -117 89 -117 92 -87.5 c 256,73,74
 95 -58 95 -58 95 -15 c 257,75,-1
 15 -15 l 257,66,-1
-15 15 m 257,76,-1
 -15 224 l 257,77,78
 -41 220 -41 220 -58 201 c 256,79,80
 -75 182 -75 182 -82 149.5 c 256,81,82
 -89 117 -89 117 -92 87.5 c 256,83,84
 -95 58 -95 58 -95 15 c 257,85,-1
 -15 15 l 257,76,-1
-15 -15 m 257,86,-1
 -95 -15 l 257,87,88
 -95 -58 -95 -58 -92 -87.5 c 256,89,90
 -89 -117 -89 -117 -82 -149.5 c 256,91,92
 -75 -182 -75 -182 -58 -201 c 256,93,94
 -41 -220 -41 -220 -15 -224 c 257,95,-1
 -15 -15 l 257,86,-1
EndSplineSet
EndChar

StartChar: scripts.varcoda
Encoding: 401 57721 145
Width: 260
Flags: W
HStem: -256 31<-81 -15 15 81> -15 30<-274.999 -171 -81 -15 15 81 171 274.999> 225 31<-81 -15 15 81>
VStem: -171 90<-225 -15 15 225> -15 30<-360.999 -256 -225 -15 15 225 256 360.999> 81 90<-225 -15 15 225>
CounterMasks: 1 fc
LayerCount: 2
Fore
SplineSet
15 -346 m 258,0,1
 15 -352 15 -352 10.5 -356.5 c 256,2,3
 6 -361 6 -361 0 -361 c 256,4,5
 -6 -361 -6 -361 -10.5 -356.5 c 256,6,7
 -15 -352 -15 -352 -15 -346 c 258,8,-1
 -15 -256 l 257,9,-1
 -161 -256 l 258,10,11
 -171 -256 -171 -256 -171 -246 c 258,12,-1
 -171 -15 l 257,13,-1
 -260 -15 l 258,14,15
 -266 -15 -266 -15 -270.5 -10.5 c 256,16,17
 -275 -6 -275 -6 -275 0 c 256,18,19
 -275 6 -275 6 -270.5 10.5 c 256,20,21
 -266 15 -266 15 -260 15 c 258,22,-1
 -171 15 l 257,23,-1
 -171 246 l 258,24,25
 -171 256 -171 256 -161 256 c 258,26,-1
 -15 256 l 257,27,-1
 -15 346 l 258,28,29
 -15 352 -15 352 -10.5 356.5 c 256,30,31
 -6 361 -6 361 0 361 c 256,32,33
 6 361 6 361 10.5 356.5 c 256,34,35
 15 352 15 352 15 346 c 258,36,-1
 15 256 l 257,37,-1
 161 256 l 258,38,39
 171 256 171 256 171 246 c 258,40,-1
 171 15 l 257,41,-1
 260 15 l 258,42,43
 266 15 266 15 270.5 10.5 c 256,44,45
 275 6 275 6 275 0 c 256,46,47
 275 -6 275 -6 270.5 -10.5 c 256,48,49
 266 -15 266 -15 260 -15 c 258,50,-1
 171 -15 l 257,51,-1
 171 -246 l 258,52,53
 171 -256 171 -256 161 -256 c 258,54,-1
 91 -256 l 257,55,-1
 15 -256 l 257,56,-1
 15 -346 l 258,0,1
15 15 m 257,57,-1
 81 15 l 257,58,-1
 81 225 l 257,59,-1
 15 225 l 257,60,-1
 15 15 l 257,57,-1
15 -15 m 257,61,-1
 15 -225 l 257,62,-1
 81 -225 l 257,63,-1
 81 -15 l 257,64,-1
 15 -15 l 257,61,-1
-15 15 m 257,65,-1
 -15 225 l 257,66,-1
 -81 225 l 257,67,-1
 -81 15 l 257,68,-1
 -15 15 l 257,65,-1
-15 -15 m 257,69,-1
 -81 -15 l 257,70,-1
 -81 -225 l 257,71,-1
 -15 -225 l 257,72,-1
 -15 -15 l 257,69,-1
EndSplineSet
EndChar

StartChar: scripts.rcomma
Encoding: 402 57722 146
Width: 128
Flags: W
HStem: -157 318<12 56>
VStem: 51 64<-33.8953 95.4741>
LayerCount: 2
Fore
SplineSet
51 13 m 256,0,1
 51 53 51 53 34.5 84 c 256,2,3
 18 115 18 115 18 122 c 256,4,5
 18 138 18 138 29 149.5 c 256,6,7
 40 161 40 161 56 161 c 256,8,9
 84 161 84 161 99.5 127 c 256,10,11
 115 93 115 93 115 60 c 256,12,13
 115 -23 115 -23 26 -150 c 256,14,15
 21 -157 21 -157 12 -157 c 256,16,17
 -3 -157 -3 -157 -3 -141 c 256,18,19
 -3 -138 -3 -138 11 -116.5 c 256,20,21
 25 -95 25 -95 38 -59.5 c 256,22,23
 51 -24 51 -24 51 13 c 256,0,1
EndSplineSet
EndChar

StartChar: scripts.lcomma
Encoding: 403 57723 147
Width: 0
Flags: W
HStem: -161 318<-56 -12>
VStem: -115 64<-95.4741 33.8953>
LayerCount: 2
Fore
SplineSet
-51 -13 m 256,0,1
 -51 -53 -51 -53 -34.5 -84 c 256,2,3
 -18 -115 -18 -115 -18 -122 c 256,4,5
 -18 -138 -18 -138 -29 -149.5 c 256,6,7
 -40 -161 -40 -161 -56 -161 c 256,8,9
 -84 -161 -84 -161 -99.5 -127 c 256,10,11
 -115 -93 -115 -93 -115 -60 c 256,12,13
 -115 23 -115 23 -26 150 c 256,14,15
 -21 157 -21 157 -12 157 c 256,16,17
 3 157 3 157 3 141 c 256,18,19
 3 138 3 138 -11 116.5 c 256,20,21
 -25 95 -25 95 -38 59.5 c 256,22,23
 -51 24 -51 24 -51 -13 c 256,0,1
EndSplineSet
EndChar

StartChar: scripts.rvarcomma
Encoding: 404 57724 148
Width: 62
Flags: W
VStem: -79 29<-168.985 -160>
LayerCount: 2
Fore
SplineSet
-65 -169 m 256,0,1
 -79 -169 -79 -169 -79 -154 c 256,2,3
 -79 -150 -79 -150 -78 -147 c 258,4,-1
 29 168 l 258,5,6
 37 193 37 193 63 193 c 256,7,8
 80 193 80 193 91.5 181 c 256,9,10
 103 169 103 169 103 154 c 256,11,12
 103 150 103 150 99 139 c 258,13,-1
 -50 -160 l 258,14,15
 -56 -169 -56 -169 -65 -169 c 256,0,1
EndSplineSet
EndChar

StartChar: scripts.lvarcomma
Encoding: 405 57725 149
Width: 62
Flags: W
VStem: 50 29<160 168.985>
LayerCount: 2
Fore
SplineSet
65 169 m 256,0,1
 79 169 79 169 79 154 c 256,2,3
 79 150 79 150 78 147 c 258,4,-1
 -29 -168 l 258,5,6
 -37 -193 -37 -193 -63 -193 c 256,7,8
 -80 -193 -80 -193 -91.5 -181 c 256,9,10
 -103 -169 -103 -169 -103 -154 c 256,11,12
 -103 -150 -103 -150 -99 -139 c 258,13,-1
 50 160 l 258,14,15
 56 169 56 169 65 169 c 256,0,1
EndSplineSet
EndChar

StartChar: scripts.arpeggio
Encoding: 406 57726 150
Width: 203
Flags: W
VStem: -1 114<31 96.9402> 92 114<159.06 225>
DStem2: 63 309 75 259 0.771086 -0.63673<-10.113 74.0986> 130 -3 141 -53 0.768702 -0.639607<-33.0663 51.3057>
LayerCount: 2
Fore
SplineSet
-1 77 m 256,0,1
 -1 94 -1 94 22 113.5 c 256,2,3
 45 133 45 133 68.5 157.5 c 256,4,5
 92 182 92 182 92 211 c 256,6,7
 92 239 92 239 75 259 c 257,8,-1
 43 285 l 258,9,10
 37 289 37 289 37 297 c 256,11,12
 37 303 37 303 41.5 308 c 256,13,14
 46 313 46 313 53 313 c 256,15,16
 59 313 59 313 63 309 c 258,17,-1
 195 200 l 258,18,19
 206 192 206 192 206 179 c 256,20,21
 206 162 206 162 183 142.5 c 256,22,23
 160 123 160 123 136.5 98.5 c 256,24,25
 113 74 113 74 113 45 c 256,26,27
 113 17 113 17 130 -3 c 257,28,-1
 162 -29 l 258,29,30
 168 -33 168 -33 168 -41 c 256,31,32
 168 -47 168 -47 163.5 -52 c 256,33,34
 159 -57 159 -57 152 -57 c 256,35,36
 146 -57 146 -57 141 -53 c 258,37,-1
 10 56 l 258,38,39
 -1 65 -1 65 -1 77 c 256,0,1
EndSplineSet
EndChar

StartChar: scripts.trill_element
Encoding: 407 57727 151
Width: 256
Flags: W
HStem: -1 114<159.06 225> 92 114<31 96.9402>
DStem2: -53 63 -3 75 0.63673 0.771086<-10.113 74.0986> 259 130 309 141 0.639607 0.768702<-33.0663 51.3057>
LayerCount: 2
Fore
SplineSet
179 -1 m 256,0,1
 162 -1 162 -1 142.5 22 c 256,2,3
 123 45 123 45 98.5 68.5 c 256,4,5
 74 92 74 92 45 92 c 256,6,7
 17 92 17 92 -3 75 c 257,8,-1
 -29 43 l 258,9,10
 -33 37 -33 37 -41 37 c 256,11,12
 -47 37 -47 37 -52 41.5 c 256,13,14
 -57 46 -57 46 -57 53 c 256,15,16
 -57 59 -57 59 -53 63 c 258,17,-1
 56 195 l 258,18,19
 64 206 64 206 77 206 c 256,20,21
 94 206 94 206 113.5 183 c 256,22,23
 133 160 133 160 157.5 136.5 c 256,24,25
 182 113 182 113 211 113 c 256,26,27
 239 113 239 113 259 130 c 257,28,-1
 285 162 l 258,29,30
 289 168 289 168 297 168 c 256,31,32
 303 168 303 168 308 163.5 c 256,33,34
 313 159 313 159 313 152 c 256,35,36
 313 146 313 146 309 141 c 258,37,-1
 200 10 l 258,38,39
 191 -1 191 -1 179 -1 c 256,0,1
EndSplineSet
EndChar

StartChar: scripts.arpeggio.arrow.M1
Encoding: 408 57728 152
Width: 203
Flags: W
HStem: 0 314
VStem: -61 327
LayerCount: 2
Fore
SplineSet
43 285 m 258,0,1
 37 290 37 290 37 298 c 256,2,3
 37 305 37 305 42 309.5 c 256,4,5
 47 314 47 314 53 314 c 256,6,7
 58 314 58 314 63 309 c 258,8,-1
 152 215 l 258,9,10
 167 198 167 198 172 172 c 257,11,-1
 252 210 l 258,12,13
 266 217 266 217 266 205 c 256,14,15
 266 198 266 198 234.5 167.5 c 256,16,17
 203 137 203 137 163.5 90.5 c 256,18,19
 124 44 124 44 109 3 c 257,20,21
 109 0 109 0 101 0 c 256,22,23
 98 0 98 0 97 2 c 256,24,25
 82 43 82 43 42 89.5 c 256,26,27
 2 136 2 136 -29.5 167 c 256,28,29
 -61 198 -61 198 -61 205 c 256,30,31
 -61 210 -61 210 -57 211.5 c 256,32,33
 -53 213 -53 213 -48 211 c 258,34,-1
 46 166 l 257,35,36
 50 172 50 172 59.5 182.5 c 256,37,38
 69 193 69 193 74.5 199.5 c 256,39,40
 80 206 80 206 84.5 215 c 256,41,42
 89 224 89 224 89 231 c 256,43,44
 89 247 89 247 75 259 c 258,45,-1
 43 285 l 258,0,1
EndSplineSet
EndChar

StartChar: scripts.arpeggio.arrow.1
Encoding: 409 57729 153
Width: 203
Flags: W
HStem: -58 314
VStem: -61 327
LayerCount: 2
Fore
SplineSet
162 -29 m 258,0,1
 168 -34 168 -34 168 -42 c 256,2,3
 168 -49 168 -49 163 -53.5 c 256,4,5
 158 -58 158 -58 152 -58 c 256,6,7
 147 -58 147 -58 141 -53 c 258,8,-1
 53 41 l 258,9,10
 38 58 38 58 33 84 c 257,11,-1
 -47 46 l 258,12,13
 -61 39 -61 39 -61 51 c 256,14,15
 -61 58 -61 58 -29.5 88.5 c 256,16,17
 2 119 2 119 41.5 165.5 c 256,18,19
 81 212 81 212 96 253 c 257,20,21
 96 256 96 256 103 256 c 256,22,23
 106 256 106 256 108 254 c 257,24,25
 123 213 123 213 163 166 c 256,26,27
 203 119 203 119 234.5 88.5 c 256,28,29
 266 58 266 58 266 51 c 256,30,31
 266 46 266 46 262 44.5 c 256,32,33
 258 43 258 43 253 45 c 258,34,-1
 159 90 l 257,35,36
 155 84 155 84 145.5 73.5 c 256,37,38
 136 63 136 63 130.5 56.5 c 256,39,40
 125 50 125 50 120.5 41 c 256,41,42
 116 32 116 32 116 25 c 256,43,44
 116 9 116 9 130 -3 c 258,45,-1
 162 -29 l 258,0,1
EndSplineSet
EndChar

StartChar: scripts.trilelement
Encoding: 410 57730 154
Width: 105
Flags: W
HStem: -128 256
VStem: -124 248
LayerCount: 2
Fore
SplineSet
-82 1 m 257,0,-1
 -90 -11 l 257,1,-1
 -124 11 l 257,2,-1
 -52 119 l 258,3,4
 -46 128 -46 128 -35 128 c 256,5,6
 -26 128 -26 128 -19 121 c 258,7,-1
 82 -1 l 257,8,-1
 90 11 l 257,9,-1
 124 -11 l 257,10,-1
 52 -119 l 258,11,12
 46 -128 46 -128 35 -128 c 256,13,14
 26 -128 26 -128 19 -121 c 258,15,-1
 -82 1 l 257,0,-1
EndSplineSet
EndChar

StartChar: scripts.prall
Encoding: 411 57731 155
Width: 212
Flags: W
HStem: -128 256
DStem2: -254 -25 -220 -47 0.550681 0.834716<-10.6515 58.0475> 188 -1 254 25 0.550681 0.834716<0 68.6991>
LayerCount: 2
Fore
SplineSet
220 47 m 258,0,1
 226 56 226 56 237 56 c 256,2,3
 245 56 245 56 251 50 c 256,4,5
 257 44 257 44 257 36 c 256,6,7
 257 29 257 29 254 25 c 258,8,-1
 159 -119 l 258,9,10
 153 -128 153 -128 141 -128 c 256,11,12
 132 -128 132 -128 126 -121 c 258,13,-1
 26 1 l 257,14,-1
 -54 -119 l 258,15,16
 -60 -128 -60 -128 -72 -128 c 256,17,18
 -81 -128 -81 -128 -87 -121 c 258,19,-1
 -188 1 l 257,20,-1
 -220 -47 l 258,21,22
 -226 -56 -226 -56 -237 -56 c 256,23,24
 -245 -56 -245 -56 -251 -50 c 256,25,26
 -257 -44 -257 -44 -257 -36 c 256,27,28
 -257 -29 -257 -29 -254 -25 c 258,29,-1
 -159 119 l 258,30,31
 -153 128 -153 128 -141 128 c 256,32,33
 -132 128 -132 128 -126 121 c 258,34,-1
 -26 -1 l 257,35,-1
 54 119 l 258,36,37
 60 128 60 128 72 128 c 256,38,39
 81 128 81 128 87 121 c 258,40,-1
 188 -1 l 257,41,-1
 220 47 l 258,0,1
EndSplineSet
EndChar

StartChar: scripts.mordent
Encoding: 412 57732 156
Width: 212
Flags: W
VStem: -20 40<-170.999 -68 68 170.999>
DStem2: -254 -25 -220 -47 0.550681 0.834716<-10.6515 58.0475> 188 -1 254 25 0.550681 0.834716<0 68.6991>
LayerCount: 2
Fore
SplineSet
20 -151 m 258,0,1
 20 -159 20 -159 14 -165 c 256,2,3
 8 -171 8 -171 0 -171 c 256,4,5
 -8 -171 -8 -171 -14 -165 c 256,6,7
 -20 -159 -20 -159 -20 -151 c 258,8,-1
 -20 -68 l 257,9,-1
 -54 -119 l 258,10,11
 -60 -128 -60 -128 -72 -128 c 256,12,13
 -81 -128 -81 -128 -87 -121 c 258,14,-1
 -188 1 l 257,15,-1
 -220 -47 l 258,16,17
 -226 -56 -226 -56 -237 -56 c 256,18,19
 -245 -56 -245 -56 -251 -50 c 256,20,21
 -257 -44 -257 -44 -257 -36 c 256,22,23
 -257 -29 -257 -29 -254 -25 c 258,24,-1
 -159 119 l 258,25,26
 -153 128 -153 128 -141 128 c 256,27,28
 -132 128 -132 128 -126 121 c 258,29,-1
 -26 -1 l 257,30,-1
 -20 6 l 257,31,-1
 -20 151 l 258,32,33
 -20 159 -20 159 -14 165 c 256,34,35
 -8 171 -8 171 0 171 c 256,36,37
 8 171 8 171 14 165 c 256,38,39
 20 159 20 159 20 151 c 258,40,-1
 20 68 l 257,41,-1
 54 119 l 258,42,43
 60 128 60 128 72 128 c 256,44,45
 81 128 81 128 87 121 c 258,46,-1
 188 -1 l 257,47,-1
 220 47 l 258,48,49
 226 56 226 56 237 56 c 256,50,51
 245 56 245 56 251 50 c 256,52,53
 257 44 257 44 257 36 c 256,54,55
 257 29 257 29 254 25 c 258,56,-1
 159 -119 l 258,57,58
 153 -128 153 -128 141 -128 c 256,59,60
 132 -128 132 -128 126 -121 c 258,61,-1
 26 1 l 257,62,-1
 20 -6 l 257,63,-1
 20 -151 l 258,0,1
EndSplineSet
EndChar

StartChar: scripts.prallprall
Encoding: 413 57733 157
Width: 319
Flags: W
HStem: -128 256
DStem2: -360 -25 -327 -47 0.550681 0.834716<-11.804 57.4969> 295 -1 360 25 0.550681 0.834716<0 69.3008>
LayerCount: 2
Fore
SplineSet
327 47 m 258,0,1
 333 56 333 56 344 56 c 256,2,3
 352 56 352 56 358.5 50 c 256,4,5
 365 44 365 44 365 36 c 256,6,7
 365 31 365 31 360 25 c 258,8,-1
 265 -119 l 258,9,10
 259 -128 259 -128 249 -128 c 256,11,12
 239 -128 239 -128 232 -121 c 258,13,-1
 132 1 l 257,14,-1
 52 -119 l 258,15,16
 46 -128 46 -128 35 -128 c 256,17,18
 26 -128 26 -128 19 -121 c 258,19,-1
 -82 1 l 257,20,-1
 -162 -119 l 258,21,22
 -168 -128 -168 -128 -178 -128 c 256,23,24
 -188 -128 -188 -128 -195 -121 c 258,25,-1
 -295 1 l 257,26,-1
 -327 -47 l 258,27,28
 -333 -56 -333 -56 -344 -56 c 256,29,30
 -352 -56 -352 -56 -358.5 -50 c 256,31,32
 -365 -44 -365 -44 -365 -36 c 256,33,34
 -365 -31 -365 -31 -360 -25 c 258,35,-1
 -265 119 l 258,36,37
 -259 128 -259 128 -248 128 c 256,38,39
 -239 128 -239 128 -232 121 c 258,40,-1
 -132 -1 l 257,41,-1
 -52 119 l 258,42,43
 -46 128 -46 128 -35 128 c 256,44,45
 -26 128 -26 128 -19 121 c 258,46,-1
 82 -1 l 257,47,-1
 162 119 l 258,48,49
 168 128 168 128 178 128 c 256,50,51
 188 128 188 128 195 121 c 258,52,-1
 295 -1 l 257,53,-1
 327 47 l 258,0,1
EndSplineSet
EndChar

StartChar: scripts.prallmordent
Encoding: 414 57734 158
Width: 319
Flags: W
VStem: 86 41<-170.999 -68 68 170.999>
DStem2: -360 -25 -327 -47 0.550681 0.834716<-11.804 57.4969> 295 -1 360 25 0.550681 0.834716<0 69.3008>
LayerCount: 2
Fore
SplineSet
127 -151 m 258,0,1
 127 -159 127 -159 121 -165 c 256,2,3
 115 -171 115 -171 106.5 -171 c 256,4,5
 98 -171 98 -171 92 -165 c 256,6,7
 86 -159 86 -159 86 -151 c 258,8,-1
 86 -68 l 257,9,-1
 52 -119 l 258,10,11
 46 -128 46 -128 35 -128 c 256,12,13
 26 -128 26 -128 19 -121 c 258,14,-1
 -82 1 l 257,15,-1
 -162 -119 l 258,16,17
 -168 -128 -168 -128 -178 -128 c 256,18,19
 -188 -128 -188 -128 -195 -121 c 258,20,-1
 -295 1 l 257,21,-1
 -327 -47 l 258,22,23
 -333 -56 -333 -56 -344 -56 c 256,24,25
 -352 -56 -352 -56 -358.5 -50 c 256,26,27
 -365 -44 -365 -44 -365 -36 c 256,28,29
 -365 -31 -365 -31 -360 -25 c 258,30,-1
 -265 119 l 258,31,32
 -259 128 -259 128 -248 128 c 256,33,34
 -239 128 -239 128 -232 121 c 258,35,-1
 -132 -1 l 257,36,-1
 -52 119 l 258,37,38
 -46 128 -46 128 -35 128 c 256,39,40
 -26 128 -26 128 -19 121 c 258,41,-1
 82 -1 l 257,42,-1
 86 6 l 257,43,-1
 86 151 l 258,44,45
 86 159 86 159 92 165 c 256,46,47
 98 171 98 171 106.5 171 c 256,48,49
 115 171 115 171 121 165 c 256,50,51
 127 159 127 159 127 151 c 258,52,-1
 127 68 l 257,53,-1
 162 119 l 258,54,55
 168 128 168 128 178 128 c 256,56,57
 188 128 188 128 195 121 c 258,58,-1
 295 -1 l 257,59,-1
 327 47 l 258,60,61
 333 56 333 56 344 56 c 256,62,63
 352 56 352 56 358.5 50 c 256,64,65
 365 44 365 44 365 36 c 256,66,67
 365 31 365 31 360 25 c 258,68,-1
 265 -119 l 258,69,70
 259 -128 259 -128 249 -128 c 256,71,72
 239 -128 239 -128 232 -121 c 258,73,-1
 132 1 l 257,74,-1
 127 -6 l 257,75,-1
 127 -151 l 258,0,1
EndSplineSet
EndChar

StartChar: scripts.upprall
Encoding: 415 57735 159
Width: 319
Flags: W
VStem: -402 41<-255.6 -71.8452>
DStem2: -360 -25 -327 -47 0.550681 0.834716<-86.8714 57.4969> 295 -1 360 25 0.550681 0.834716<0 69.3008>
LayerCount: 2
Fore
SplineSet
-344 -312 m 256,0,1
 -363 -312 -363 -312 -382.5 -262 c 256,2,3
 -402 -212 -402 -212 -402 -164 c 256,4,5
 -402 -88 -402 -88 -360 -25 c 258,6,-1
 -265 119 l 258,7,8
 -259 128 -259 128 -248 128 c 256,9,10
 -239 128 -239 128 -232 121 c 258,11,-1
 -132 -1 l 257,12,-1
 -52 119 l 258,13,14
 -46 128 -46 128 -35 128 c 256,15,16
 -26 128 -26 128 -19 121 c 258,17,-1
 82 -1 l 257,18,-1
 162 119 l 258,19,20
 168 128 168 128 178 128 c 256,21,22
 188 128 188 128 195 121 c 258,23,-1
 295 -1 l 257,24,-1
 327 47 l 258,25,26
 333 56 333 56 344 56 c 256,27,28
 352 56 352 56 358.5 50 c 256,29,30
 365 44 365 44 365 36 c 256,31,32
 365 31 365 31 360 25 c 258,33,-1
 265 -119 l 258,34,35
 259 -128 259 -128 249 -128 c 256,36,37
 239 -128 239 -128 232 -121 c 258,38,-1
 132 1 l 257,39,-1
 52 -119 l 258,40,41
 46 -128 46 -128 35 -128 c 256,42,43
 26 -128 26 -128 19 -121 c 258,44,-1
 -82 1 l 257,45,-1
 -162 -119 l 258,46,47
 -168 -128 -168 -128 -178 -128 c 256,48,49
 -188 -128 -188 -128 -195 -121 c 258,50,-1
 -295 1 l 257,51,-1
 -327 -47 l 258,52,53
 -361 -98 -361 -98 -361 -164 c 256,54,55
 -361 -198 -361 -198 -351.5 -226.5 c 256,56,57
 -342 -255 -342 -255 -333 -271.5 c 256,58,59
 -324 -288 -324 -288 -324 -292 c 256,60,61
 -324 -300 -324 -300 -330 -306 c 256,62,63
 -336 -312 -336 -312 -344 -312 c 256,0,1
EndSplineSet
EndChar

StartChar: scripts.upmordent
Encoding: 416 57736 160
Width: 319
Flags: W
VStem: -402 41<-255.6 -71.8452> 86 41<-170.999 -68 68 170.999>
DStem2: -360 -25 -327 -47 0.550681 0.834716<-86.8714 57.4969> 295 -1 360 25 0.550681 0.834716<0 69.3008>
LayerCount: 2
Fore
SplineSet
-344 -312 m 256,0,1
 -363 -312 -363 -312 -382.5 -262 c 256,2,3
 -402 -212 -402 -212 -402 -164 c 256,4,5
 -402 -88 -402 -88 -360 -25 c 258,6,-1
 -265 119 l 258,7,8
 -259 128 -259 128 -248 128 c 256,9,10
 -239 128 -239 128 -232 121 c 258,11,-1
 -132 -1 l 257,12,-1
 -52 119 l 258,13,14
 -46 128 -46 128 -35 128 c 256,15,16
 -26 128 -26 128 -19 121 c 258,17,-1
 82 -1 l 257,18,-1
 86 6 l 257,19,-1
 86 151 l 258,20,21
 86 159 86 159 92 165 c 256,22,23
 98 171 98 171 106.5 171 c 256,24,25
 115 171 115 171 121 165 c 256,26,27
 127 159 127 159 127 151 c 258,28,-1
 127 68 l 257,29,-1
 162 119 l 258,30,31
 168 128 168 128 178 128 c 256,32,33
 188 128 188 128 195 121 c 258,34,-1
 295 -1 l 257,35,-1
 327 47 l 258,36,37
 333 56 333 56 344 56 c 256,38,39
 352 56 352 56 358.5 50 c 256,40,41
 365 44 365 44 365 36 c 256,42,43
 365 31 365 31 360 25 c 258,44,-1
 265 -119 l 258,45,46
 259 -128 259 -128 249 -128 c 256,47,48
 239 -128 239 -128 232 -121 c 258,49,-1
 132 1 l 257,50,-1
 127 -6 l 257,51,-1
 127 -151 l 258,52,53
 127 -159 127 -159 121 -165 c 256,54,55
 115 -171 115 -171 106.5 -171 c 256,56,57
 98 -171 98 -171 92 -165 c 256,58,59
 86 -159 86 -159 86 -151 c 258,60,-1
 86 -68 l 257,61,-1
 52 -119 l 258,62,63
 46 -128 46 -128 35 -128 c 256,64,65
 26 -128 26 -128 19 -121 c 258,66,-1
 -82 1 l 257,67,-1
 -162 -119 l 258,68,69
 -168 -128 -168 -128 -178 -128 c 256,70,71
 -188 -128 -188 -128 -195 -121 c 258,72,-1
 -295 1 l 257,73,-1
 -327 -47 l 258,74,75
 -361 -98 -361 -98 -361 -164 c 256,76,77
 -361 -198 -361 -198 -351.5 -226.5 c 256,78,79
 -342 -255 -342 -255 -333 -271.5 c 256,80,81
 -324 -288 -324 -288 -324 -292 c 256,82,83
 -324 -300 -324 -300 -330 -306 c 256,84,85
 -336 -312 -336 -312 -344 -312 c 256,0,1
EndSplineSet
EndChar

StartChar: scripts.pralldown
Encoding: 417 57737 161
Width: 319
Flags: W
VStem: 361 41<-255.6 -71.8452>
DStem2: -327 47 -360 25 0.550681 -0.834716<-11.5958 57.6881> 360 -25 295 1 0.550681 -0.834716<-57.4969 86.8714>
LayerCount: 2
Fore
SplineSet
344 -312 m 256,0,1
 336 -312 336 -312 330 -306 c 256,2,3
 324 -300 324 -300 324 -292 c 256,4,5
 324 -288 324 -288 333 -271.5 c 256,6,7
 342 -255 342 -255 351.5 -226.5 c 256,8,9
 361 -198 361 -198 361 -164 c 256,10,11
 361 -98 361 -98 327 -47 c 258,12,-1
 295 1 l 257,13,-1
 195 -121 l 258,14,15
 189 -128 189 -128 178.5 -128 c 256,16,17
 168 -128 168 -128 162 -119 c 258,18,-1
 82 1 l 257,19,-1
 -19 -121 l 258,20,21
 -25 -128 -25 -128 -35 -128 c 256,22,23
 -46 -128 -46 -128 -52 -119 c 258,24,-1
 -132 1 l 257,25,-1
 -232 -121 l 258,26,27
 -238 -128 -238 -128 -248.5 -128 c 256,28,29
 -259 -128 -259 -128 -265 -119 c 258,30,-1
 -360 25 l 258,31,32
 -364 31 -364 31 -365 36 c 257,33,34
 -365 44 -365 44 -358.5 50 c 256,35,36
 -352 56 -352 56 -344 56 c 256,37,38
 -333 56 -333 56 -327 47 c 258,39,-1
 -295 -1 l 257,40,-1
 -195 121 l 258,41,42
 -189 128 -189 128 -178.5 128 c 256,43,44
 -168 128 -168 128 -162 119 c 258,45,-1
 -82 -1 l 257,46,-1
 19 121 l 258,47,48
 25 128 25 128 35 128 c 256,49,50
 46 128 46 128 52 119 c 258,51,-1
 132 -1 l 257,52,-1
 232 121 l 258,53,54
 238 128 238 128 248 128 c 256,55,56
 259 128 259 128 265 119 c 258,57,-1
 360 -25 l 258,58,59
 402 -88 402 -88 402 -164 c 256,60,61
 402 -212 402 -212 382.5 -262 c 256,62,63
 363 -312 363 -312 344 -312 c 256,0,1
EndSplineSet
EndChar

StartChar: scripts.downprall
Encoding: 418 57738 162
Width: 319
Flags: W
VStem: -402 41<5.37848 184.301>
DStem2: 295 -1 360 25 0.550681 0.834716<0 69.3008>
LayerCount: 2
Fore
SplineSet
-402 92 m 256,0,1
 -402 143 -402 143 -382 192 c 256,2,3
 -362 241 -362 241 -344 241 c 256,4,5
 -332 241 -332 241 -326 230 c 256,6,7
 -321 218 -321 218 -327 209 c 256,8,9
 -361 158 -361 158 -361 92 c 256,10,11
 -361 44 -361 44 -342 4 c 257,12,-1
 -265 119 l 258,13,14
 -259 128 -259 128 -248 128 c 256,15,16
 -239 128 -239 128 -232 121 c 258,17,-1
 -132 -1 l 257,18,-1
 -52 119 l 258,19,20
 -46 128 -46 128 -35 128 c 256,21,22
 -26 128 -26 128 -19 121 c 258,23,-1
 82 -1 l 257,24,-1
 162 119 l 258,25,26
 168 128 168 128 178 128 c 256,27,28
 188 128 188 128 195 121 c 258,29,-1
 295 -1 l 257,30,-1
 327 47 l 258,31,32
 333 56 333 56 344 56 c 256,33,34
 352 56 352 56 358.5 50 c 256,35,36
 365 44 365 44 365 36 c 256,37,38
 365 31 365 31 360 25 c 258,39,-1
 265 -119 l 258,40,41
 259 -128 259 -128 249 -128 c 256,42,43
 239 -128 239 -128 232 -121 c 258,44,-1
 132 1 l 257,45,-1
 52 -119 l 258,46,47
 46 -128 46 -128 35 -128 c 256,48,49
 26 -128 26 -128 19 -121 c 258,50,-1
 -82 1 l 257,51,-1
 -162 -119 l 258,52,53
 -168 -128 -168 -128 -178 -128 c 256,54,55
 -188 -128 -188 -128 -195 -121 c 258,56,-1
 -295 1 l 257,57,-1
 -327 -47 l 258,58,59
 -333 -56 -333 -56 -344 -56 c 256,60,61
 -364 -56 -364 -56 -383 -5.5 c 256,62,63
 -402 45 -402 45 -402 92 c 256,0,1
EndSplineSet
EndChar

StartChar: scripts.downmordent
Encoding: 419 57739 163
Width: 319
Flags: W
VStem: -402 41<5.37848 184.301> 86 41<-170.999 -68 68 170.999>
DStem2: 295 -1 360 25 0.550681 0.834716<0 69.3008>
LayerCount: 2
Fore
SplineSet
-402 92 m 256,0,1
 -402 143 -402 143 -382 192 c 256,2,3
 -362 241 -362 241 -344 241 c 256,4,5
 -332 241 -332 241 -326 230 c 256,6,7
 -321 218 -321 218 -327 209 c 256,8,9
 -361 158 -361 158 -361 92 c 256,10,11
 -361 44 -361 44 -342 4 c 257,12,-1
 -265 119 l 258,13,14
 -259 128 -259 128 -248 128 c 256,15,16
 -239 128 -239 128 -232 121 c 258,17,-1
 -132 -1 l 257,18,-1
 -52 119 l 258,19,20
 -46 128 -46 128 -35 128 c 256,21,22
 -26 128 -26 128 -19 121 c 258,23,-1
 82 -1 l 257,24,-1
 86 6 l 257,25,-1
 86 151 l 258,26,27
 86 159 86 159 92 165 c 256,28,29
 98 171 98 171 106.5 171 c 256,30,31
 115 171 115 171 121 165 c 256,32,33
 127 159 127 159 127 151 c 258,34,-1
 127 68 l 257,35,-1
 162 119 l 258,36,37
 168 128 168 128 178 128 c 256,38,39
 188 128 188 128 195 121 c 258,40,-1
 295 -1 l 257,41,-1
 327 47 l 258,42,43
 333 56 333 56 344 56 c 256,44,45
 352 56 352 56 358.5 50 c 256,46,47
 365 44 365 44 365 36 c 256,48,49
 365 31 365 31 360 25 c 258,50,-1
 265 -119 l 258,51,52
 259 -128 259 -128 249 -128 c 256,53,54
 239 -128 239 -128 232 -121 c 258,55,-1
 132 1 l 257,56,-1
 127 -6 l 257,57,-1
 127 -151 l 258,58,59
 127 -159 127 -159 121 -165 c 256,60,61
 115 -171 115 -171 106.5 -171 c 256,62,63
 98 -171 98 -171 92 -165 c 256,64,65
 86 -159 86 -159 86 -151 c 258,66,-1
 86 -68 l 257,67,-1
 52 -119 l 258,68,69
 46 -128 46 -128 35 -128 c 256,70,71
 26 -128 26 -128 19 -121 c 258,72,-1
 -82 1 l 257,73,-1
 -162 -119 l 258,74,75
 -168 -128 -168 -128 -178 -128 c 256,76,77
 -188 -128 -188 -128 -195 -121 c 258,78,-1
 -295 1 l 257,79,-1
 -327 -47 l 258,80,81
 -333 -56 -333 -56 -344 -56 c 256,82,83
 -364 -56 -364 -56 -383 -5.5 c 256,84,85
 -402 45 -402 45 -402 92 c 256,0,1
EndSplineSet
EndChar

StartChar: scripts.prallup
Encoding: 420 57740 164
Width: 319
Flags: W
VStem: 361 41<5.37848 184.301>
DStem2: -327 47 -360 25 0.550681 -0.834716<-11.5958 57.6881>
LayerCount: 2
Fore
SplineSet
402 92 m 256,0,1
 402 45 402 45 383.5 -5.5 c 256,2,3
 365 -56 365 -56 344 -56 c 256,4,5
 333 -56 333 -56 327 -47 c 258,6,-1
 295 1 l 257,7,-1
 195 -121 l 258,8,9
 189 -128 189 -128 178.5 -128 c 256,10,11
 168 -128 168 -128 162 -119 c 258,12,-1
 82 1 l 257,13,-1
 -19 -121 l 258,14,15
 -25 -128 -25 -128 -35 -128 c 256,16,17
 -46 -128 -46 -128 -52 -119 c 258,18,-1
 -132 1 l 257,19,-1
 -232 -121 l 258,20,21
 -238 -128 -238 -128 -248.5 -128 c 256,22,23
 -259 -128 -259 -128 -265 -119 c 258,24,-1
 -360 25 l 258,25,26
 -364 31 -364 31 -365 36 c 257,27,28
 -365 44 -365 44 -358.5 50 c 256,29,30
 -352 56 -352 56 -344 56 c 256,31,32
 -333 56 -333 56 -327 47 c 258,33,-1
 -295 -1 l 257,34,-1
 -195 121 l 258,35,36
 -189 128 -189 128 -178.5 128 c 256,37,38
 -168 128 -168 128 -162 119 c 258,39,-1
 -82 -1 l 257,40,-1
 19 121 l 258,41,42
 25 128 25 128 35 128 c 256,43,44
 46 128 46 128 52 119 c 258,45,-1
 132 -1 l 257,46,-1
 232 121 l 258,47,48
 238 128 238 128 248 128 c 256,49,50
 259 128 259 128 265 119 c 258,51,-1
 342 4 l 257,52,53
 361 44 361 44 361 92 c 256,54,55
 361 158 361 158 327 209 c 256,56,57
 324 214 324 214 324 220 c 256,58,59
 324 225 324 225 327 230 c 256,60,61
 332 241 332 241 344 241 c 256,62,63
 362 241 362 241 382 192 c 256,64,65
 402 143 402 143 402 92 c 256,0,1
EndSplineSet
EndChar

StartChar: scripts.lineprall
Encoding: 421 57741 165
Width: 319
Flags: W
VStem: -365 41<32 496.986>
DStem2: 295 -1 360 25 0.550681 0.834716<0 69.3008>
LayerCount: 2
Fore
SplineSet
327 47 m 258,0,1
 333 56 333 56 344 56 c 256,2,3
 352 56 352 56 358.5 50 c 256,4,5
 365 44 365 44 365 36 c 256,6,7
 365 31 365 31 360 25 c 258,8,-1
 265 -119 l 258,9,10
 259 -128 259 -128 248 -128 c 256,11,12
 239 -128 239 -128 232 -121 c 258,13,-1
 132 1 l 257,14,-1
 52 -119 l 258,15,16
 46 -128 46 -128 35 -128 c 256,17,18
 26 -128 26 -128 19 -121 c 258,19,-1
 -82 1 l 257,20,-1
 -162 -119 l 258,21,22
 -168 -128 -168 -128 -178 -128 c 256,23,24
 -188 -128 -188 -128 -195 -121 c 258,25,-1
 -295 1 l 257,26,-1
 -327 -47 l 258,27,28
 -333 -56 -333 -56 -344 -56 c 256,29,30
 -352 -56 -352 -56 -358.5 -50 c 256,31,32
 -365 -44 -365 -44 -365 -36 c 258,33,-1
 -365 476 l 258,34,35
 -365 484 -365 484 -358.5 490.5 c 256,36,37
 -352 497 -352 497 -344 497 c 256,38,39
 -336 497 -336 497 -330 490.5 c 256,40,41
 -324 484 -324 484 -324 476 c 258,42,-1
 -324 32 l 257,43,-1
 -265 119 l 258,44,45
 -259 128 -259 128 -248 128 c 256,46,47
 -239 128 -239 128 -232 121 c 258,48,-1
 -132 -1 l 257,49,-1
 -52 119 l 258,50,51
 -46 128 -46 128 -35 128 c 256,52,53
 -26 128 -26 128 -19 121 c 258,54,-1
 82 -1 l 257,55,-1
 162 119 l 258,56,57
 168 128 168 128 178 128 c 256,58,59
 188 128 188 128 195 121 c 258,60,-1
 295 -1 l 257,61,-1
 327 47 l 258,0,1
EndSplineSet
EndChar

StartChar: scripts.caesura.curved
Encoding: 422 57742 166
Width: 512
Flags: W
VStem: 103 64<126.945 319.35>
DStem2: 156 -178 314 204.5 0.210889 0.97751<0 489.334>
LayerCount: 2
Fore
SplineSet
289 321 m 256,0,1
 302 321 302 321 311.5 311 c 256,2,3
 321 301 321 301 321 288 c 256,4,5
 321 256 321 256 314 204.5 c 256,6,7
 307 153 307 153 275.5 39.5 c 256,8,9
 244 -74 244 -74 190 -194 c 256,10,11
 185 -205 185 -205 173 -205 c 256,12,13
 163 -205 163 -205 157.5 -196 c 256,14,15
 152 -187 152 -187 156 -178 c 256,16,17
 240 13 240 13 257 290 c 256,18,19
 258 303 258 303 267.5 312 c 256,20,21
 277 321 277 321 289 321 c 256,0,1
19 -205 m 256,22,23
 11 -205 11 -205 5.5 -199 c 256,24,25
 0 -193 0 -193 0 -185 c 256,26,27
 0 -181 0 -181 8.5 -161.5 c 256,28,29
 17 -142 17 -142 30 -105.5 c 256,30,31
 43 -69 43 -69 57 -18.5 c 256,32,33
 71 32 71 32 84 114 c 256,34,35
 97 196 97 196 103 290 c 256,36,37
 104 303 104 303 113.5 312 c 256,38,39
 123 321 123 321 135 321 c 256,40,41
 148 321 148 321 157.5 311 c 256,42,43
 167 301 167 301 167 288 c 256,44,45
 167 256 167 256 160.5 204.5 c 256,46,47
 154 153 154 153 122 39.5 c 256,48,49
 90 -74 90 -74 37 -194 c 257,50,51
 31 -205 31 -205 19 -205 c 256,22,23
EndSplineSet
EndChar

StartChar: scripts.caesura.straight
Encoding: 423 57743 167
Width: 512
Flags: W
DStem2: 9 -186 83 -186 0.447966 0.89405<0.644716 562.684> 153 -186 226 -186 0.44646 0.894804<0.340908 562.185>
LayerCount: 2
Fore
SplineSet
153 -186 m 258,0,-1
 390 289 l 258,1,2
 398 307 398 307 420 307 c 258,3,-1
 453 307 l 258,4,5
 465 307 465 307 465 295 c 256,6,7
 465 291 465 291 464 289 c 258,8,-1
 226 -186 l 258,9,10
 218 -204 218 -204 197 -205 c 258,11,-1
 164 -205 l 258,12,13
 157 -205 157 -205 154 -199 c 256,14,15
 152 -196 152 -196 152 -191 c 256,16,17
 152 -189 152 -189 153 -186 c 258,0,-1
9 -186 m 258,18,-1
 247 289 l 258,19,20
 255 307 255 307 276 307 c 258,21,-1
 309 307 l 258,22,23
 321 307 321 307 322 295 c 256,24,25
 322 291 322 291 321 289 c 258,26,-1
 83 -186 l 258,27,28
 75 -204 75 -204 53 -205 c 258,29,-1
 20 -205 l 258,30,31
 8 -205 8 -205 8 -193 c 256,32,33
 8 -188 8 -188 9 -186 c 258,18,-1
EndSplineSet
EndChar

StartChar: flags.u3
Encoding: 424 57744 168
Width: 230
Flags: W
HStem: -20 20G<-16 0>
VStem: -16 16<-66.5464 0> 171 43<-682.94 -456.914>
LayerCount: 2
Fore
SplineSet
-16 -256 m 257,0,-1
 -16 0 l 257,1,-1
 0 0 l 257,2,3
 0 -55 0 -55 22 -113.5 c 256,4,5
 44 -172 44 -172 75 -222 c 256,6,7
 106 -272 106 -272 138 -323 c 256,8,9
 170 -374 170 -374 192 -432 c 256,10,11
 214 -490 214 -490 214 -546 c 256,12,13
 214 -648 214 -648 171 -758 c 257,14,15
 164 -770 164 -770 152 -770 c 256,16,17
 142 -770 142 -770 134 -762 c 256,18,19
 126 -754 126 -754 128 -742 c 257,20,21
 171 -641 171 -641 171 -546 c 256,22,23
 171 -497 171 -497 141 -438.5 c 256,24,25
 111 -380 111 -380 80 -343.5 c 256,26,27
 49 -307 49 -307 0 -256 c 257,28,-1
 -16 -256 l 257,0,-1
EndSplineSet
EndChar

StartChar: flags.u4
Encoding: 425 57745 169
Width: 230
Flags: W
HStem: -20 20G<-16 0>
VStem: -16 16<-512 -435 -275.792 -218 -61.4945 0> 171 43<-817.997 -614.461 -528.656 -409.85>
LayerCount: 2
Fore
SplineSet
0 0 m 257,0,1
 0 -50 0 -50 21.5 -101.5 c 256,2,3
 43 -153 43 -153 73.5 -197 c 256,4,5
 104 -241 104 -241 134.5 -285 c 256,6,7
 165 -329 165 -329 186.5 -380 c 256,8,9
 208 -431 208 -431 208 -481 c 256,10,11
 208 -528 208 -528 184 -579 c 257,12,13
 214 -640 214 -640 214 -698 c 256,14,15
 214 -789 214 -789 171 -886 c 257,16,17
 164 -898 164 -898 152 -898 c 256,18,19
 142 -898 142 -898 134 -890 c 256,20,21
 126 -882 126 -882 128 -870 c 257,22,23
 171 -784 171 -784 171 -698 c 256,24,25
 171 -663 171 -663 155.5 -626.5 c 256,26,27
 140 -590 140 -590 112 -554 c 256,28,29
 84 -518 84 -518 59.5 -492.5 c 256,30,31
 35 -467 35 -467 0 -435 c 257,32,-1
 0 -512 l 257,33,-1
 -16 -512 l 257,34,-1
 -16 0 l 257,35,-1
 0 0 l 257,0,1
157 -529 m 257,36,37
 164 -507 164 -507 164 -481 c 256,38,39
 164 -446 164 -446 149.5 -409.5 c 256,40,41
 135 -373 135 -373 107.5 -337 c 256,42,43
 80 -301 80 -301 57 -276 c 256,44,45
 34 -251 34 -251 0 -218 c 257,46,47
 0 -260 0 -260 17 -305 c 256,48,49
 34 -350 34 -350 53.5 -380 c 256,50,51
 73 -410 73 -410 107.5 -457 c 256,52,53
 142 -504 142 -504 157 -529 c 257,36,37
EndSplineSet
EndChar

StartChar: flags.u5
Encoding: 426 57746 170
Width: 212
Flags: W
HStem: -20 20G<-16 0>
VStem: -16 16<-768 -663 -500.997 -440 -278.418 -217 -61.6802 0> 154 44<-518.171 -398.028> 171 43<-1022.44 -825.817 -741.111 -620.94>
LayerCount: 2
Fore
SplineSet
0 -217 m 257,0,-1
 0 -222 l 258,1,2
 0 -262 0 -262 16.5 -305 c 256,3,4
 33 -348 33 -348 50.5 -375.5 c 256,5,6
 68 -403 68 -403 101.5 -450.5 c 256,7,8
 135 -498 135 -498 150 -519 c 257,9,10
 154 -504 154 -504 154 -485 c 256,11,12
 154 -440 154 -440 126.5 -386.5 c 256,13,14
 99 -333 99 -333 71 -298.5 c 256,15,16
 43 -264 43 -264 0 -217 c 257,0,-1
0 0 m 257,17,18
 0 -50 0 -50 20.5 -102 c 256,19,20
 41 -154 41 -154 70 -198.5 c 256,21,22
 99 -243 99 -243 128 -287.5 c 256,23,24
 157 -332 157 -332 177.5 -383.5 c 256,25,26
 198 -435 198 -435 198 -485 c 256,27,28
 198 -527 198 -527 178 -569 c 257,29,30
 208 -630 208 -630 208 -685 c 256,31,32
 208 -737 208 -737 183 -792 c 257,33,34
 214 -851 214 -851 214 -908 c 256,35,36
 214 -996 214 -996 171 -1087 c 257,37,38
 164 -1099 164 -1099 152 -1100 c 256,39,40
 142 -1100 142 -1100 134 -1091.5 c 256,41,42
 126 -1083 126 -1083 128 -1072 c 257,43,44
 171 -989 171 -989 171 -908 c 256,45,46
 171 -845 171 -845 123 -785 c 256,47,48
 75 -725 75 -725 0 -663 c 257,49,-1
 0 -768 l 257,50,-1
 -16 -768 l 257,51,-1
 -16 0 l 257,52,-1
 0 0 l 257,17,18
0 -440 m 257,53,-1
 0 -445 l 258,54,55
 0 -486 0 -486 17 -529 c 256,56,57
 34 -572 34 -572 52.5 -600 c 256,58,59
 71 -628 71 -628 105.5 -674 c 256,60,61
 140 -720 140 -720 155 -742 c 257,62,63
 164 -714 164 -714 164 -685 c 256,64,65
 164 -641 164 -641 135 -592 c 256,66,67
 106 -543 106 -543 76 -512 c 256,68,69
 46 -481 46 -481 0 -440 c 257,53,-1
EndSplineSet
EndChar

StartChar: flags.u6
Encoding: 427 57747 171
Width: 212
Flags: W
HStem: -20 20G<-16 0>
VStem: -16 16<-1024 -908 -747.418 -678 -518.793 -447 -287.557 -217 -62.0515 0> 154 44<-530.207 -401.624> 164 44<-1296.14 -1064.98 -983.333 -844.705 -765.468 -613.705>
LayerCount: 2
Fore
SplineSet
0 -217 m 257,0,-1
 0 -230 l 258,1,2
 0 -271 0 -271 16.5 -314.5 c 256,3,4
 33 -358 33 -358 50.5 -386.5 c 256,5,6
 68 -415 68 -415 101.5 -462.5 c 256,7,8
 135 -510 135 -510 150 -531 c 257,9,10
 154 -515 154 -515 154 -494 c 256,11,12
 154 -459 154 -459 140 -420.5 c 256,13,14
 126 -382 126 -382 100.5 -344 c 256,15,16
 75 -306 75 -306 53 -279 c 256,17,18
 31 -252 31 -252 0 -217 c 257,0,-1
0 0 m 257,19,20
 0 -50 0 -50 20.5 -103 c 256,21,22
 41 -156 41 -156 70 -201.5 c 256,23,24
 99 -247 99 -247 128 -292.5 c 256,25,26
 157 -338 157 -338 177.5 -390.5 c 256,27,28
 198 -443 198 -443 198 -494 c 256,29,30
 198 -538 198 -538 178 -583 c 257,31,32
 208 -645 208 -645 208 -700 c 256,33,34
 208 -757 208 -757 178 -814 c 257,35,36
 208 -876 208 -876 208 -931 c 256,37,38
 208 -979 208 -979 172 -1022 c 257,39,40
 214 -1096 214 -1096 214 -1161 c 256,41,42
 214 -1252 214 -1252 171 -1345 c 257,43,44
 164 -1356 164 -1356 152 -1356 c 256,45,46
 142 -1356 142 -1356 134 -1347.5 c 256,47,48
 126 -1339 126 -1339 128 -1328 c 257,49,50
 171 -1244 171 -1244 171 -1161 c 256,51,52
 171 -1126 171 -1126 155.5 -1091 c 256,53,54
 140 -1056 140 -1056 111.5 -1021.5 c 256,55,56
 83 -987 83 -987 59 -963 c 256,57,58
 35 -939 35 -939 0 -908 c 257,59,-1
 0 -1024 l 257,60,-1
 -16 -1024 l 257,61,-1
 -16 0 l 257,62,-1
 0 0 l 257,19,20
0 -447 m 257,63,-1
 0 -461 l 258,64,65
 0 -502 0 -502 16.5 -546 c 256,66,67
 33 -590 33 -590 51.5 -619 c 256,68,69
 70 -648 70 -648 103.5 -695 c 256,70,71
 137 -742 137 -742 152 -766 c 257,72,73
 164 -735 164 -735 164 -700 c 256,74,75
 164 -637 164 -637 118 -575 c 256,76,77
 72 -513 72 -513 0 -447 c 257,63,-1
0 -678 m 257,78,-1
 0 -691 l 258,79,80
 0 -731 0 -731 16.5 -774 c 256,81,82
 33 -817 33 -817 49.5 -843 c 256,83,84
 66 -869 66 -869 101 -917.5 c 256,85,86
 136 -966 136 -966 148 -984 c 257,87,88
 163 -960 163 -960 164 -931 c 257,89,90
 164 -868 164 -868 118 -806 c 256,91,92
 72 -744 72 -744 0 -678 c 257,78,-1
EndSplineSet
EndChar

StartChar: flags.d3
Encoding: 428 57748 172
Width: 275
Flags: W
HStem: 0 21G<-16 0>
VStem: -16 16<0 60.4214> 232 43<443.664 642.836>
LayerCount: 2
Fore
SplineSet
201 741 m 256,0,1
 225 741 225 741 250 666 c 256,2,3
 275 591 275 591 275 525 c 256,4,5
 275 468 275 468 247 411.5 c 256,6,7
 219 355 219 355 178 308.5 c 256,8,9
 137 262 137 262 96.5 216 c 256,10,11
 56 170 56 170 28 113.5 c 256,12,13
 0 57 0 57 0 0 c 257,14,-1
 -16 0 l 257,15,-1
 -16 256 l 257,16,-1
 0 256 l 257,17,18
 45 284 45 284 80 309.5 c 256,19,20
 115 335 115 335 152.5 369.5 c 256,21,22
 190 404 190 404 211 444 c 256,23,24
 232 484 232 484 232 525 c 256,25,26
 232 619 232 619 177 714 c 257,27,28
 175 725 175 725 183 733 c 256,29,30
 191 741 191 741 201 741 c 256,0,1
EndSplineSet
EndChar

StartChar: flags.ugrace
Encoding: 429 57749 173
Width: 212
Flags: W
DStem2: 199 -237 229 -275 0.779012 0.627009<-488.562 15.2325>
LayerCount: 2
Fore
SplineSet
-170 -534 m 258,0,-1
 199 -237 l 258,1,2
 206 -232 206 -232 214 -231 c 256,3,4
 225 -231 225 -231 232 -238.5 c 256,5,6
 239 -246 239 -246 239 -256 c 256,7,8
 239 -269 239 -269 229 -275 c 258,9,-1
 -138 -572 l 258,10,11
 -145 -577 -145 -577 -154 -578 c 256,12,13
 -165 -578 -165 -578 -172 -570.5 c 256,14,15
 -179 -563 -179 -563 -179 -553 c 256,16,17
 -179 -540 -179 -540 -170 -534 c 258,0,-1
EndSplineSet
EndChar

StartChar: flags.dgrace
Encoding: 430 57750 174
Width: 275
Flags: W
HStem: 228 322
DStem2: -186 547 -211 504 0.866551 -0.499089<-11.7597 558.526>
LayerCount: 2
Fore
SplineSet
-211 504 m 258,0,1
 -223 510 -223 510 -223 525 c 256,2,3
 -223 535 -223 535 -216 542.5 c 256,4,5
 -209 550 -209 550 -198 550 c 256,6,7
 -193 550 -193 550 -186 547 c 258,8,-1
 288 275 l 258,9,10
 301 268 301 268 301 254 c 256,11,12
 301 244 301 244 294 236 c 256,13,14
 287 228 287 228 275 228 c 256,15,16
 269 228 269 228 263 231 c 258,17,-1
 -211 504 l 258,0,1
EndSplineSet
EndChar

StartChar: flags.d4
Encoding: 431 57751 175
Width: 275
Flags: W
HStem: 0 21G<-16 0> 492 20G<-16 0>
VStem: -16 16<0 53.3408 205 281.897 435 512> 219 43<372.297 519.007 679.877 761.234> 232 43<605.958 763.528>
LayerCount: 2
Fore
SplineSet
0 205 m 257,0,1
 43 230 43 230 75.5 252 c 256,2,3
 108 274 108 274 143.5 306 c 256,4,5
 179 338 179 338 199 374.5 c 256,6,7
 219 411 219 411 219 449 c 256,8,9
 219 486 219 486 205 520 c 257,10,11
 185 497 185 497 140 455.5 c 256,12,13
 95 414 95 414 69.5 387 c 256,14,15
 44 360 44 360 22 317 c 256,16,17
 0 274 0 274 0 230 c 258,18,-1
 0 205 l 257,0,1
275 679 m 256,19,20
 275 618 275 618 237 560 c 257,21,22
 262 506 262 506 262 449 c 256,23,24
 262 398 262 398 235 349.5 c 256,25,26
 208 301 208 301 169.5 262.5 c 256,27,28
 131 224 131 224 92.5 185.5 c 256,29,30
 54 147 54 147 27 99 c 256,31,32
 0 51 0 51 0 0 c 257,33,-1
 -16 0 l 257,34,-1
 -16 512 l 257,35,-1
 0 512 l 257,36,-1
 0 435 l 257,37,38
 232 556 232 556 232 679 c 256,39,40
 232 707 232 707 218 742 c 257,41,42
 216 753 216 753 223.5 761.5 c 256,43,44
 231 770 231 770 242 770 c 256,45,46
 253 770 253 770 260.5 757.5 c 256,47,48
 268 745 268 745 270.5 727 c 256,49,50
 273 709 273 709 274 698 c 256,51,52
 275 687 275 687 275 679 c 256,19,20
EndSplineSet
EndChar

StartChar: flags.d5
Encoding: 432 57752 176
Width: 275
Flags: W
HStem: 0 21G<-16 0>
VStem: -16 16<0 56.4264 215 283.254 445 513.074 676 768> 211 43<388.822 519.984> 224 43<605.013 751.278> 232 43<835.557 981.113>
LayerCount: 2
Fore
SplineSet
0 215 m 257,0,1
 42 243 42 243 72.5 266.5 c 256,2,3
 103 290 103 290 138 323 c 256,4,5
 173 356 173 356 192 393 c 256,6,7
 211 430 211 430 211 468 c 256,8,9
 211 496 211 496 200 521 c 257,10,11
 180 497 180 497 137 456 c 256,12,13
 94 415 94 415 68.5 387.5 c 256,14,15
 43 360 43 360 21.5 317 c 256,16,17
 0 274 0 274 0 230 c 258,18,-1
 0 215 l 257,0,1
275 907 m 256,19,20
 275 847 275 847 237 790 c 257,21,22
 267 735 267 735 267 676.5 c 256,23,24
 267 618 267 618 229 560 c 257,25,26
 254 514 254 514 254 468 c 256,27,28
 254 416 254 416 228 365.5 c 256,29,30
 202 315 202 315 164.5 274.5 c 256,31,32
 127 234 127 234 89.5 193.5 c 256,33,34
 52 153 52 153 26 102.5 c 256,35,36
 0 52 0 52 0 0 c 257,37,-1
 -16 0 l 257,38,-1
 -16 768 l 257,39,-1
 0 768 l 257,40,-1
 0 676 l 257,41,42
 232 786 232 786 232 907 c 256,43,44
 232 936 232 936 218 970 c 257,45,46
 216 981 216 981 223.5 989 c 256,47,48
 231 997 231 997 242 997 c 256,49,50
 275 997 275 997 275 907 c 256,19,20
0 445 m 257,51,52
 224 557 224 557 224 677 c 256,53,54
 224 713 224 713 206 752 c 257,55,56
 186 728 186 728 141 686.5 c 256,57,58
 96 645 96 645 70.5 618.5 c 256,59,60
 45 592 45 592 22.5 548.5 c 256,61,62
 0 505 0 505 0 461 c 258,63,-1
 0 445 l 257,51,52
EndSplineSet
EndChar

StartChar: flags.d6
Encoding: 433 57753 177
Width: 275
Flags: W
HStem: 0 21G<-16 0>
VStem: -16 16<0 64.625 210 285.029 435 512.363 666 736.51 896 1024> 193 44<410.906 537.808> 216 43<622.935 755.455> 224 43<822.482 933.164> 232 43<991.768 1118.81>
LayerCount: 2
Fore
SplineSet
275 1051 m 256,0,1
 275 1011 275 1011 256 977 c 257,2,3
 267 934 267 934 267 892 c 256,4,5
 267 848 267 848 248 809 c 257,6,7
 259 755 259 755 259 705 c 256,8,9
 259 651 259 651 233 601 c 257,10,11
 236 552 236 552 237 502 c 257,12,13
 237 449 237 449 212 396 c 256,14,15
 187 343 187 343 153 298.5 c 256,16,17
 119 254 119 254 84 209 c 256,18,19
 49 164 49 164 24.5 111 c 256,20,21
 0 58 0 58 0 5 c 258,22,-1
 0 0 l 257,23,-1
 -16 0 l 257,24,-1
 -16 1024 l 257,25,-1
 0 1024 l 257,26,-1
 0 896 l 257,27,28
 57 905 57 905 106 922 c 256,29,30
 155 939 155 939 193.5 973 c 256,31,32
 232 1007 232 1007 232 1051 c 256,33,34
 232 1067 232 1067 229 1084.5 c 256,35,36
 226 1102 226 1102 226 1103 c 256,37,38
 226 1113 226 1113 233.5 1119 c 256,39,40
 241 1125 241 1125 250 1125 c 256,41,42
 265 1125 265 1125 270 1109.5 c 256,43,44
 275 1094 275 1094 275 1051 c 256,0,1
0 210 m 257,45,46
 39 246 39 246 66 273.5 c 256,47,48
 93 301 93 301 126 340.5 c 256,49,50
 159 380 159 380 176 421 c 256,51,52
 193 462 193 462 193 502 c 258,53,-1
 193 539 l 257,54,55
 174 514 174 514 132 468.5 c 256,56,57
 90 423 90 423 66 394.5 c 256,58,59
 42 366 42 366 21 320.5 c 256,60,61
 0 275 0 275 0 230 c 258,62,-1
 0 210 l 257,45,46
0 435 m 257,63,64
 42 464 42 464 74 489.5 c 256,65,66
 106 515 106 515 141.5 551 c 256,67,68
 177 587 177 587 196.5 626.5 c 256,69,70
 216 666 216 666 216 705 c 256,71,72
 216 721 216 721 212 756 c 257,73,74
 189 729 189 729 146.5 688.5 c 256,75,76
 104 648 104 648 75.5 620 c 256,77,78
 47 592 47 592 23.5 549 c 256,79,80
 0 506 0 506 0 461 c 258,81,-1
 0 435 l 257,63,64
0 666 m 257,82,83
 224 776 224 776 224 892 c 256,84,85
 224 915 224 915 220 934 c 257,86,87
 197 912 197 912 153 881 c 256,88,89
 109 850 109 850 78.5 828 c 256,90,91
 48 806 48 806 24 769.5 c 256,92,93
 0 733 0 733 0 691 c 258,94,-1
 0 666 l 257,82,83
EndSplineSet
EndChar

